<?xml version="1.0" encoding="utf-8"?>
<!-- Generator: Adobe Illustrator 25.4.1, SVG Export Plug-In . SVG Version: 6.00 Build 0)  -->
<svg version="1.1" id="Capa_1" xmlns="http://www.w3.org/2000/svg" xmlns:xlink="http://www.w3.org/1999/xlink" x="0px" y="0px"
	 viewBox="0 0 500 500" style="enable-background:new 0 0 500 500;" xml:space="preserve">
<style type="text/css">
	.st0{fill:url(#SVGID_1_);}
	.st1{fill:url(#SVGID_00000183931349175294294610000001445776188331015555_);}
	.st2{fill:url(#SVGID_00000163758428820337598880000009532214670425263245_);}
	.st3{fill:url(#SVGID_00000108990436963422723750000009986081220633306011_);}
	.st4{fill:url(#SVGID_00000006689831757009675100000003221559695188784046_);}
	.st5{fill:none;stroke:#000000;stroke-width:0.3943;stroke-miterlimit:10;}
	.st6{fill:#51413C;}
	.st7{opacity:0.8;fill:#FFCC63;}
	.st8{fill:url(#SVGID_00000178198321486709599590000002343359297289016960_);}
	.st9{fill:#F8F6EC;}
	.st10{fill:url(#SVGID_00000088099599199499358920000001215792263679743417_);}
	.st11{fill:url(#SVGID_00000062886397434023316890000017376811523319110318_);}
	.st12{fill:url(#SVGID_00000121241859086672342270000010073844334211520946_);}
	.st13{fill:url(#SVGID_00000088848366934620600990000016155315692530931390_);}
	.st14{opacity:0.5;fill:url(#SVGID_00000117677709500145426100000014346962515922283686_);}
	.st15{opacity:0.3;fill:url(#SVGID_00000089569353091479933660000001059131094017438613_);}
	.st16{opacity:0.3;fill:url(#SVGID_00000014617596621878128130000001469371279025334920_);}
	.st17{fill:url(#SVGID_00000148633355228910293890000012236336100463738529_);}
	.st18{opacity:0.5;fill:#FFCC63;}
	.st19{fill:url(#SVGID_00000137090651121462997570000012506583035084755585_);}
	.st20{opacity:0.3;fill:url(#SVGID_00000060749491047492068610000002747687631891676801_);}
	.st21{fill:#F5834D;}
	.st22{opacity:0.3;fill:url(#SVGID_00000123437858070663129090000011773054547418741947_);}
	.st23{opacity:0.3;fill:url(#SVGID_00000033348085943586824320000014463870640721728915_);}
	.st24{opacity:0.4;fill:url(#SVGID_00000109713883052296914280000009977070827204305845_);}
	.st25{fill:#FFCC63;}
	.st26{opacity:0.3;fill:url(#SVGID_00000152978956809714489620000011661532428286355623_);}
	.st27{opacity:0.5;fill:#51413C;}
	.st28{opacity:0.3;}
	.st29{fill:url(#SVGID_00000018920055468698030220000013565615327431733181_);}
	.st30{opacity:0.3;fill:url(#SVGID_00000127756411868888148990000013619438399502049705_);}
	.st31{fill:url(#SVGID_00000132046053046927959270000015959778529186910860_);}
	.st32{opacity:0.3;fill:url(#SVGID_00000077296424889485591370000006748179548943538085_);}
	.st33{fill:url(#SVGID_00000037655152877317901640000003638948924387746950_);}
	.st34{opacity:0.3;fill:url(#SVGID_00000141429569597295716250000016068312646251052683_);}
	.st35{opacity:0.3;fill:url(#SVGID_00000071523154280190068480000000944411338208218757_);}
	.st36{fill:url(#SVGID_00000082340881582345651770000006328732437450940313_);}
	.st37{opacity:0.5;}
	.st38{fill:#FFFFFF;}
</style>
<g>
	<g>
		<linearGradient id="SVGID_1_" gradientUnits="userSpaceOnUse" x1="2.9503" y1="395.6917" x2="497.0497" y2="395.6917">
			<stop  offset="0" style="stop-color:#FFCC63"/>
			<stop  offset="0.1487" style="stop-color:#D9BF64"/>
			<stop  offset="0.3149" style="stop-color:#B6B365"/>
			<stop  offset="0.4835" style="stop-color:#9AAA65"/>
			<stop  offset="0.6531" style="stop-color:#87A366"/>
			<stop  offset="0.8245" style="stop-color:#7B9F66"/>
			<stop  offset="1" style="stop-color:#779E66"/>
		</linearGradient>
		<path class="st0" d="M3,359.1c0,0,24.5-43.2,61.6-54.8s75.2-12.9,75.2-12.9s178.7,31.9,224.5,40.3c6.3,1.2,10.1,1.9,10.5,2
			c1.5,0.4,9.1,2.7,18,5.4c12.9,3.9,28.2,8.5,30.7,9.5c4.2,1.6,25.4,16.4,28.1,16.4c2.6,0,31.9-2.3,35-1.3
			c3.2,1.1,10.6,10.6,10.6,10.6v48.2c0,42.7-34.6,77.3-77.3,77.3L80.2,500C37.6,500,3,465.4,3,422.7V359.1z"/>
		
			<linearGradient id="SVGID_00000127757519016393395910000006442034590525438907_" gradientUnits="userSpaceOnUse" x1="198.1072" y1="415.4612" x2="497.0497" y2="415.4612">
			<stop  offset="0" style="stop-color:#779E66"/>
			<stop  offset="0.1755" style="stop-color:#7B9F66"/>
			<stop  offset="0.3469" style="stop-color:#87A366"/>
			<stop  offset="0.5165" style="stop-color:#9AAA65"/>
			<stop  offset="0.6851" style="stop-color:#B6B365"/>
			<stop  offset="0.8513" style="stop-color:#D9BF64"/>
			<stop  offset="1" style="stop-color:#FFCC63"/>
		</linearGradient>
		<path style="fill:url(#SVGID_00000127757519016393395910000006442034590525438907_);" d="M198.1,457.3c0,0,15.6-16.9,54.4-15.8
			c91.7,2.4,114-86.2,114-86.2s-24.7-29.6-2.4-23.6c6.2,1.7,10.1,1.9,10.5,2c1.5,0.4,9.1,2.7,18,5.4c12.9,3.9,28.2,8.5,30.7,9.5
			c4.2,1.6,25.4,16.4,28.1,16.4c2.6,0,31.9-2.3,35-1.3c3.2,1.1,10.6,10.6,10.6,10.6v48.2c0,42.7-34.6,77.3-77.3,77.3L242.1,500
			L198.1,457.3z"/>
		
			<linearGradient id="SVGID_00000044172106364935996360000010631902981764173204_" gradientUnits="userSpaceOnUse" x1="88.8899" y1="283.0488" x2="401.9503" y2="283.0488">
			<stop  offset="0" style="stop-color:#FFCC63"/>
			<stop  offset="3.189641e-02" style="stop-color:#FEC360"/>
			<stop  offset="0.1389" style="stop-color:#FBAC59"/>
			<stop  offset="0.2614" style="stop-color:#F89A54"/>
			<stop  offset="0.4065" style="stop-color:#F68D50"/>
			<stop  offset="0.5963" style="stop-color:#F5854E"/>
			<stop  offset="1" style="stop-color:#F5834D"/>
		</linearGradient>
		<path style="fill:url(#SVGID_00000044172106364935996360000010631902981764173204_);" d="M360.7,311.8c0,0-5.9,35.6,5.8,43.5
			c0,0-22.7,86.5-114.1,86.4c0,0-30.1,14-51.1,15.5c-10.2,0.7-13.6-2.3-19.3-1.8c0,0-25.2-3.3-38-13.2
			c-12.6-9.8-15.8-16.3-17.1-21.3c-1.3-5-12.2-41.6-21.8-53.8c-7.4-9.5-16.3-81-14.3-95.3c1.6-11.4,3.7-24.1,3.8-25.2
			c0.1-1.1,2-12.6-2-18.6c-3-4.5-3.8-29.6-3.8-34.7s0.4-9.2,1.1-11.3c0.7-2.1,1.7-35.3,9.8-46l41.2-27.1c0,0,122.3,34.4,120.8,34.1
			c-1.5-0.4,57.5,33.3,57.5,33.3l66.1,61l16.7,63.8H389C389,301.1,381.9,322.2,360.7,311.8z"/>
		
			<linearGradient id="SVGID_00000073707259698992849480000007605651991888657055_" gradientUnits="userSpaceOnUse" x1="486.0131" y1="269.5787" x2="73.3261" y2="65.625">
			<stop  offset="0" style="stop-color:#51413C"/>
			<stop  offset="0.1905" style="stop-color:#54423C"/>
			<stop  offset="0.3471" style="stop-color:#5E463D"/>
			<stop  offset="0.4916" style="stop-color:#704D3F"/>
			<stop  offset="0.6289" style="stop-color:#885742"/>
			<stop  offset="0.7611" style="stop-color:#A76445"/>
			<stop  offset="0.8877" style="stop-color:#CD7349"/>
			<stop  offset="1" style="stop-color:#F5834D"/>
		</linearGradient>
		<path style="fill:url(#SVGID_00000073707259698992849480000007605651991888657055_);" d="M497,250c-4.5,5.7-25.2,9.5-25.2,9.5
			c23-6,23.7-19.7,23.7-19.7c-9.2,10.7-29,8.2-29,8.2c11,0,22.2-15,22.2-15c-6.5,5.5-24.9,6-29.4,6c5.6-0.5,21.2-8.7,27.1-11.9
			c-5,1.9-12.9,1-12.9,1c6.5-1.2,15.2-10.2,15.2-10.2c-15.7,7-33.5-3.7-33.5-3.7c24-5.2,17.7-20.5,17.7-20.5
			c-6.5,18-24.7,12.5-24.7,12.5c19-2.2,20.5-11.5,20.5-11.5c-8.8,8.7-21.2,6.5-21.2,6.5c2.5-2.2-1.2-8.2-1.2-8.2l2-5h-4.7
			c10-6.7,8.5-14.5,8.5-14.5c-7.7,20.2-21.5,9.2-21.5,9.2c6.5-2.2,8.7-16,6.7-13.2c-2,2.7-7.7,7.5-7.7,7.5c2.5-2.2,2.5-9.7,2.5-9.7
			c-7.7,16.2-13.7,4.5-13.7,4.5h6.5l-3.7-2.2l1.7-3l-4.5-3.2c7.5-11-2-49.4-4.5-52.4c-2.5-3-16-33-18-35.9c-2-3-8.7-6.7-10-9.7
			c-1.2-3-18.7-24.7-18.7-24.7C335.8,6.1,260.4,3.7,254.7,0.7s-44.9,5-59.9,6.2c-15,1.2-47.2,19.7-49.7,23.7c-2.5,4-6.2,3-12,5.5
			c-5.7,2.5-26.5,20.7-29.2,23.5c-2.7,2.7-14,14.9-15,14.1c-1-0.7-9.5,3.6-13.5,4.8c-4,1.2-7.6,9.2-7.6,9.2
			c-12.3-2.2-11.6,16.7-11.6,16.7s-3.5,3-5.5,7c-2,4,4,9.7,4,9.7s-10,23.2-11,33.5c-1.4,14.2,16.5,33.5,16.5,33.5
			c-1.5,56.4,32,62.2,32,62.2l1.8,0.9c0,0,1.9-6.9,1-16.6c-0.3-3.7-3.5-8.3-4-12.8c-1.7-13.3-2.8-29.1-0.5-44.1
			c1.2-7.9,2.2-20.4,3.9-28c2.1-9.1,5.3-14,5.4-13.7c0.3,1.5,29.9-0.5,29.9-0.5c14-0.5,29.7-11.5,29.7-11.5
			c9,12.5,37.4,17.2,37.4,17.2s19.5,1.2,41.4,23.5c22,22.2,34.7,19.5,34.7,19.5c-6.7-0.5-12.8-5.1-16-6.4c4.2,1.3,16.5,3.7,34.7,7.9
			s21.5,16.5,21.5,16.5s-5.2,27.5-1.2,41.9c4,14.5,23.5,25,23.5,25s1.7,6,0.7,15.7c-1,9.7,13.7,24.2,13.7,24.2s11.7,1,10.7-2.8
			c-0.9-3.5-1.7-3.7-0.9-3.5c0.7,0.2,4.3-1.8,0-3.9c-4.9-2.4-3.2-7.3-3.2-7.3s3,3.3,8,6.3c-2.2-2.2-1-4.5,2.7-4.5c3.7,0,7.2,1,8,1
			c0.7,0,11.8,11.3,11.8,11.3s-8.1,15.7-26.1,6.3c-6.8,9.9-1.1,33.3,0.5,35.4c3.3,4.1,31.2-5.6,31.2-5.6l4.5,4.5c5,7.2,20,6,20,6
			c-0.5-4.2,3.5-13.7,3.5-13.7s5.7-1.5,11-7.7c5.2-6.2,4-16,4-16c26.5-0.5,33.7-22,33.7-22c13-8.2,8.5-16.5,8.5-16.5
			c-8.2,6.5-11.8,3.5-11.8,3.5l10-9C483.8,269.7,497,250,497,250z M68.4,130.6c-1.2,2.7-2.4,5.5-2.9,8.5c-0.5,3.2-0.2,6.4-0.4,9.6
			c-0.3,3.6-1.4,7.2-2.1,10.7c-1.7,8.3-1.6,17,0.4,25.2c-1.7-4.9-5.2-8.9-8.4-13.1c-3.1-4.2-6-8.9-5.9-14.1c0-1.9,0.5-3.8,1-5.6
			c1.4-5.5,3.2-11,6.3-15.7c1.9-3,4.4-5.7,7.4-7.7c0.7-0.5,4-2.8,4.9-2.4C70.3,126.6,68.8,129.6,68.4,130.6z M330.9,264.7
			c-3-1.6-5.5-4-7.7-6.7c-2.2-2.7-4-5.6-5.8-8.5c-1.1-1.7-2.2-3.5-2.9-5.4c-0.2-0.6-1-2.1-0.4-2.6c0.8-0.8,2-1.3,2.9-2
			c0.6,0.9,1.3,1.8,1.9,2.8c0.5,0.7,1,1.4,1.5,2.1c0.7,0.8,1.5,1.4,2.2,2.1c3.3,2.8,6.7,5.9,8.3,10c0.4,1.1,0.7,2.2,1.1,3.3
			c0.9,2.5,2.3,4.9,3.9,7.1C334.3,266.2,332.5,265.6,330.9,264.7z"/>
		
			<linearGradient id="SVGID_00000005261929476246129650000003362635880932736134_" gradientUnits="userSpaceOnUse" x1="96.8844" y1="232.8939" x2="113.0506" y2="232.8939">
			<stop  offset="0" style="stop-color:#FFCC63"/>
			<stop  offset="1.033074e-02" style="stop-color:#FFCA62"/>
			<stop  offset="0.1425" style="stop-color:#FBB05B"/>
			<stop  offset="0.2879" style="stop-color:#F89C55"/>
			<stop  offset="0.454" style="stop-color:#F68E50"/>
			<stop  offset="0.6567" style="stop-color:#F5854E"/>
			<stop  offset="1" style="stop-color:#F5834D"/>
		</linearGradient>
		<path style="fill:url(#SVGID_00000005261929476246129650000003362635880932736134_);" d="M96.9,231.1c4.7,0.3,16.2,3.7,16.2,3.7
			s-9.5-1.1-14.7-0.5"/>
		<path class="st5" d="M278.1,237.8c0,0,0.9-0.2,0.9,0.7c0.1,0.6-2.6,2-3.6,2.6c-0.3,0.2-0.6,0.2-1,0.1c-0.4-0.1-0.8-0.4-1-0.2
			c-0.3,0.4-0.8,2.1,0.8,2.3c1.3,0.2,2-0.4,2-0.4s1.8-0.6,2-0.7c0.7-0.3,1.3,0.1,1.3,0.6s-3.4,2.1-4.3,2.2c-0.8,0.1-3.6,1.1-3.9-2.1
			c-0.3-3.2,1.7-3.5,1.7-3.5s0.9,0.3,2.2,0.1C276.5,239.4,278.1,237.8,278.1,237.8z"/>
		<path class="st5" d="M75.8,229.8c0,0-0.5,0.6-0.4,0.8c0.1,0.2,0.3,0.5,0.6,0.5c0,0-0.6,0.4-0.6,0.6c0,0.2,0.5,0.6,1.7,0.4
			c1.2-0.2,1.5-0.5,1.5-0.6c0-0.1-0.1-0.5-0.1-0.5l-0.7-0.3c0,0,0.6-0.2,0.6-0.5c0-0.3,0-0.9-0.4-0.8
			C77.6,229.5,76.5,229.4,75.8,229.8z"/>
		<path class="st5" d="M77.5,227.6c0,0,0.5-0.6,0.4-0.8c-0.1-0.2-0.3-0.5-0.6-0.5c0,0,0.6-0.4,0.6-0.6c0-0.2-0.5-0.6-1.7-0.4
			c-1.2,0.2-1.5,0.5-1.5,0.6c0,0.1,0.1,0.5,0.1,0.5l0.7,0.3c0,0-0.6,0.2-0.6,0.5c0,0.3,0,0.9,0.4,0.8
			C75.7,228,76.8,228.1,77.5,227.6z"/>
		<path class="st5" d="M69.9,229.1c0,0,0.8,0.2,1.2,0.3c0.4,0.1,4.2-1.4,4.2-1.4s1.9,0.2,2.4-0.4c0.1-0.2,0.1,1.6,0.1,1.6
			s-1.9,0-2.2,0.5c-0.1,0.2-3.6,1.7-3.6,1.7s-0.8,0.5-1.7,0.1C69.7,231.4,69.5,229.5,69.9,229.1z"/>
		<path class="st5" d="M65.2,229.2c0,0,2.2,0.4,3.3-0.4c1.1-0.8,1.9-0.9,3.2-0.7c1.3,0.2,1.9-0.1,1.9-0.1v-1l-4.2-1L65.2,229.2z"/>
		<path class="st6" d="M78.1,239.5l16.6-6.1c0,0-2.4-6.8-2.7-7.4c-0.3-0.6-1.2-4.7-1.2-4.7s-2.4-0.5-5.9-0.9
			c-5.1-0.6-12.2-1.2-15.9-0.8L78.1,239.5z"/>
		<path class="st7" d="M78.1,239.5L65,244.7c0,0-3.3-8.8-4.4-15.4c-0.3-1.7-0.6-3.3-0.6-4.6c0-1.1,0.3-1.9,0.5-2.4
			c0.9-2.3,3.6-2.2,3.6-2.2s4.2-0.5,4.9-0.6L78.1,239.5z"/>
		<path class="st5" d="M277.7,234.8c0,0-1.8,0.1-2.2-0.1c-0.4-0.2-0.2-1-0.2-1h0.8l-0.1-1.1c0,0,0.4-1,1.9-1c1.5,0,2.1,0.5,2.1,0.5
			l0.1,1.3c0,0,0.8,0.1,0.7,0.4"/>
		<path class="st5" d="M281.5,233.1l-1.9,1.6l-2.3,0.3l-1.9,0.3l-5.8,3.9c0,0-1.2,4.2,0,6.2s3.2,1.6,3.2,1.6l3.6-1.1h1.1l2.4-2.4"/>
		<path class="st5" d="M282,234.5l-3,1.9l-6.5,1.8c0,0-2.9,0.8-2,5.6c0.9,4.8,9.5-0.4,9.5-0.4l2.7-1.2"/>
		
			<linearGradient id="SVGID_00000035533217833197480980000001672620779306130340_" gradientUnits="userSpaceOnUse" x1="196.1902" y1="241.5109" x2="240.2761" y2="241.5109">
			<stop  offset="0" style="stop-color:#FFCC63"/>
			<stop  offset="0.4277" style="stop-color:#FAA657"/>
			<stop  offset="0.7846" style="stop-color:#F68C50"/>
			<stop  offset="1" style="stop-color:#F5834D"/>
		</linearGradient>
		<path style="fill:url(#SVGID_00000035533217833197480980000001672620779306130340_);" d="M240.3,241.5c-2.7,0.8-16-3.4-22.3-4.2
			c-5.3-0.7-21.3,1.6-21.8,1.6l21.7,1.6c0,0,19,5.3,20.2,5.3"/>
		<path class="st9" d="M186,248c0,0,2-8.6,8.5-9c7.4-0.5,23.7,1.6,23.7,1.6s16.1,5.2,19.8,5c0,0-9,0.2-10.2,0.5
			c-1.2,0.3-11.3,4.8-20.5,4.8c-5.7,0-11.1-3.6-14.5-3.9C190.8,246.9,186,248,186,248z"/>
		
			<linearGradient id="SVGID_00000070821410262139254730000007459777146753024675_" gradientUnits="userSpaceOnUse" x1="197.1022" y1="244.9278" x2="214.4761" y2="244.9278">
			<stop  offset="0" style="stop-color:#F5834D"/>
			<stop  offset="0.108" style="stop-color:#E77D4C"/>
			<stop  offset="0.3119" style="stop-color:#C36F48"/>
			<stop  offset="0.5873" style="stop-color:#885742"/>
			<stop  offset="0.8215" style="stop-color:#51413C"/>
		</linearGradient>
		<path style="fill:url(#SVGID_00000070821410262139254730000007459777146753024675_);" d="M214.5,242.8c0-1-0.2-1.9-0.4-2.7
			c-4.3-0.5-10.9-1.1-16-1.2c-0.6,1.2-0.9,2.5-0.9,3.9c0,2.7,1.2,5,3.1,6.6c2.2,0.8,4.6,1.5,7.1,1.5c0.6,0,1.1,0,1.7-0.1
			C212.2,249.6,214.5,246.5,214.5,242.8z"/>
		<path class="st9" d="M125.5,244.3c-0.5-0.3-3.8-7.5-10.6-9c-7-1.6-18.1-1.2-18.1-1.2s0.1,9.8,8.6,10.3
			C114,244.7,125.5,244.3,125.5,244.3z"/>
		
			<linearGradient id="SVGID_00000013874313108863473880000004087892765864690326_" gradientUnits="userSpaceOnUse" x1="106.2128" y1="239.2289" x2="117.9288" y2="239.2289">
			<stop  offset="0" style="stop-color:#F5834D"/>
			<stop  offset="0.108" style="stop-color:#E77D4C"/>
			<stop  offset="0.3119" style="stop-color:#C36F48"/>
			<stop  offset="0.5873" style="stop-color:#885742"/>
			<stop  offset="0.8215" style="stop-color:#51413C"/>
		</linearGradient>
		<path style="fill:url(#SVGID_00000013874313108863473880000004087892765864690326_);" d="M117.9,238.9c0-1.1-0.3-2.2-0.8-3
			c-0.5-0.2-1.1-0.4-1.7-0.5c-2.1-0.5-4.7-0.8-7.1-0.9c-1.3,1.1-2.1,2.7-2.1,4.5c0,2.2,1.2,4.1,3,5.1c1.8,0.1,3.7,0.1,5.6,0.1
			C116.7,243.1,117.9,241.1,117.9,238.9z"/>
		
			<linearGradient id="SVGID_00000127029849029219457940000016169308812787394461_" gradientUnits="userSpaceOnUse" x1="164.6771" y1="204.2325" x2="270.3475" y2="204.2325">
			<stop  offset="0" style="stop-color:#F5834D"/>
			<stop  offset="0.1594" style="stop-color:#CB7249"/>
			<stop  offset="0.3495" style="stop-color:#9F6144"/>
			<stop  offset="0.5337" style="stop-color:#7D5341"/>
			<stop  offset="0.7078" style="stop-color:#65493E"/>
			<stop  offset="0.8677" style="stop-color:#56433D"/>
			<stop  offset="1" style="stop-color:#51413C"/>
		</linearGradient>
		<path style="fill:url(#SVGID_00000127029849029219457940000016169308812787394461_);" d="M165.7,216.6c-0.6-0.1-2.8-12.3,2.5-12.4
			c5.3-0.1,9.8-1.5,10.6-1.9c0.8-0.4,9.7-1.7,11.7-2c2-0.3,20.3-1.1,28.5-7.7c3.1-2.5,15.5,0.6,22.8,5.7
			c11.2,7.8,27.1,12.7,28.4,13.1c2.1,0.8-14.6-2.5-18.2-1.6c-3.6,0.9-23.1,1.9-26.2,2.3c-3.1,0.3-20.1-2.3-22.5-0.6
			C198.2,215.4,168.1,216.9,165.7,216.6z"/>
		
			<linearGradient id="SVGID_00000106848580708168800740000006924187779889597613_" gradientUnits="userSpaceOnUse" x1="89.219" y1="201.1164" x2="127.3026" y2="201.1164">
			<stop  offset="0" style="stop-color:#F5834D"/>
			<stop  offset="0.1594" style="stop-color:#CB7249"/>
			<stop  offset="0.3495" style="stop-color:#9F6144"/>
			<stop  offset="0.5337" style="stop-color:#7D5341"/>
			<stop  offset="0.7078" style="stop-color:#65493E"/>
			<stop  offset="0.8677" style="stop-color:#56433D"/>
			<stop  offset="1" style="stop-color:#51413C"/>
		</linearGradient>
		<path style="fill:url(#SVGID_00000106848580708168800740000006924187779889597613_);" d="M89.2,190.7c0,0,1.4-1.2,3.2-0.5
			c1.8,0.7,5.5,5.5,6.9,5.3c1.9-0.3,8.8,2.3,10.4,3.3c1.6,1.1,17.6,11.6,17.6,11.6s-11.3,1.8-15.2,1.9c-3.1,0-11-6.1-13.3-6.1
			c-2.3,0-9.4-1.2-9.4-1.2L89.2,190.7z"/>
		
			<linearGradient id="SVGID_00000137115936125762146210000004806132742575111339_" gradientUnits="userSpaceOnUse" x1="252.4719" y1="398.568" x2="366.5338" y2="398.568">
			<stop  offset="0" style="stop-color:#51413C"/>
			<stop  offset="0.1905" style="stop-color:#54423C"/>
			<stop  offset="0.3471" style="stop-color:#5E463D"/>
			<stop  offset="0.4916" style="stop-color:#704D3F"/>
			<stop  offset="0.6289" style="stop-color:#885742"/>
			<stop  offset="0.7611" style="stop-color:#A76445"/>
			<stop  offset="0.8877" style="stop-color:#CD7349"/>
			<stop  offset="1" style="stop-color:#F5834D"/>
		</linearGradient>
		<path style="opacity:0.5;fill:url(#SVGID_00000137115936125762146210000004806132742575111339_);" d="M349.8,356.1
			c-14.7,43.1-97.3,85.6-97.3,85.6s83.1,7,114.1-86.4"/>
		<g>
			
				<linearGradient id="SVGID_00000183938404289394089880000015534615626505760393_" gradientUnits="userSpaceOnUse" x1="118.4946" y1="377.9259" x2="205.467" y2="377.9259">
				<stop  offset="0" style="stop-color:#F5834D"/>
				<stop  offset="6.114107e-02" style="stop-color:#D27549"/>
				<stop  offset="0.1336" style="stop-color:#AF6746"/>
				<stop  offset="0.2139" style="stop-color:#925B43"/>
				<stop  offset="0.3023" style="stop-color:#7A5240"/>
				<stop  offset="0.4023" style="stop-color:#684A3E"/>
				<stop  offset="0.5206" style="stop-color:#5B453D"/>
				<stop  offset="0.675" style="stop-color:#53423C"/>
				<stop  offset="1" style="stop-color:#51413C"/>
			</linearGradient>
			<path style="opacity:0.3;fill:url(#SVGID_00000183938404289394089880000015534615626505760393_);" d="M205.5,373.7
				c0,0-16.7,5.1-26.7,4.3c-8.2-0.7-24.7-4.9-27.9-4.7c-2.4,0.2-6.5,0.4-9.7,1c-3.2,0.5-9.9-5.1-13-5.8c-1.9-0.4-9.7-0.8-9.7-0.8
				c0.8,2.3,1.2,13.2,9.8,15.2c3.6,0.9,8.4,1.6,10.4,2.1c2,0.5,12.4,4,21.4,3c5.8-0.6,17.7,0,31.4-6.5"/>
		</g>
		
			<linearGradient id="SVGID_00000014602682250423854690000007010851192434182041_" gradientUnits="userSpaceOnUse" x1="114.9398" y1="363.7095" x2="211.8405" y2="363.7095">
			<stop  offset="0" style="stop-color:#F5834D"/>
			<stop  offset="6.114107e-02" style="stop-color:#D27549"/>
			<stop  offset="0.1336" style="stop-color:#AF6746"/>
			<stop  offset="0.2139" style="stop-color:#925B43"/>
			<stop  offset="0.3023" style="stop-color:#7A5240"/>
			<stop  offset="0.4023" style="stop-color:#684A3E"/>
			<stop  offset="0.5206" style="stop-color:#5B453D"/>
			<stop  offset="0.675" style="stop-color:#53423C"/>
			<stop  offset="1" style="stop-color:#51413C"/>
		</linearGradient>
		<path style="opacity:0.3;fill:url(#SVGID_00000014602682250423854690000007010851192434182041_);" d="M211.8,373.9
			c0,0,0,0-2.7-1.3c-2.7-1.3-20.7,2.1-27.7,2.7c-7,0.5-30.6-7.5-33.4-6.1c-4.4,2.2-12.1,0.5-16.4-2.4c-4.2-2.9-12.8-3-15.2-3.8
			c-2.4-0.8-1.3-10.8-1.3-10.8s1.3,0.5,4.2,5.3c2.1,3.5,18.3,5.1,23.9,6.2c5.6,1.1,28.4,5.8,37.3,6.5
			C189.6,370.9,206.3,365.2,211.8,373.9z"/>
		
			<linearGradient id="SVGID_00000095315154501418499460000012160302240166693762_" gradientUnits="userSpaceOnUse" x1="117.3685" y1="284.1076" x2="187.4776" y2="309.6018">
			<stop  offset="0" style="stop-color:#FFCC63"/>
			<stop  offset="0.402" style="stop-color:#FAA858"/>
			<stop  offset="0.7791" style="stop-color:#F68D50"/>
			<stop  offset="1" style="stop-color:#F5834D"/>
		</linearGradient>
		<path style="fill:url(#SVGID_00000095315154501418499460000012160302240166693762_);" d="M179.2,305.7c6,7.4,6.2,12.5,6,20.1
			c-0.3,7.6-7.7,11.8-12.9,12.2c-5.2,0.4-9.2-3.8-16.4-4.5c-7.2-0.7-15,4.8-19.8,6.2c-10.3,3-17.3-3.5-24.7-12.4
			c-6.8-8.2-2.5-22.8,4.9-33.8c3-4.5,7.6-13.7,10.6-21.8c5.4-14.6,8.8-29,11.5-30.5c0,0,5.4-1.8,10.4,4.1
			c5.1,5.9,8.1,18.1,13.9,23.6"/>
		<path class="st7" d="M127.9,252.1c0-7.6-2.4-17.2-5.5-20.4c-0.5-0.5-1.4-1.1-2.5-1.6c0.6,0.4,1.1,0.7,1.4,1
			c2.8,3,5.1,12.2,5.1,19.4c0,7.3,1.8,16.8-9.5,16.9c-9.2,0.1-27.9,0.5-42.5-9c0,0-9.2-5-14-30.8c0,0-1.5-5.9,2-7.2
			c1.2-0.4,3.8-0.7,6.7-0.8l0-0.1c-5,0-9.3,0.3-11.1,0.9c-3.8,1.3-2.2,7.5-2.2,7.5c5.2,27.1,15.3,32.4,15.3,32.4
			c16,9.9,36.4,9.6,46.5,9.4C129.9,269.7,127.9,259.7,127.9,252.1z"/>
		<path class="st7" d="M259.5,239.6c-1.1-10.2-13.5-11.8-13.5-11.8s-13.8-2-37.8-3.2s-49.7,4.7-54.4,7.4c-4.6,2.7-0.5,12-0.5,12
			s1.1,4.7,10.5,20.1c9.6,15.7,43.7,17.4,55.9,17.4c12.1,0,26.9-1.9,34.3-4.4c6.9-2.4,7.2-11.3,7.2-11.3S260.5,249.8,259.5,239.6z
			 M252.2,274.1c-7.2,2.5-20.4,3.4-32.3,3.2c-12.2-0.2-43.6,0-53-15.1c-5.7-9.1-7.6-18.5-7.6-18.5s-3.9-10,0.6-12.7
			c4.5-2.7,24.7-7,48.3-5.9c23.6,1.1,37,4,37,4s10.8,2.6,12.5,12.5c1.8,10.2,1.8,21.7,1.8,21.7S259,271.7,252.2,274.1z"/>
		<path class="st18" d="M260.7,223.2c-0.2,0.8,0,1.6,1,2c2.3,0.8,2.6,4.3,2.6,4.3s1.6,24.2,3.5,32.2c1.2,5.2,3.5,7.4,5,8.3
			c4.4-4.2,8.4-8.4,10.5-10.6c0.3-2.1,0.4-4.5,0.4-4.5s-2-25.5-2.7-31.2c-0.3-2.7-2.3-4.1-4.3-4.7l-14.9,4.6
			C261.8,223.4,261.4,223.3,260.7,223.2z"/>
		<path class="st6" d="M272.7,270c2.2-2.1,4.3-4.2,6.1-6C277.1,265.8,275,267.9,272.7,270z"/>
		<path class="st6" d="M312.1,208l-35.4,10.9c2,0.7,4,2,4.3,4.7c0.7,5.8,2.7,31.2,2.7,31.2s-0.1,2.3-0.4,4.5
			c-0.2,0.2-0.4,0.4-0.6,0.6c1.4-1.5,2.2-2.4,2.2-2.4l26.6-15C309.2,228.3,312.1,208,312.1,208z"/>
		<path class="st6" d="M261.8,223.4C261.8,223.4,261.8,223.4,261.8,223.4C261.8,223.4,261.8,223.4,261.8,223.4L261.8,223.4z"/>
		<path class="st6" d="M279.9,262.9c-0.3,0.3-0.6,0.7-1,1C279.2,263.6,279.5,263.2,279.9,262.9z"/>
		<path class="st6" d="M280.8,262c-0.3,0.3-0.6,0.6-0.9,0.9C280.2,262.6,280.5,262.3,280.8,262z"/>
		<path class="st6" d="M282.4,260.3c-0.1,0.1-0.3,0.3-0.4,0.5C282.1,260.6,282.3,260.4,282.4,260.3z"/>
		<path class="st6" d="M282.6,260c-0.1,0.1-0.1,0.1-0.2,0.2C282.5,260.2,282.6,260.1,282.6,260z"/>
		<path class="st6" d="M281.9,260.8c-0.1,0.1-0.1,0.2-0.2,0.2C281.7,261,281.8,260.9,281.9,260.8z"/>
		<path class="st6" d="M281.1,261.7c-0.1,0.1-0.2,0.2-0.3,0.3C280.9,261.8,281,261.7,281.1,261.7z"/>
		<path class="st6" d="M281.6,261.1c-0.2,0.2-0.3,0.3-0.5,0.5C281.3,261.4,281.4,261.3,281.6,261.1z"/>
		<path class="st7" d="M260.7,223.2c-4.9-1.3-25.4-6.3-44.2-6.4c-21.6-0.1-63,6.2-63,6.2s-21.2,2.4-35.5-4.3
			c-14.4-6.7-53.1-6.4-53.1-6.4l-13.3,5c-0.4,0.2-0.7,0.6-0.7,1.1c39.3-6.2,66.1,5.5,66.1,5.5s17.8,4.6,35.3,0.4
			c20.4-4.8,54.1-2,64.7-2.1C227.6,222,260.7,223.2,260.7,223.2L260.7,223.2z"/>
		<g>
			<path class="st6" d="M267.8,261.7c-1.9-8.1-3.5-32.2-3.5-32.2s-0.3-3.5-2.6-4.3c-1.1-0.4-1.2-1.2-1-2c0.2,0-0.3-0.1,0,0
				c0,0-33.1-1.1-43.7-1c-10.6,0.1-44.3-2.7-64.7,2.1c-17.5,4.1-35.3-0.4-35.3-0.4s-26.8-11.7-66.1-5.5c0,0.1,0,0.1,0,0.2
				c1,3.7,5.5,20.4,7.1,27.7c2.5,11,9.7,15.1,9.7,15.1s8.2,6,27.4,9.9c19.5,3.9,31.6,1.3,31.6,1.3l6.1-17.9
				c0.5-13.3,4.6-13.6,6.5-13.7c4.4-0.3,9.8,1.3,15.5,14.5c5.8,13.4,13.2,21.2,26,25.1c12.7,3.9,63,5,74.2,2.7
				c4.1-0.8,11.4-7,17.8-13.1C271.3,269.1,269,266.9,267.8,261.7z M117.5,269.9c-10.1,0.1-30.5,0.5-46.5-9.4c0,0-10.1-5.3-15.3-32.4
				c0,0-1.6-6.2,2.2-7.5c3.8-1.3,19.2-1.2,28-0.1c6.8,0.8,13.6,2.9,19.4,4.6c8.7,2.6,15.2,4.7,17.1,6.6c3.1,3.2,5.5,12.8,5.5,20.4
				C127.9,259.7,129.9,269.7,117.5,269.9z M253.9,277.2c-7.3,2.6-22.1,4.4-34.3,4.4c-12.1,0-46.2-1.8-55.9-17.4
				c-9.5-15.4-10.5-20.1-10.5-20.1s-4.1-9.2,0.5-12c4.6-2.7,30.4-8.6,54.4-7.4s37.8,3.2,37.8,3.2s12.5,1.6,13.5,11.8
				c1.1,10.2,1.6,26.2,1.6,26.2S260.8,274.7,253.9,277.2z"/>
		</g>
		<path class="st5" d="M287.8,473.2"/>
		
			<linearGradient id="SVGID_00000054977035333996594780000012468532612861282224_" gradientUnits="userSpaceOnUse" x1="170.7246" y1="334.4875" x2="292.8842" y2="362.106">
			<stop  offset="0" style="stop-color:#F5834D"/>
			<stop  offset="0.1146" style="stop-color:#F79552;stop-opacity:0.8854"/>
			<stop  offset="0.3079" style="stop-color:#FBAD5A;stop-opacity:0.6921"/>
			<stop  offset="0.5122" style="stop-color:#FDBE5F;stop-opacity:0.4878"/>
			<stop  offset="0.733" style="stop-color:#FFC962;stop-opacity:0.267"/>
			<stop  offset="1" style="stop-color:#FFCC63;stop-opacity:0"/>
		</linearGradient>
		<path style="fill:url(#SVGID_00000054977035333996594780000012468532612861282224_);" d="M179.8,306.4c1.1,1.1,7.4,6.9,5.2,20.9
			c-1.2,8.2,24.7,28.8,24.7,28.8s10.2,8.8,8,16.3c0,0-2.1,23.8,15.2,31.4c17.3,7.6,32.3,13.1,41.6,7.6c9.3-5.5,61.8-47.1,77.7-83.7
			c-47.6-37.1-112.8-22.1-153.4-31.2c-17.2-3.9-26.9-7.4-26.9-7.4L179.8,306.4z"/>
		
			<linearGradient id="SVGID_00000023994332358522824930000003053692345169960832_" gradientUnits="userSpaceOnUse" x1="127.3026" y1="270.0208" x2="330.2366" y2="270.0208">
			<stop  offset="0" style="stop-color:#F5834D"/>
			<stop  offset="0.3297" style="stop-color:#B56946"/>
			<stop  offset="0.6413" style="stop-color:#7F5341"/>
			<stop  offset="0.8734" style="stop-color:#5E463D"/>
			<stop  offset="1" style="stop-color:#51413C"/>
		</linearGradient>
		<path style="opacity:0.3;fill:url(#SVGID_00000023994332358522824930000003053692345169960832_);" d="M127.3,269.9l4.6-16.1
			c0.5-13.3,5.3-13,7.2-13.1c4.4-0.3,9.8,1.3,15.5,14.5c5.8,13.4,13.2,21.2,26,25.1c12.7,3.9,63,5,74.2,2.7c8.3-1.7,30-25.4,30-25.4
			l32.3-18.1c0,0,9.6,9.4,13.2,15.3l-43.1,17.8c0,0-5.8,20.3-24.1,25.5c-24,6.8-74.9-2.8-77.9-4.8c-3.1-2-12.3-4-19.5-5.8
			c-7.2-1.8-16.7-11.2-22.7-18.9C137,260.9,127.3,269.9,127.3,269.9z"/>
		<path class="st6" d="M115,239.2c0,1.7-1.4,3.1-3.1,3.1c-1.7,0-3.1-1.4-3.1-3.1c0-1.7,1.4-3.1,3.1-3.1
			C113.6,236.1,115,237.5,115,239.2z"/>
		<path class="st21" d="M110.6,238.4c0,0.6-0.5,1.1-1.1,1.1c-0.6,0-1.1-0.5-1.1-1.1c0-0.6,0.5-1.1,1.1-1.1
			C110.1,237.3,110.6,237.8,110.6,238.4z"/>
		<path class="st6" d="M210.1,243.6c0,2.4-1.9,4.3-4.3,4.3c-2.4,0-4.3-1.9-4.3-4.3c0-2.4,1.9-4.3,4.3-4.3
			C208.2,239.3,210.1,241.2,210.1,243.6z"/>
		<path class="st21" d="M204.3,243c0,0.8-0.7,1.5-1.5,1.5c-0.8,0-1.5-0.7-1.5-1.5c0-0.8,0.7-1.5,1.5-1.5
			C203.6,241.5,204.3,242.2,204.3,243z"/>
		
			<linearGradient id="SVGID_00000000930573649427803760000007960140207218944409_" gradientUnits="userSpaceOnUse" x1="157.6097" y1="251.1195" x2="259.3757" y2="251.1195">
			<stop  offset="0" style="stop-color:#F5834D"/>
			<stop  offset="0.1594" style="stop-color:#CB7249"/>
			<stop  offset="0.3495" style="stop-color:#9F6144"/>
			<stop  offset="0.5337" style="stop-color:#7D5341"/>
			<stop  offset="0.7078" style="stop-color:#65493E"/>
			<stop  offset="0.8677" style="stop-color:#56433D"/>
			<stop  offset="1" style="stop-color:#51413C"/>
		</linearGradient>
		<path style="opacity:0.3;fill:url(#SVGID_00000000930573649427803760000007960140207218944409_);" d="M252.2,274.1
			c-7.2,2.5-20.4,3.4-32.3,3.2c-12.2-0.2-43.6,0-53-15.1c-5.7-9.1-7.6-18.5-7.6-18.5s-3.9-10,0.6-12.7c4.5-2.7,24.7-7,48.3-5.9
			c23.6,1.1,37,4,37,4s10.8,2.6,12.5,12.5c1.8,10.2,1.8,21.7,1.8,21.7S259,271.7,252.2,274.1z"/>
		
			<linearGradient id="SVGID_00000014634670592261951140000008235145010655726720_" gradientUnits="userSpaceOnUse" x1="195.6843" y1="250.9209" x2="259.3757" y2="250.9209">
			<stop  offset="0" style="stop-color:#FFCC63"/>
			<stop  offset="1" style="stop-color:#FFCC63;stop-opacity:0"/>
		</linearGradient>
		<path style="opacity:0.3;fill:url(#SVGID_00000014634670592261951140000008235145010655726720_);" d="M253.9,273.1
			c-5.1,2.5-14.1,4.3-22.6,4.1c-8.7-0.2-8.7,0.7-15.4-14.4c-4-9.1-11.2-11.8-11.2-11.8s-11.2-9.9-8.8-20.1c1.6-7,10.2-7,27-5.8
			c16.8,1.1,26.2,4,26.2,4s7.7,2.6,8.9,12.5c1.3,10.2,1.3,21.7,1.3,21.7S258.8,270.8,253.9,273.1z"/>
		<path class="st7" d="M173.9,261.7c0.5-2.7,0.5-16.2-3.9-20.6c-3.3-3.3-9.6-5.3-12.4-6c-0.3,3.8,1.5,8.6,1.5,8.6s2,9.4,7.6,18.5
			c2.6,4.2,6.9,7.2,11.9,9.3C176.3,268.4,173.6,263.6,173.9,261.7z"/>
		
			<linearGradient id="SVGID_00000049197767714840477570000010613305180583937181_" gradientUnits="userSpaceOnUse" x1="60.008" y1="243.55" x2="126.4172" y2="243.55">
			<stop  offset="0" style="stop-color:#F5834D"/>
			<stop  offset="7.944548e-02" style="stop-color:#DB794A"/>
			<stop  offset="0.2258" style="stop-color:#B16846"/>
			<stop  offset="0.3752" style="stop-color:#8E5A42"/>
			<stop  offset="0.5261" style="stop-color:#734F40"/>
			<stop  offset="0.6791" style="stop-color:#60473E"/>
			<stop  offset="0.8353" style="stop-color:#55433C"/>
			<stop  offset="1" style="stop-color:#51413C"/>
		</linearGradient>
		<path style="opacity:0.4;fill:url(#SVGID_00000049197767714840477570000010613305180583937181_);" d="M119.9,230.1
			c0.6,0.4,1.1,0.7,1.4,1c2.8,3,5.1,12.2,5.1,19.4c0,7.3,1.8,16.8-9.5,16.9c-9.2,0.1-27.9,0.5-42.5-9c0,0-9.2-5-14-30.8
			c0,0-1.5-5.9,2-7.2c1.2-0.4,6.7-0.9,6.7-0.9s16.7,1,21.9,1.7C90.9,221.3,109.7,225.7,119.9,230.1z"/>
		<path class="st25" d="M90.9,221.3c4.9,1.1,25,6.6,29,8.8"/>
		
			<linearGradient id="SVGID_00000042005562635079178250000015843466699447732109_" gradientUnits="userSpaceOnUse" x1="90.5764" y1="281.8395" x2="126.6799" y2="281.8395">
			<stop  offset="0" style="stop-color:#F5834D"/>
			<stop  offset="0.1594" style="stop-color:#CB7249"/>
			<stop  offset="0.3495" style="stop-color:#9F6144"/>
			<stop  offset="0.5337" style="stop-color:#7D5341"/>
			<stop  offset="0.7078" style="stop-color:#65493E"/>
			<stop  offset="0.8677" style="stop-color:#56433D"/>
			<stop  offset="1" style="stop-color:#51413C"/>
		</linearGradient>
		<path style="opacity:0.3;fill:url(#SVGID_00000042005562635079178250000015843466699447732109_);" d="M126.7,272.4
			c0,0-4.1,10.9-10.3,21c0,0-22.7-2.3-25.4-5.8c0,0-0.6-11.6-0.3-14.6c0.4-3,0.3-2.8,0.3-2.8S110.1,275.3,126.7,272.4z"/>
		<path class="st27" d="M133.3,253.3c0,0,2.5-7.2,7.5-7.2c10,0,9.2,5.9,14.2,9.9c0,0-4.2-12.4-12.1-14.9c0,0-3-0.9-4.4-0.3
			C137.8,241.2,135,246.5,133.3,253.3z"/>
		<g class="st28">
			
				<linearGradient id="SVGID_00000024004080051455655970000006913547524491441577_" gradientUnits="userSpaceOnUse" x1="111.5254" y1="333.0703" x2="185.2195" y2="333.0703">
				<stop  offset="0" style="stop-color:#F5834D"/>
				<stop  offset="0.3297" style="stop-color:#B56946"/>
				<stop  offset="0.6413" style="stop-color:#7F5341"/>
				<stop  offset="0.8734" style="stop-color:#5E463D"/>
				<stop  offset="1" style="stop-color:#51413C"/>
			</linearGradient>
			<path style="fill:url(#SVGID_00000024004080051455655970000006913547524491441577_);" d="M111.5,327.3
				c7.4,8.9,14.4,15.4,24.7,12.4c4.8-1.4,12.6-6.9,19.8-6.2c7.2,0.7,11.2,4.9,16.4,4.5c5.2-0.4,12.6-4.6,12.9-12.2c0,0-5.9,9-12.1,7
				c-6.2-1.9-17.9-4.8-23.1-2.7c-4.3,1.8-11.7,6.3-17.9,6.5C123.9,336.8,113.3,329.7,111.5,327.3z"/>
		</g>
		
			<linearGradient id="SVGID_00000170995456202569853310000004260949995170693279_" gradientUnits="userSpaceOnUse" x1="137.5119" y1="363.2667" x2="221.165" y2="443.733">
			<stop  offset="0" style="stop-color:#51413C"/>
			<stop  offset="4.333323e-02" style="stop-color:#66493E"/>
			<stop  offset="0.1355" style="stop-color:#8C5942"/>
			<stop  offset="0.2349" style="stop-color:#AC6645"/>
			<stop  offset="0.3414" style="stop-color:#C77048"/>
			<stop  offset="0.4575" style="stop-color:#DB794A"/>
			<stop  offset="0.5881" style="stop-color:#EA7F4C"/>
			<stop  offset="0.7452" style="stop-color:#F2824D"/>
			<stop  offset="1" style="stop-color:#F5834D"/>
		</linearGradient>
		<path style="opacity:0.3;fill:url(#SVGID_00000170995456202569853310000004260949995170693279_);" d="M122.3,378.2
			c0,0-1.5,5.2,6.5,9.3c8,4.1,32.6,17,34.8,19.7c2.2,2.7,36.4,14.7,42.1,17.7c5.7,3-13.9-43.3-13.9-43.3
			c-13.7,6.5-25.7,5.9-31.4,6.5c-9.1,1-19.4-2.5-21.4-3c-2-0.5-6.9-1-10.4-2.1C124.9,382,123.1,380.5,122.3,378.2z"/>
		<g class="st28">
			
				<linearGradient id="SVGID_00000172426205610034527850000011922785585015094453_" gradientUnits="userSpaceOnUse" x1="125.5171" y1="351.2549" x2="198.1072" y2="351.2549">
				<stop  offset="0" style="stop-color:#51413C"/>
				<stop  offset="4.333323e-02" style="stop-color:#66493E"/>
				<stop  offset="0.1355" style="stop-color:#8C5942"/>
				<stop  offset="0.2349" style="stop-color:#AC6645"/>
				<stop  offset="0.3414" style="stop-color:#C77048"/>
				<stop  offset="0.4575" style="stop-color:#DB794A"/>
				<stop  offset="0.5881" style="stop-color:#EA7F4C"/>
				<stop  offset="0.7452" style="stop-color:#F2824D"/>
				<stop  offset="1" style="stop-color:#F5834D"/>
			</linearGradient>
			<path style="fill:url(#SVGID_00000172426205610034527850000011922785585015094453_);" d="M198.1,367.7c-22,5.6-39.4-7-39.4-7
				c-11.7,5.2-18.5-4.2-20.2-7.7c-1.7-3.5-13-13.7-13-13.7s3.3,2.2,10.8,0.4c4.8-1.4,12.6-6.9,19.8-6.2c7.2,0.7,11.2,4.9,16.4,4.5"
				/>
		</g>
		
			<linearGradient id="SVGID_00000155848296708935481820000005874532263341667496_" gradientUnits="userSpaceOnUse" x1="142.4785" y1="349.0612" x2="154.2664" y2="349.0612">
			<stop  offset="0" style="stop-color:#51413C"/>
			<stop  offset="0.1721" style="stop-color:#765040"/>
			<stop  offset="0.4507" style="stop-color:#AC6645"/>
			<stop  offset="0.6915" style="stop-color:#D4764A"/>
			<stop  offset="0.8826" style="stop-color:#EC7F4C"/>
			<stop  offset="1" style="stop-color:#F5834D"/>
		</linearGradient>
		<path style="opacity:0.3;fill:url(#SVGID_00000155848296708935481820000005874532263341667496_);" d="M142.7,336.9
			c0,0,2.7,7.5,1.1,11.9c-1.6,4.4-1.7,8.7-0.3,10.3s4.4,5.6,5.5,5.6c1.2,0,6.2-1.1,5.1-11.6c-1.1-10.5-0.6-19.6-0.6-19.6
			S150.3,333.3,142.7,336.9z"/>
		<g class="st28">
			<g>
				
					<linearGradient id="SVGID_00000004537953610986291350000000296399599332109440_" gradientUnits="userSpaceOnUse" x1="134.3858" y1="406.4556" x2="349.8676" y2="406.4556">
					<stop  offset="0" style="stop-color:#F5834D"/>
					<stop  offset="6.114107e-02" style="stop-color:#D27549"/>
					<stop  offset="0.1336" style="stop-color:#AF6746"/>
					<stop  offset="0.2139" style="stop-color:#925B43"/>
					<stop  offset="0.3023" style="stop-color:#7A5240"/>
					<stop  offset="0.4023" style="stop-color:#684A3E"/>
					<stop  offset="0.5206" style="stop-color:#5B453D"/>
					<stop  offset="0.675" style="stop-color:#53423C"/>
					<stop  offset="1" style="stop-color:#51413C"/>
				</linearGradient>
				<path style="fill:url(#SVGID_00000004537953610986291350000000296399599332109440_);" d="M349.9,355.9
					c-8.5,17.9-53.1,48.7-60.5,55.6c-8.1,7.6-50.2,22.3-52.9,23.5s-27.3,13.9-29.9,15.1c-5.2,2.5-20.8-1.2-25-3.5
					c-8.5-4.6-16.3-15.9-19.8-19.3c-3.5-3.4-18.1-8.3-20.9-4.6c-1.3,1.7-1,8-3.2,10.4c-0.9,1-3.3,0.2-3.3,0.2
					c2.3,2.5,5.8,5.7,9.7,8.7c12.9,9.9,38,13.2,38,13.2c5.7-0.4,9.1,2.5,19.3,1.8c21-1.5,51.1-15.5,51.1-15.5
					S335.1,398.9,349.9,355.9z"/>
			</g>
		</g>
		
			<linearGradient id="SVGID_00000132053971001507638880000005153113952069253816_" gradientUnits="userSpaceOnUse" x1="376.975" y1="294.6075" x2="374.0171" y2="303.0957">
			<stop  offset="0" style="stop-color:#51413C"/>
			<stop  offset="0.1266" style="stop-color:#5E463D"/>
			<stop  offset="0.3587" style="stop-color:#7F5341"/>
			<stop  offset="0.6703" style="stop-color:#B56946"/>
			<stop  offset="1" style="stop-color:#F5834D"/>
		</linearGradient>
		<path style="opacity:0.3;fill:url(#SVGID_00000132053971001507638880000005153113952069253816_);" d="M372.7,303
			c-6.3,0.8-8.5-5.3-8.5-5.3c-2.2-2.2-1-4.5,2.7-4.5c3.7,0,7.2,1,8,1c0.7,0,11.8,11.3,11.8,11.3C385.9,304,378.6,302.2,372.7,303z"
			/>
		
			<linearGradient id="SVGID_00000119119929487483018460000009207669879042753682_" gradientUnits="userSpaceOnUse" x1="360.4238" y1="361.7694" x2="448.7641" y2="361.7694">
			<stop  offset="0" style="stop-color:#51413C"/>
			<stop  offset="0.2728" style="stop-color:#53423C"/>
			<stop  offset="0.4295" style="stop-color:#5C453D"/>
			<stop  offset="0.5568" style="stop-color:#6A4B3F"/>
			<stop  offset="0.6684" style="stop-color:#7E5341"/>
			<stop  offset="0.7696" style="stop-color:#975D43"/>
			<stop  offset="0.8634" style="stop-color:#B76A47"/>
			<stop  offset="0.9496" style="stop-color:#DC794A"/>
			<stop  offset="1" style="stop-color:#F5834D"/>
		</linearGradient>
		<path style="opacity:0.3;fill:url(#SVGID_00000119119929487483018460000009207669879042753682_);" d="M365.5,355.3
			c0,0,10.5,8.1,9.4,13.2c-1.1,5,6.9-8.1,7.3-8.9s-0.4,17.9-1.5,21c-1.1,3.1,15.9-11.7,16.5-12c0.5-0.3,10.4,10.6,10.1,13
			c-0.3,2.4,16.5-8.9,16.5-8.9s6.9,7.3,11.7,5.4c4.8-1.9,13.3-13.8,13.3-13.8l-26-15.7l-6.2-2.1c0,0-0.9,4.4-0.7,5.4
			c-5.2,0.1-15.2,1.1-24.5-10.5c0,0-23.5,8.6-31,5.9C360.4,347.5,361.8,352.1,365.5,355.3z"/>
		<g class="st28">
			
				<linearGradient id="SVGID_00000142862278411748577030000001082003137189277605_" gradientUnits="userSpaceOnUse" x1="132.8579" y1="157.6206" x2="279.4384" y2="157.6206">
				<stop  offset="0" style="stop-color:#F5834D"/>
				<stop  offset="0.3297" style="stop-color:#B56946"/>
				<stop  offset="0.6413" style="stop-color:#7F5341"/>
				<stop  offset="0.8734" style="stop-color:#5E463D"/>
				<stop  offset="1" style="stop-color:#51413C"/>
			</linearGradient>
			<path style="fill:url(#SVGID_00000142862278411748577030000001082003137189277605_);" d="M132.9,138.4
				c1.6-0.8,14.3-1.6,25.7-12.6c0,0,8.2,15.9,39.2,18.1c0,0,14.9,10.4,21,10.5c0,0,14.2,10.4,16.8,13.4c2.7,3,20.8,10.3,43.9,14.9
				c0,0-6.3,15.6-50.4-1.1c0,0-8.6-5.4-23.4-0.7C179.4,189.5,135.5,157.8,132.9,138.4z"/>
		</g>
		<g class="st37">
			<path class="st6" d="M95.4,145.5c0,0,2.1-4.9,4.6-5.1s4.4,0,4.7,0.5c0.4,0.4,2.4-0.3,2.7-0.3c0.3,0-0.3-2.4,0.8-2.6
				c1.1-0.1,2.9,3,3.9,3.1c1,0.1,5.5-1.9,7.2-1.4s4.1,0.6,5.6-0.4c1.5-1,4-1,5.4-0.7c1.4,0.3,16.9-1.8,28.2-12.8
				c0,0,8.2,15.9,39.2,18.1c0,0,14.9,10.4,21,10.5c0,0,14.2,10.4,16.8,13.4c2.7,3,11.9,15.9,34.8,18.9c0,0-19.9-5.4-20.5-11.9l0,0
				c-3.5-2.6-7.4-6-11.7-10.3c-22-22.2-41.4-23.5-41.4-23.5s-28.5-4.8-37.4-17.2c0,0-15.7,11-29.7,11.5c0,0-29.6,2.1-29.9,0.5
				C99.3,136.3,97.4,139.3,95.4,145.5z"/>
		</g>
	</g>
	<g>
		<path class="st38" d="M302,448.6h8.9v3.8h-5v6.6h3.6v4h-3.6v6.9h5v3.8H302V448.6z"/>
		<path class="st38" d="M313.1,473.8v-25.2h3.1c3.6,0,5.6,0.7,6.6,2.6c1,1.9,1.2,5.1,1.2,10c0,4.9-0.1,8.1-1.2,10
			c-1,1.9-3,2.6-6.6,2.6H313.1z M317,470.1c1.3,0,2.1-0.1,2.5-1.4c0.2-0.6,0.3-1.5,0.4-2.7c0-1.2,0-2.8,0-4.9c0-2.1,0-3.7,0-4.9
			c0-1.2-0.2-2.1-0.4-2.7c-0.4-1.2-1.2-1.3-2.5-1.3V470.1z"/>
		<path class="st38" d="M332.5,457.7v-3.8c0-0.7-0.1-1.1-0.5-1.5c-0.2-0.2-0.5-0.3-0.8-0.3c-0.7,0-1,0.5-1.2,0.9
			c-0.1,0.3-0.1,0.6-0.1,0.9v14.8c0,0.7,0.2,1.2,0.5,1.5c0.2,0.2,0.4,0.3,0.8,0.3c0.7,0,1-0.4,1.2-0.9c0.1-0.2,0.1-0.5,0.1-0.9v-4.5
			H331v-3.1h5.5v12.5h-2.3l-0.5-1.4c-0.7,0.8-1.8,1.4-3,1.4c-1.3,0-2.1-0.3-2.8-0.8c-0.7-0.5-1.1-1.1-1.4-1.8
			c-0.3-0.8-0.5-1.7-0.4-2.7v-14.5c0-1,0.3-1.9,0.7-2.6c0.3-0.7,0.8-1.3,1.5-1.8c0.7-0.5,1.7-0.8,3-0.8c1.3,0,2.3,0.3,3,0.8
			c0.7,0.5,1.2,1.2,1.6,1.8c0.4,0.8,0.6,1.7,0.7,2.6v3.8H332.5z"/>
		<path class="st38" d="M338.5,473.8l4-25.2h4.8l4,25.2h-3.8l-0.7-5.1h-3.8l-0.7,5.1H338.5z M345.2,456.8l-0.1-0.7h-0.2l-0.1,0.7
			l-1.1,8h2.7L345.2,456.8z"/>
		<path class="st38" d="M360.4,473.8l-2-10.6h-1v10.6h-3.9v-25.2h3.9c4.7,0,6.7,2.5,6.7,7.3c0,2.5-0.7,4.8-2.2,5.7l2.5,12.2H360.4z
			 M357.3,459.7c0.5,0,1.3-0.1,1.8-0.5c0.6-0.5,1-1.4,1-3.2c0-1.8-0.5-2.7-1-3.2c-0.6-0.5-1.3-0.5-1.8-0.5V459.7z"/>
		<path class="st38" d="M382.5,465.1v3.4c0,1-0.3,1.9-0.7,2.7c-0.3,0.7-0.8,1.3-1.6,1.8c-0.7,0.5-1.7,0.8-3,0.8s-2.3-0.3-3-0.8
			c-0.7-0.5-1.2-1.1-1.5-1.8c-0.4-0.8-0.6-1.7-0.7-2.7v-14.5c0-1,0.3-1.9,0.7-2.6c0.3-0.7,0.8-1.3,1.5-1.8c0.7-0.5,1.7-0.8,3-0.8
			s2.3,0.3,3,0.8c0.7,0.5,1.2,1.2,1.6,1.8c0.4,0.8,0.6,1.7,0.7,2.6v3.4h-3.7v-3.4c0-0.7-0.2-1.1-0.6-1.5c-0.2-0.2-0.5-0.3-0.9-0.3
			c-0.7,0-1,0.5-1.2,0.9c-0.1,0.3-0.1,0.6-0.2,0.9v14.5c0,0.7,0.3,1.2,0.6,1.5c0.2,0.2,0.4,0.3,0.8,0.3c0.8,0,1.2-0.4,1.3-0.9
			c0.1-0.2,0.1-0.5,0.1-0.9v-3.4H382.5z"/>
		<path class="st38" d="M395.1,468.5c0,1-0.3,1.9-0.7,2.7c-0.3,0.7-0.8,1.3-1.6,1.8c-0.7,0.5-1.7,0.8-3,0.8c-1.3,0-2.3-0.3-3-0.8
			c-0.7-0.5-1.2-1.1-1.5-1.8c-0.4-0.8-0.6-1.7-0.7-2.7v-14.5c0-1,0.3-1.9,0.7-2.6c0.3-0.7,0.8-1.3,1.5-1.8c0.7-0.5,1.7-0.8,3-0.8
			c1.3,0,2.3,0.3,3,0.8c0.7,0.5,1.2,1.2,1.6,1.8c0.4,0.8,0.6,1.7,0.7,2.6V468.5z M391.1,453.9c0-0.7-0.1-1.1-0.5-1.5
			c-0.2-0.2-0.5-0.3-0.8-0.3c-0.7,0-1,0.5-1.2,0.9c-0.1,0.3-0.1,0.6-0.1,0.9v14.5c0,0.7,0.2,1.2,0.5,1.5c0.2,0.2,0.4,0.3,0.8,0.3
			c0.7,0,1-0.4,1.2-0.9c0.1-0.2,0.1-0.5,0.1-0.9V453.9z"/>
		<path class="st38" d="M404.1,473.8l-2-10.6h-1v10.6h-3.9v-25.2h3.9c4.7,0,6.7,2.5,6.7,7.3c0,2.5-0.7,4.8-2.2,5.7l2.5,12.2H404.1z
			 M401.1,459.7c0.5,0,1.3-0.1,1.8-0.5c0.6-0.5,1-1.4,1-3.2c0-1.8-0.5-2.7-1-3.2c-0.6-0.5-1.3-0.5-1.8-0.5V459.7z"/>
		<path class="st38" d="M414.3,460.7l-0.3-1.2h-0.2v14.3h-3.6v-25.2h3.5l3.8,13.1l0.3,1.2h0.2v-14.3h3.6v25.2h-3.5L414.3,460.7z"/>
		<path class="st38" d="M423.6,448.6h8.9v3.8h-5v6.6h3.6v4h-3.6v6.9h5v3.8h-8.9V448.6z"/>
		<path class="st38" d="M434.7,470.2c0.8,0.1,1.3-0.1,1.8-0.6c0.2-0.2,0.3-0.6,0.3-1.2v-19.7h3.9v20.3c0,1.4-0.4,2.6-1.3,3.5
			c-0.9,0.9-2.4,1.5-4.7,1.3V470.2z"/>
		<path class="st38" d="M453.2,468.5c0,1-0.3,1.9-0.7,2.7c-0.3,0.7-0.8,1.3-1.6,1.8c-0.7,0.5-1.7,0.8-3,0.8s-2.3-0.3-3-0.8
			c-0.7-0.5-1.2-1.1-1.5-1.8c-0.4-0.8-0.6-1.7-0.7-2.7v-14.5c0-1,0.3-1.9,0.7-2.6c0.3-0.7,0.8-1.3,1.5-1.8c0.7-0.5,1.7-0.8,3-0.8
			s2.3,0.3,3,0.8c0.7,0.5,1.2,1.2,1.6,1.8c0.4,0.8,0.6,1.7,0.7,2.6V468.5z M449.3,453.9c0-0.7-0.1-1.1-0.5-1.5
			c-0.2-0.2-0.5-0.3-0.8-0.3c-0.7,0-1,0.5-1.2,0.9c-0.1,0.3-0.1,0.6-0.1,0.9v14.5c0,0.7,0.2,1.2,0.5,1.5c0.2,0.2,0.4,0.3,0.8,0.3
			c0.7,0,1-0.4,1.2-0.9c0.1-0.2,0.1-0.5,0.1-0.9V453.9z"/>
	</g>
</g>
</svg>
