<?xml version="1.0" encoding="utf-8"?>
<!-- Generator: Adobe Illustrator 25.4.1, SVG Export Plug-In . SVG Version: 6.00 Build 0)  -->
<svg version="1.1" id="Capa_1" xmlns="http://www.w3.org/2000/svg" xmlns:xlink="http://www.w3.org/1999/xlink" x="0px" y="0px"
	 viewBox="0 0 500 500" style="enable-background:new 0 0 500 500;" xml:space="preserve">
<style type="text/css">
	.st0{fill:#054D56;}
</style>
<g>
	<g>
		<path class="st0" d="M275.2,3.6c125.9,0,217.4,86,217.4,204.4c0,25-3.4,48.4-10.2,69.4c-6.5,20.3-16.1,38.1-28.3,52.8
			c-12.1,14.6-26.6,25.9-43.1,33.6c-16.8,7.9-35.3,11.8-55,11.8c-17.3,0-31.3-4.1-41.6-12.3c-10.5-8.3-17.2-20.7-19.9-37
			c-0.3-1.7-1.8-3-3.5-3h-1.6c-1.2,0-2.4,0.6-3,1.7c-10.3,16.3-22.9,29-37.5,37.6s-30.8,13-48.2,13c-23.2,0-42.8-8.3-56.6-24
			c-14.3-16.2-21.9-39.8-21.9-68c0-43.1,15.4-83.2,43.5-112.8c14.5-15.3,31.8-27.3,51.5-35.6c20.9-8.8,44.2-13.3,69.1-13.3
			c30,0,67.2,7.4,85,16.7l-19.7,132.1c-4.1,27.7-2.8,43.1,4.2,51.5c3.7,4.4,9.2,6.8,16.1,7c0.5,0,0.9,0,1.4,0
			c16.6,0,33.3-10.7,45.6-29.5c10.1-15.3,22.2-43.6,22.2-90.9c0-99.4-68.2-163.6-173.6-163.6c-99.8,0-205.8,77-205.8,219.8
			c0,116.7,71.6,189.3,186.7,189.3c34.8,0,72.7-7.5,100.3-19.8l11.1,38.8c-40.7,17-74.8,23.1-128.6,23.1c-29.4,0-57.9-5.2-84.7-15.3
			C119.6,470.9,95.6,456,75.2,437C54,417.2,37.5,393.6,26,366.8c-12.2-28.5-18.4-60.1-18.4-94c0-35.7,6.5-70.3,19.3-102.9
			c12.7-32.3,31-61.1,54.4-85.8c24-25.3,52.4-45,84.5-58.8C199.4,10.9,236.3,3.6,275.2,3.6 M232,316.2c11.3,0,23.3-6.9,33-18.9
			c10.2-12.6,17.3-30.2,19.9-49.5l8.4-62.5c0.2-1.8-0.9-3.5-2.7-3.9c-6-1.4-11.6-2.1-17.2-2.1c-41.5,0-75.2,41.9-75.2,93.4
			C198.2,300.3,210.5,316.2,232,316.2 M275.2,0C112.5,0,3.9,127,3.9,272.8c0,141.9,107.4,227.2,227,227.2
			c52.4,0,88.4-5.6,132.9-24.6l-13.1-45.8c-28.6,13.6-68.1,21.2-102.5,21.2C141,450.8,65,385.8,65,265.1
			c0-133.6,95-216.2,202.2-216.2c110.8,0,170.1,70.9,170.1,160c0,81.4-36.3,116.8-64.3,116.8c-0.4,0-0.8,0-1.3,0
			c-18.7-0.5-22.3-17.8-16.9-54.4l20.1-134.5c-17.2-10.1-56.6-18.3-88.9-18.3c-104.9,0-167.6,78.1-167.6,165.2
			c0,60.2,33.4,95.5,82.1,95.5c36.3,0,67.5-18.5,88.7-52.3h1.6c5.7,34.8,29.1,52.3,65,52.3c82.1,0,140.3-67.5,140.3-171.2
			C496.1,86.9,402.6,0,275.2,0L275.2,0z M232,312.7c-19.9,0-30.2-14.7-30.2-40.1c0-48.5,31.1-89.8,71.7-89.8c5.6,0,11,0.7,16.3,2
			l-8.4,62.5C275.8,287.5,252.2,312.7,232,312.7L232,312.7z"/>
	</g>
</g>
</svg>
