<?xml version="1.0" encoding="utf-8"?>
<!-- Generator: Adobe Illustrator 25.4.1, SVG Export Plug-In . SVG Version: 6.00 Build 0)  -->
<svg version="1.1" id="Capa_1" xmlns="http://www.w3.org/2000/svg" xmlns:xlink="http://www.w3.org/1999/xlink" x="0px" y="0px"
	 viewBox="0 0 500 500" style="enable-background:new 0 0 500 500;" xml:space="preserve">
<style type="text/css">
	.st0{fill:#FFFFFF;}
	.st1{fill:none;stroke:#FFFFFF;stroke-width:4.9751;stroke-linecap:round;stroke-linejoin:round;stroke-miterlimit:10;}
</style>
<g>
	<g>
		<path class="st0" d="M391.1,5c17.6,0,31.9,14.3,31.9,31.9v194.8c0,17.6-14.3,31.9-31.9,31.9H57c-17.6,0-31.9-14.3-31.9-31.9V36.9
			C25,19.3,39.4,5,57,5H391.1 M391.1,0H57C36.6,0,20.1,16.5,20.1,36.9v194.8c0,20.4,16.5,36.9,36.9,36.9h334.1
			c20.4,0,36.9-16.5,36.9-36.9V36.9C428,16.5,411.5,0,391.1,0L391.1,0z"/>
	</g>
	<path class="st1" d="M25,452.2c0,0,27.4-79.6,89.6-79.6s91.3,124.9,160.9,124.9c49,0,68-95,68-95l116.9-116.9c0,0,6.2-6.2,14.9,2.5
		c8.7,8.7,2.5,12.4,2.5,12.4L360.9,417.4l-22.4,5"/>
	<path class="st1" d="M191.7,52.2c0,0-14.9,34.8,42.3,37.3c34.7,1.5,40.9,31.1,39.8,52.2"/>
	<path class="st1" d="M214.1,119.4c0,0,13.6,20.4,59,22.6c45.4,2.2,52.9,19.7,52.9,39.6c0,0-22.9-25.3-77.1-5
		C189.2,199,166.8,194,166.8,194"/>
	<path class="st1" d="M119.6,146.8c0,0,33.8,23.3,70.4,10.5c44-15.5,59,3.3,60.2,18.8"/>
	<g>
		<path class="st0" d="M301.2,151.7c-1.4,0-2.5,1.1-2.5,2.5s1.1,2.5,2.5,2.5s2.5-1.1,2.5-2.5S302.5,151.7,301.2,151.7L301.2,151.7z"
			/>
	</g>
	<g>
		<path class="st1" d="M207,268.7v21.7c0,0,4.3,33-30.5,33"/>
		<path class="st1" d="M241.1,269.9v21.7c0,0-4.3,33,30.5,33"/>
	</g>
</g>
</svg>
