<?xml version="1.0" encoding="utf-8"?>
<!-- Generator: Adobe Illustrator 16.0.0, SVG Export Plug-In . SVG Version: 6.00 Build 0)  -->
<!DOCTYPE svg PUBLIC "-//W3C//DTD SVG 1.1//EN" "http://www.w3.org/Graphics/SVG/1.1/DTD/svg11.dtd">
<svg version="1.1" id="Capa_1" xmlns="http://www.w3.org/2000/svg" xmlns:xlink="http://www.w3.org/1999/xlink" x="0px" y="0px"
	 width="100px" height="1244.613px" viewBox="0 0 100 1244.613" enable-background="new 0 0 100 1244.613" xml:space="preserve">
<g>
	<path fill="#00B300" d="M99.936,199.427c0,13.809-11.191,25-25,25h-50c-13.808,0-25-11.191-25-25v-50c0-13.809,11.192-25,25-25h50
		c13.809,0,25,11.191,25,25V199.427z"/>
	<path opacity="0.1" enable-background="new    " d="M100.012,199.503v-18.205l-37.238-36.795l-2.684,6.484l13.363,13.365v20.148
		l-13.426,13.463l-19.52,0.057l-20.497-10.756l28.052,37.236h26.949C88.82,224.503,100.012,213.31,100.012,199.503z"/>
	<g opacity="0.12">
		<g>
			<polygon points="60.012,150.911 73.454,164.353 73.454,184.503 60.027,197.966 39.86,197.946 26.418,184.503 26.434,164.337 
				39.86,150.911 			"/>
			<polygon points="37.174,144.429 19.936,161.669 26.434,170.36 26.434,164.337 39.86,150.911 42.217,150.921 			"/>
		</g>
	</g>
	<g>
		<g>
			<polygon fill="#FFFFFF" points="59.439,150.946 62.125,157.427 37.746,157.427 40.432,150.946 			"/>
			<polygon fill="#FFFFFF" points="62.695,204.427 79.936,187.188 73.454,184.503 60.012,197.946 			"/>
			<polygon fill="#FFFFFF" points="26.418,184.503 19.936,187.188 37.174,204.427 39.86,197.946 			"/>
			<polygon fill="#FFFFFF" points="37.174,144.429 19.936,161.669 26.418,164.353 39.86,150.911 			"/>
			<polygon fill="#FFFFFF" points="32.915,186.616 26.434,183.933 26.434,164.925 32.915,162.237 			"/>
			<polygon fill="#FFFFFF" points="40.432,197.946 37.746,191.462 62.125,191.462 59.439,197.946 			"/>
			<polygon fill="#FFFFFF" points="66.971,162.237 73.454,164.925 73.454,183.933 66.971,186.616 			"/>
			<polygon fill="#FFFFFF" points="73.454,164.353 79.936,161.669 62.695,144.429 60.012,150.911 			"/>
		</g>
		<path fill="#FFFFFF" d="M58.475,173.886l-2.457,2.457l-2.967-7.723l-14.011-5.428c0,0,8.784,8.824,8.847,8.809
			c0.188-0.049,0.391,0,0.537,0.146c0.223,0.217,0.221,0.576,0.002,0.797c-0.221,0.215-0.578,0.219-0.797-0.002
			c-0.145-0.146-0.195-0.354-0.145-0.539c0.016-0.061-8.755-8.813-8.755-8.813l5.372,13.979l7.723,2.967l-2.457,2.457l2.664,2.666
			l9.109-9.107L58.475,173.886z"/>
	</g>
</g>
<g>
	<path fill="#00B3B9" d="M99.941,323.892c0,13.809-11.193,25-25,25H24.94c-13.808,0-25-11.191-25-25v-50c0-13.808,11.192-25,25-25
		h50.001c13.807,0,25,11.191,25,25V323.892z"/>
	<path opacity="0.1" enable-background="new    " d="M100.018,323.969v-13.205l-20.929-26.508l-19.414-6.984l-19.414-6.988V308.5
		l-16.088,2.764l23.896,37.707h26.947C88.826,348.969,100.018,337.774,100.018,323.969z"/>
	<g>
		<polygon fill="#FFFFFF" points="40.261,308.499 24.173,311.261 24.173,267.521 40.261,270.282 		"/>
		<polygon fill="#FFFFFF" points="59.675,315.487 43.587,318.249 43.587,274.509 59.675,277.271 		"/>
		<polygon fill="#FFFFFF" points="79.089,322.476 63.001,325.235 63.001,281.495 79.089,284.257 		"/>
	</g>
</g>
<g>
	<path fill="#D53300" d="M99.982,75c0,13.809-11.192,25-25,25h-50c-13.807,0-25-11.191-25-25V25c0-13.806,11.193-25,25-25h50
		c13.808,0,25,11.193,25,25V75z"/>
	<path opacity="0.1" enable-background="new    " d="M99.982,75V55.193l-37.726-34.83L78.286,50l-15.75,25l-42.19,4.639L44.145,100
		h30.837C88.79,100,99.982,88.806,99.982,75z"/>
	<g>
		<path fill="#FFFFFF" d="M62.258,20.363H37.707L20.346,37.724v24.551v17.361h17.361h24.551L79.62,62.275V37.724L62.258,20.363z
			 M49.982,72.335c-12.336,0-22.336-10-22.336-22.336s10-22.336,22.336-22.336c12.336,0,22.336,10,22.336,22.336
			S62.318,72.335,49.982,72.335z"/>
		<path fill="#FFFFFF" d="M60.42,49.337l-3.002,3.002l-3.625-9.436l-17.129-6.635c0,0,9.249,9.289,10.631,10.6
			c0.104-0.041,0.215-0.064,0.334-0.064c0.496,0,0.898,0.4,0.898,0.896s-0.402,0.898-0.898,0.898s-0.898-0.402-0.898-0.898
			c0-0.131,0.031-0.254,0.081-0.365c-1.33-1.402-10.526-10.58-10.526-10.58l6.567,17.086l9.439,3.629L49.29,60.47l3.256,3.26
			L63.68,52.595L60.42,49.337z"/>
	</g>
</g>
<g>
	<g>
		<path fill="#00B36E" d="M99.986,572.859c0,13.811-11.192,25-25,25h-50c-13.808,0-25-11.189-25-25v-50
			c0-13.805,11.192-24.998,25-24.998h50c13.808,0,25,11.193,25,24.998V572.859z"/>
		<path opacity="0.1" enable-background="new    " d="M99.986,572.859v-18.203l-23.932-33.4L42.71,574.371l15.89,23.488h16.387
			C88.795,597.859,99.986,586.666,99.986,572.859z"/>
	</g>
	<polygon fill="#FFFFFF" points="59.021,521.298 49.939,550.695 40.739,521.298 23.879,521.291 42.75,574.408 57.168,574.427 
		76.094,521.291 	"/>
</g>
<g>
	<path fill="#B4EC00" d="M99.932,448.357c0,13.809-11.193,25-25,25h-50c-13.808,0-25-11.191-25-25v-50c0-13.806,11.192-25,25-25h50
		c13.807,0,25,11.194,25,25V448.357z"/>
	<path opacity="0.1" enable-background="new    " d="M100.008,448.433v-21.205l-22.156-30.391l-55.764,53.113l15.974,23.48h36.947
		C88.816,473.433,100.008,462.24,100.008,448.433z"/>
	<polygon fill="#FFFFFF" points="59.668,396.839 49.814,411.498 39.96,396.839 22.088,396.839 40.864,423.395 22.088,449.953 
		40.016,449.953 49.814,434.578 59.613,449.953 77.852,449.953 58.928,423.395 77.852,396.839 	"/>
</g>
<g>
	<g>
		<path fill="#004F7D" d="M99.992,697.326c0,13.809-11.193,25-25,25H24.991c-13.808,0-25-11.191-25-25v-50c0-13.807,11.192-25,25-25
			h50.001c13.807,0,25,11.193,25,25V697.326z"/>
		<path opacity="0.1" enable-background="new    " d="M99.992,697.326v-18.205l-24.039-29.713l-13.156,8.889l-12.883,34
			l-12.804,5.99l21.496,24.039h16.388C88.8,722.326,99.992,711.134,99.992,697.326z"/>
	</g>
	<g>
		<path fill="#FFFFFF" d="M46.679,672.287c0-11.35,6.566-21.195,16.117-25.998H44.854v4.234h-4.703l4.551,10.229l-8.235,18.516
			c0,0-0.019-16.766,0.056-16.81c0.227-0.132,0.377-0.38,0.377-0.655c0.001-0.418-0.345-0.758-0.762-0.764
			c-0.419,0-0.766,0.344-0.761,0.766c0,0.28,0.147,0.521,0.374,0.653c0.077,0.043,0.038,16.896,0.038,16.896l-8.216-18.604
			l4.551-10.225H27.42l-0.001-4.236h-3.466v48.88C36.485,695.169,46.679,684.902,46.679,672.287z"/>
		<path fill="#FFFFFF" d="M75.953,649.408c-12.531,0-22.727,10.266-22.727,22.879c0,11.354-6.566,21.199-16.118,26h17.944v-4.232
			h4.701l-4.551-10.23l8.232-18.516c0,0,0.021,16.766-0.055,16.811c-0.227,0.133-0.377,0.377-0.377,0.654
			c-0.002,0.42,0.344,0.76,0.762,0.764c0.418,0,0.768-0.342,0.76-0.766c0-0.279-0.146-0.521-0.373-0.652
			c-0.076-0.045-0.037-16.895-0.037-16.895l8.217,18.604l-4.551,10.227h4.701v4.234h3.469L75.953,649.408L75.953,649.408z"/>
	</g>
</g>
<g>
	<path fill="#E3007D" d="M99.996,946.257c0,13.809-11.193,25-25,25h-50c-13.808,0-25-11.191-25-25v-50c0-13.809,11.192-25,25-25h50
		c13.807,0,25,11.191,25,25V946.257z"/>
	<path opacity="0.1" enable-background="new    " d="M99.996,946.257v-5.203l-35.238-41.834H46.026l-11.25,14.811l1.734,33.256
		l22.098,23.973h16.389C88.805,971.257,99.996,960.062,99.996,946.257z"/>
	<path fill="#FFFFFF" d="M63.99,898.226c-8.582-10.344-19.942-10.248-28.237,0.301c-3.343,4.25-5.608,9.092-7.181,14.244
		c-3.068,10.063-2.921,19.816,2.945,28.98c7.534,11.768,23.76,13.846,33.644,4.166c5.965-5.842,8.211-13.262,8.313-21.438
		C73.449,915.515,69.701,905.109,63.99,898.226z M50.666,913.617c0.15-0.688,0.432-1.35,0.775-1.967
		c0.578-1.039,1.289-1.955,2.455-2.396c0.059-0.023,0.105-0.072,0.195-0.137c0.438,0.02,0.924-0.068,1.379,0.141
		c0.188,0.088,0.387,0.186,0.535,0.325c0.396,0.362,0.729,0.774,0.842,1.336c0.031,0.177,0.219,0.321,0.248,0.498
		c0.029,0.19,0.102,0.368,0.133,0.552c0.053,0.307,0.016,0.627,0.016,0.939c0,0.338-0.016,0.677,0.002,1.014
		c0.029,0.549-0.111,1.057-0.262,1.577c-0.188,0.644-0.389,1.274-0.689,1.872c-0.484,0.962-1.148,1.766-2.041,2.389
		c-0.27,0.188-0.625,0.155-0.887,0.473c-0.301-0.041-0.588-0.047-0.859-0.121c-1.039-0.275-1.535-1.076-1.883-2.012
		c-0.204-0.551-0.311-1.117-0.271-1.707c0.016-0.246,0.028-0.498-0.003-0.742C50.258,914.939,50.521,914.285,50.666,913.617z
		 M41.99,913.084c0.067-0.821,0.204-1.64,0.67-2.349c0.47-0.719,1.149-1.156,2.009-1.07c0.243,0.025,0.488,0.121,0.712,0.229
		c0.32,0.152,0.672,0.291,0.922,0.529c0.525,0.502,1.065,1.016,1.467,1.613c0.485,0.723,0.854,1.529,1.095,2.373
		c0.299,1.043,0.541,2.109,0.398,3.201c-0.105,0.811-0.337,1.601-0.833,2.279c-0.381,0.52-0.974,0.643-1.534,0.828
		c-0.221-0.244-0.509-0.061-0.687-0.113c-0.708-0.307-1.26-0.633-1.715-1.082c-0.937-0.926-1.551-2.057-1.97-3.295
		c-0.212-0.623-0.375-1.248-0.438-1.918C42.049,913.904,41.957,913.492,41.99,913.084z M41.257,925.326
		c-0.526,0.041-1.027-0.025-1.511-0.268c-0.434-0.215-0.857-0.426-1.265-0.703c-0.579-0.393-1.032-0.896-1.39-1.455
		c-0.342-0.533-0.707-1.088-0.792-1.762c-0.035-0.283-0.233-0.553-0.249-0.834c-0.044-0.834,0.162-1.609,0.721-2.26
		c0.161-0.188,0.332-0.373,0.528-0.521c0.163-0.121,0.372-0.182,0.642-0.309c0.203-0.035,0.527,0.096,0.826-0.158
		c0.057,0.051,0.123,0.16,0.18,0.152c0.773-0.063,1.383,0.328,2.02,0.676c0.583,0.313,1.04,0.73,1.437,1.27
		c0.317,0.43,0.644,0.852,0.879,1.328c0.389,0.791,0.549,1.639,0.444,2.508c-0.073,0.611-0.324,1.199-0.743,1.641
		c-0.374,0.391-0.887,0.641-1.458,0.691C41.438,925.332,41.346,925.318,41.257,925.326z M58.177,931.113
		c-0.036,0.219-0.217,0.414-0.25,0.633c-0.127,0.791-0.735,1.127-1.354,1.398c-0.684,0.303-1.543,0.414-2.236,0.266
		c-0.584-0.123-1.154-0.338-1.705-0.598c-0.408-0.195-0.783-0.512-1.281-0.484c-0.129-0.189-0.324-0.105-0.492-0.109
		c-0.404-0.014-0.812,0.006-1.213-0.008c-0.634-0.021-1.229,0.17-1.781,0.426c-0.694,0.318-1.403,0.537-2.153,0.67
		c-0.273,0.049-0.54,0.168-0.822,0.119c-0.437-0.074-0.895-0.117-1.297-0.285c-0.326-0.135-0.612-0.408-0.864-0.67
		c-0.325-0.338-0.551-0.744-0.61-1.229c-0.029-0.229-0.106-0.455-0.129-0.686c-0.092-0.931,0.28-1.74,0.632-2.568
		c0.413-0.971,0.924-1.877,1.52-2.744c0.352-0.514,0.722-1.01,1.109-1.496c0.134-0.166,0.24-0.355,0.385-0.512
		c0.591-0.641,1.301-1.137,2.058-1.547c0.633-0.342,1.313-0.6,2.063-0.551c0.5,0.03,0.996-0.031,1.5,0.119
		c0.423,0.127,0.83,0.295,1.222,0.473c0.438,0.197,0.854,0.482,1.215,0.803c0.57,0.506,1.137,1.033,1.617,1.621
		c0.551,0.672,1.058,1.387,1.488,2.146c0.34,0.6,0.676,1.199,0.98,1.818c0.137,0.277,0.164,0.605,0.283,0.895
		c0.174,0.424,0.115,0.859,0.131,1.241C58.189,930.574,58.223,930.851,58.177,931.113z M63.984,919.094
		c-0.125,0.547-0.246,1.102-0.449,1.631c-0.285,0.738-0.703,1.381-1.174,2.02c-0.479,0.652-1.078,1.135-1.734,1.529
		c-0.705,0.428-1.496,0.805-2.355,0.629c-0.609-0.123-1.201-0.336-1.584-0.947c-0.295-0.467-0.484-0.918-0.539-1.471
		c-0.064-0.715-0.104-0.709,0.127-1.529c0.08-0.283,0.092-0.594,0.199-0.859c0.477-1.166,1.129-2.225,2.102-3.039
		c0.363-0.311,0.801-0.545,1.229-0.771c0.329-0.174,0.688-0.301,1.047-0.4c0.187-0.057,0.399-0.011,0.604-0.011
		c0.896-0.104,1.896,0.571,2.258,1.589C63.893,917.974,64.113,918.529,63.984,919.094z"/>
</g>
<g>
	<path fill="#BCC910" d="M100,821.791c0,13.811-11.193,25-25,25H25c-13.808,0-25-11.189-25-25v-50c0-13.807,11.192-25,25-25h50
		c13.807,0,25,11.193,25,25V821.791z"/>
	<path opacity="0.1" enable-background="new    " d="M100,821.791V805.59l-21.176-19.063l-5.961,1.32l-15.5-8l-15.417,2.25
		l-21.588,24.041l40.253,40.653H75C88.809,846.791,100,835.597,100,821.791z"/>
	<path fill="#FFFFFF" d="M77.248,786.025h-6.285c-1.516,0-3.631-0.873-4.705-1.938c0,0-8.508-8.449-16.259-8.449
		s-16.258,8.449-16.258,8.449c-1.073,1.064-3.19,1.938-4.705,1.938H22.75c-1.513,0-2.752,1.24-2.752,2.752v16.029
		c0,1.512,1.239,2.752,2.752,2.752h6.286c1.515,0,3.631,0.873,4.705,1.939c0,0,8.506,8.447,16.257,8.447s16.257-8.447,16.257-8.447
		c1.074-1.066,3.19-1.939,4.705-1.939h6.287c1.515,0,2.752-1.24,2.752-2.752v-16.029C80,787.265,78.762,786.025,77.248,786.025z
		 M62.361,807.212c0,0.219-0.072,0.398-0.219,0.51v0.035c-0.51,0.51-1.055,0.979-1.637,1.452c-1.197,0.907-2.469,1.599-3.813,2.146
		c-6.319,2.434-13.77,0.545-18.054-5.086c-5.231-6.83-3.923-16.639,2.942-21.869c5.776-4.432,13.694-4.178,19.146,0.18l0.106,0.074
		c0.037,0.037,0.074,0.072,0.074,0.109c0.254,0.326,0.217,0.762-0.109,1.016l-3.522,2.689c-0.219,0.182-0.545,0.182-0.799,0.034
		c-3.416-2.253-8.03-2.216-11.479,0.399c-4.359,3.308-5.195,9.555-1.853,13.914c3.232,4.25,9.227,5.158,13.548,2.144v-5.341h-4.978
		c-0.397,0-0.69-0.291-0.69-0.688v-4.252c0-0.398,0.293-0.729,0.69-0.729h9.772h0.183c0.181,0,0.326,0.074,0.437,0.22
		c0.183,0.146,0.254,0.291,0.254,0.509V807.212L62.361,807.212z"/>
</g>
<g>
	<g>
		<path fill="#8BCAFF" d="M100.004,1070.72c0,13.807-11.193,25-25,25H25.003c-13.808,0-25-11.193-25-25v-50
			c0-13.809,11.192-25,25-25h50.001c13.807,0,25,11.191,25,25V1070.72z"/>
		<path opacity="0.1" enable-background="new    " d="M100.004,1070.72v-5.205l-30.08-31.719l-9.17-3.127l-32.251,23.648
			l37.114,41.4h9.387C88.813,1095.72,100.004,1084.527,100.004,1070.72z"/>
	</g>
	<path fill="#FFFFFF" d="M60.754,1058.621h6.449c2.363,0,4.301-1.936,4.301-4.301v-17.199c0-2.363-1.938-4.301-4.301-4.301h-6.449
		v-2.15H47.853l-12.899,6.451h-6.45v17.199h6.45l12.899,6.451h12.901V1058.621z M67.206,1037.121v4.299h-4.302v2.15h4.302v4.301
		h-4.302v2.15h4.302v4.299h-6.451v-17.199H67.206z"/>
</g>
<g>
	<path fill="#2E87FF" d="M100.008,1195.185c0,13.809-11.191,25-25,25h-50c-13.807,0-25-11.191-25-25v-50c0-13.807,11.193-25,25-25
		h50c13.809,0,25,11.193,25,25V1195.185z"/>
	<path opacity="0.1" enable-background="new    " d="M100.008,1195.185v-18.203l-26.639-24.68l-10.557,3.854l-30.327-0.734
		l-6.801,31.615l32.936,33.148h16.385C88.816,1220.185,100.008,1208.992,100.008,1195.185z"/>
	<path fill="#FFFFFF" d="M70.842,1151.435H29.176c-2.291,0-4.168,1.877-4.168,4.168v29.166c0,2.291,1.877,4.166,4.168,4.166h41.667
		c2.291,0,4.146-1.875,4.146-4.166l0.021-29.166C75.008,1153.312,73.133,1151.435,70.842,1151.435z M49.676,1157.685
		c3.459,0,6.25,2.791,6.25,6.25s-2.791,6.25-6.25,6.25s-6.25-2.791-6.25-6.25S46.217,1157.685,49.676,1157.685z M62.176,1182.685
		h-25v-2.082c0-4.168,8.332-6.459,12.5-6.459c4.167,0,12.5,2.291,12.5,6.459V1182.685z"/>
</g>
</svg>
