<?xml version="1.0" encoding="utf-8"?>
<!-- Generator: Adobe Illustrator 24.0.2, SVG Export Plug-In . SVG Version: 6.00 Build 0)  -->
<svg version="1.1" id="Capa_1" xmlns="http://www.w3.org/2000/svg" xmlns:xlink="http://www.w3.org/1999/xlink" x="0px" y="0px"
	 viewBox="0 0 288 48" style="enable-background:new 0 0 288 48;" xml:space="preserve">
<style type="text/css">
	.st0{clip-path:url(#SVGID_2_);}
	.st1{fill:#FFFFFF;}
	.st2{clip-path:url(#SVGID_4_);fill:#FFFFFF;}
	.st3{clip-path:url(#SVGID_6_);fill:#FFFFFF;}
	.st4{clip-path:url(#SVGID_8_);}
	.st5{fill:none;}
</style>
<g>
	<g>
		<g>
			<g>
				<g>
					<g>
						<defs>
							<rect id="SVGID_1_" x="144" width="48" height="48"/>
						</defs>
						<clipPath id="SVGID_2_">
							<use xlink:href="#SVGID_1_"  style="overflow:visible;"/>
						</clipPath>
						<g class="st0">
							<g>
								<polygon class="st1" points="160.1,11.5 161.7,11.5 162.8,15.2 162.8,15.2 163.8,11.5 165.4,11.5 163.6,16.9 163.6,20.8 
									162,20.8 162,17.1 								"/>
								<path class="st1" d="M165.5,15.5c0-0.5,0.2-1,0.6-1.3s0.9-0.5,1.5-0.5s1.1,0.2,1.4,0.5c0.4,0.3,0.6,0.8,0.6,1.3v3.6
									c0,0.6-0.2,1-0.5,1.4c-0.4,0.3-0.9,0.5-1.5,0.5s-1.1-0.2-1.5-0.5s-0.6-0.8-0.6-1.4V15.5L165.5,15.5z M166.8,19.3
									c0,0.2,0.1,0.4,0.2,0.5s0.3,0.2,0.5,0.2s0.4-0.1,0.5-0.2s0.2-0.3,0.2-0.5V15c0-0.2-0.1-0.3-0.2-0.4
									c-0.1-0.1-0.3-0.2-0.5-0.2s-0.4,0.1-0.5,0.2c-0.1,0.1-0.2,0.2-0.2,0.4V19.3L166.8,19.3z"/>
								<path class="st1" d="M174.8,13.9v6.9h-1.4V20c-0.3,0.3-0.5,0.5-0.8,0.6s-0.6,0.2-0.8,0.2c-0.3,0-0.6-0.1-0.7-0.3
									c-0.2-0.2-0.3-0.5-0.3-0.9v-5.7h1.4v5.3c0,0.2,0,0.3,0.1,0.3c0.1,0.1,0.2,0.1,0.3,0.1s0.2,0,0.4-0.1s0.3-0.2,0.4-0.4v-5.2
									L174.8,13.9L174.8,13.9z"/>
							</g>
							<g>
								<path class="st1" d="M170.7,28.1c0-0.2,0-0.4-0.2-0.6c-0.1-0.1-0.3-0.2-0.5-0.2c-0.1,0-0.2,0-0.3,0.1
									c-0.1,0-0.2,0.1-0.3,0.2v4.5c0.1,0.1,0.2,0.2,0.3,0.3s0.2,0.1,0.3,0.1c0.2,0,0.3-0.1,0.4-0.2c0.1-0.1,0.1-0.3,0.1-0.5l0,0
									L170.7,28.1L170.7,28.1L170.7,28.1z"/>
								<path class="st1" d="M174.5,27.4c-0.2,0-0.4,0.1-0.5,0.2s-0.1,0.4-0.1,0.6V29h1.3v-0.7c0-0.3-0.1-0.5-0.2-0.6
									C174.9,27.5,174.7,27.4,174.5,27.4z"/>
								<path class="st1" d="M177.5,22.7h-19c-2.4,0-4.3,1.9-4.3,4.3v4.9c0,2.5,2.1,4.6,4.6,4.6h18.4c2.5,0,4.6-2.1,4.6-4.6V27
									C181.8,24.6,179.8,22.7,177.5,22.7z M163.3,25.8h-1.5V33h-1.4v-7.2h-1.5v-1.2h4.3l0,0L163.3,25.8L163.3,25.8z M167.4,33
									h-1.2v-0.7c-0.2,0.3-0.5,0.4-0.7,0.6c-0.2,0.1-0.5,0.2-0.7,0.2c-0.3,0-0.5-0.1-0.7-0.3c-0.1-0.2-0.2-0.5-0.2-0.8v-5.2h1.2
									v4.8c0,0.1,0,0.3,0.1,0.3c0.1,0.1,0.1,0.1,0.3,0.1c0.1,0,0.2,0,0.3-0.1s0.3-0.2,0.4-0.3l0,0v-4.7h1.2L167.4,33L167.4,33z
									 M171.9,31.7c0,0.4-0.1,0.8-0.3,1s-0.5,0.4-0.8,0.4c-0.2,0-0.5,0-0.7-0.1s-0.4-0.2-0.5-0.4V33h-1.3v-8.5h1.3v2.7
									c0.2-0.2,0.3-0.3,0.5-0.4s0.4-0.1,0.6-0.1c0.4,0,0.7,0.1,0.9,0.4s0.3,0.7,0.3,1.2V31.7L171.9,31.7z M176.2,30h-2.4v1.2
									c0,0.3,0,0.6,0.1,0.7c0.1,0.1,0.2,0.2,0.4,0.2s0.4-0.1,0.4-0.2c0.1-0.1,0.1-0.3,0.1-0.7v-0.3h1.3v0.3c0,0.6-0.2,1.1-0.5,1.4
									c-0.3,0.3-0.8,0.5-1.4,0.5s-1-0.2-1.3-0.5s-0.5-0.8-0.5-1.4v-2.8c0-0.5,0.2-1,0.5-1.3c0.4-0.3,0.8-0.5,1.4-0.5
									s1,0.2,1.3,0.5s0.5,0.8,0.5,1.4L176.2,30L176.2,30z"/>
							</g>
						</g>
					</g>
				</g>
			</g>
		</g>
	</g>
</g>
<g>
	<g>
		<g>
			<g>
				<g>
					<g>
						<defs>
							<rect id="SVGID_3_" x="192" width="48" height="48"/>
						</defs>
						<clipPath id="SVGID_4_">
							<use xlink:href="#SVGID_3_"  style="overflow:visible;"/>
						</clipPath>
						<path class="st2" d="M221.9,16.3h3.8v-4.8h-3.8c-3.2,0-5.8,2.8-5.8,6.3v2.4h-3.8V25h3.8v11.6h4.8V24.9h4.8v-4.8h-4.8v-2.4
							C221,16.9,221.5,16.3,221.9,16.3z"/>
					</g>
				</g>
			</g>
		</g>
	</g>
</g>
<g>
	<g>
		<g>
			<g>
				<g>
					<g>
						<defs>
							<rect id="SVGID_5_" x="240" width="48" height="48"/>
						</defs>
						<clipPath id="SVGID_6_">
							<use xlink:href="#SVGID_5_"  style="overflow:visible;"/>
						</clipPath>
						<path class="st3" d="M275.8,15.4c0.5-0.1,2.4-1.8,2.8-3.5c-1.4,0.7-2.6,1.3-4,1.5c-1.2-1.2-2.8-2-4.6-2
							c-3.7,0-6.4,2.9-6.4,6.5c0,0.4,0.1,0.8,0.2,1.2c-2.9-0.1-8.3-1.1-13-6.6c0,0-2.8,5,1.9,8.4c-0.9,0.3-2.9-0.8-2.9-0.8
							s-0.1,5,5.1,6.3c-0.8,0.4-2.9,0.2-2.9,0.2s1.7,4.4,5.9,4.4c-4.5,3.5-9.3,2.6-9.3,2.6s8,5.7,18.1,0.9c2.7-1.1,6.7-5.2,8-8.6
							c0.8-1.9,1.8-4.7,1.6-8.2c1.1-0.8,2.7-2.4,3.2-3.3C277.8,15.3,275.8,15.4,275.8,15.4z"/>
					</g>
				</g>
			</g>
		</g>
	</g>
</g>
<g>
	<g>
		<g>
			<g>
				<g>
					<g>
						<defs>
							<rect id="SVGID_7_" x="48" width="48" height="48"/>
						</defs>
						<clipPath id="SVGID_8_">
							<use xlink:href="#SVGID_7_"  style="overflow:visible;"/>
						</clipPath>
						<g class="st4">
							<rect x="59.9" y="19.8" class="st1" width="5.2" height="16.7"/>
							<path class="st1" d="M62.5,17.5c-1.9,0-3.2-1.6-3-3.4c0.1-0.7,0.3-1.1,0.4-1.3c0.4-0.6,1.2-1.2,2.2-1.3
								c1.9-0.2,3.4,1.1,3.4,3S64,17.5,62.5,17.5z"/>
							<path class="st1" d="M84.5,36.5c-1.7,0-3.5,0-5.2,0c0-1.9,0-3.9,0-5.9c0-1.9,0.2-4.1-0.5-5.4c-0.9-1.8-3.9-1.5-4.8,0.1
								c-0.7,1.2-0.6,3.4-0.6,5.4s0,4,0,5.9c-1.7,0-5.2,0-5.2,0V19.8h5v2.3c0.2-0.1,0.3-0.4,0.4-0.6c0.9-1.2,2.5-2.1,4.5-2.2
								c3.9,0,5.7,2,6.2,5.6C84.8,28.4,84.6,32.6,84.5,36.5z"/>
						</g>
					</g>
				</g>
			</g>
		</g>
	</g>
</g>
<g>
	<rect class="st5" width="48" height="48"/>
	<g>
		<path class="st1" d="M17.3,34.9c-3.6,0-7.1,0-10.7,0v-0.1c0-7.2,0-14.5,0-21.7V13c3.5,0,6.9,0,10.4,0h0.1c0.2,0,0.4,0,0.6,0
			c0.3,0,0.5,0,0.8,0.1c0.4,0,0.7,0.1,1.1,0.2c0.7,0.1,1.4,0.3,2,0.7c0.9,0.5,1.6,1.2,1.9,2.2c0.2,0.6,0.3,1.2,0.4,1.9
			c0,0.5,0,1-0.1,1.5c-0.2,1.1-0.7,2-1.6,2.7c-0.4,0.3-0.8,0.5-1.2,0.8h-0.1l0,0H21c0.4,0.1,0.8,0.3,1.2,0.5
			c1.1,0.6,1.8,1.4,2.2,2.5c0.3,0.7,0.4,1.4,0.5,2.2c0,0.4,0,0.9,0,1.3c-0.1,0.5-0.2,1-0.4,1.5c-0.4,0.9-1,1.7-1.8,2.3
			c-0.9,0.7-1.9,1.1-3,1.3c-0.4,0.1-0.7,0.1-1.1,0.2c-0.2,0-0.4,0-0.6,0.1C17.8,34.9,17.6,34.9,17.3,34.9
			C17.4,34.9,17.4,34.9,17.3,34.9z M11.4,28.2c0,1,0,2,0,2.9c0,0.1,0,0.1,0.1,0.1l0,0c1.6,0,3.2,0,4.8,0c0.4,0,0.7,0,1.1-0.1
			s0.8-0.1,1.1-0.3c0.5-0.2,0.9-0.5,1.2-1c0.2-0.4,0.3-0.8,0.3-1.3c0-0.4,0-0.9-0.1-1.3s-0.3-0.8-0.6-1.1c-0.3-0.3-0.7-0.5-1.1-0.7
			c-0.5-0.2-1.1-0.3-1.7-0.3c-1.7,0-3.4,0-5.1,0c-0.1,0-0.1,0-0.1,0.1C11.4,26.3,11.4,27.2,11.4,28.2z M14,21.9c0.8,0,1.5,0,2.3,0
			c0.2,0,0.4,0,0.5,0c0.4,0,0.8-0.1,1.1-0.3c0.3-0.2,0.6-0.4,0.9-0.7c0.3-0.4,0.4-0.9,0.4-1.4c0-0.2,0-0.5,0-0.7
			c0-0.3-0.1-0.5-0.2-0.7c-0.3-0.6-0.8-0.9-1.4-1.1c-0.5-0.2-1.1-0.2-1.6-0.2c-1.5,0-3,0-4.4,0c-0.1,0-0.1,0-0.1,0.1
			c0,1.7,0,3.3,0,5c0,0.1,0,0.1,0.1,0.1C12.4,21.9,13.2,21.9,14,21.9z"/>
		<path class="st1" d="M33.6,34.9C33.5,34.9,33.5,34.9,33.6,34.9c-0.4,0-0.8,0-1.1-0.1c-0.8-0.1-1.7-0.3-2.4-0.6
			c-0.9-0.4-1.7-0.9-2.3-1.7c-0.5-0.6-1-1.3-1.3-2c-0.3-0.6-0.5-1.3-0.6-2c-0.1-0.3-0.1-0.6-0.1-0.9c-0.1-0.5-0.1-1,0-1.5
			c0-0.3,0.1-0.6,0.1-1c0.1-0.6,0.2-1.1,0.4-1.7c0.3-0.9,0.8-1.8,1.5-2.6c0.6-0.7,1.3-1.3,2.1-1.7c0.6-0.3,1.2-0.6,1.9-0.7
			c0.4-0.1,0.7-0.2,1.1-0.2s0.9-0.1,1.3-0.1c0.9,0,1.8,0.2,2.7,0.5c1.1,0.4,2,1.1,2.8,2c0.6,0.7,1,1.5,1.4,2.4
			c0.2,0.6,0.4,1.2,0.5,1.9c0,0.3,0.1,0.6,0.1,0.9c0,0.4,0,0.8,0,1.2c0,0.1,0,0.2,0,0.3c0,0,0,0.1-0.1,0.1c0,0,0,0-0.1,0
			c-3.7,0-7.5,0-11.2,0h-0.1c0,0.1,0,0.2,0,0.4c0,0.3,0.1,0.6,0.1,0.8c0.1,0.5,0.3,1,0.6,1.5c0.4,0.5,0.8,0.9,1.4,1.1
			c0.4,0.1,0.8,0.2,1.2,0.3c0.2,0,0.4,0,0.7,0c1,0,1.8-0.3,2.5-0.9c0.3-0.2,0.5-0.5,0.7-0.8c0-0.1,0.1-0.2,0.1-0.2
			c0-0.1,0.1-0.1,0.1-0.1c0.1,0,0.3,0,0.4,0c1.1,0,2.1,0,3.2,0h0.1c0,0,0,0,0,0.1c-0.3,0.8-0.6,1.6-1.1,2.4
			c-0.6,0.9-1.5,1.6-2.5,2.1c-0.6,0.3-1.2,0.5-1.8,0.6c-0.3,0.1-0.7,0.1-1,0.1c-0.2,0-0.5,0-0.7,0c0,0,0,0-0.1,0
			C33.7,34.9,33.6,34.9,33.6,34.9z M33.5,24.9c0.7,0,1.3,0,2,0c0.5,0,1,0,1.5,0c0.1,0,0.1,0,0.1-0.1S37,24.5,37,24.4
			c-0.1-0.5-0.3-1.1-0.6-1.5c-0.2-0.3-0.4-0.6-0.7-0.8c-0.5-0.3-1-0.5-1.6-0.5c-0.2,0-0.5,0-0.7,0c-0.3,0-0.5,0-0.8,0.1
			c-0.6,0.2-1.2,0.5-1.6,1c-0.6,0.6-0.8,1.4-0.9,2.2c0,0.1,0,0.1,0.1,0.1C31.2,24.9,32.3,24.9,33.5,24.9z"/>
		<path class="st1" d="M33.6,16.6c-1.4,0-2.9,0-4.3,0c-0.1,0-0.1,0-0.1-0.1c0-0.7,0-1.5,0-2.2c0-0.1,0-0.1,0.1-0.1
			c2.9,0,5.8,0,8.6,0c0.1,0,0.1,0,0.1,0.1c0,0.8,0,1.5,0,2.3c0,0.1,0,0.1-0.1,0.1C36.5,16.6,35,16.6,33.6,16.6z"/>
	</g>
</g>
<g>
	<rect x="96" class="st5" width="48" height="48"/>
	<g>
		<path class="st1" d="M138.1,24c0,3,0,6.1,0,9.1s-1.2,5.4-3.6,7.2c-1.6,1.2-3.4,1.8-5.3,1.8c-6.1,0-12.3,0-18.4,0
			c-3.1,0-5.5-1.3-7.4-3.8c-1.1-1.5-1.7-3.3-1.7-5.1c0-6.1,0-12.3,0-18.4c0-3.7,2.3-7,5.7-8.3c1.1-0.4,2.2-0.6,3.3-0.6
			c6.1,0,12.2,0,18.3,0c2.7,0,5,1,6.7,3c1.5,1.7,2.3,3.7,2.3,5.9C138.2,17.8,138.1,20.9,138.1,24z M119.9,39.6c3,0,6.1,0,9.1,0
			c3.7,0,6.5-2.9,6.5-6.5c0-6.1,0-12.1,0-18.2c0-3.7-2.9-6.5-6.6-6.5c-6.1,0-12.1,0-18.2,0c-0.4,0-0.8,0-1.1,0.1
			c-3.2,0.6-5.4,3.2-5.4,6.5c0,2.6,0,5.1,0,7.7c0,3.5,0,7,0,10.5c0,1.1,0.2,2.1,0.8,3.1c1.3,2.3,3.3,3.4,5.9,3.4
			C114,39.6,117,39.6,119.9,39.6z"/>
		<path class="st1" d="M120,33.6c-5.3,0-9.6-4.3-9.6-9.7c0-5.3,4.3-9.6,9.6-9.6c5.4,0,9.6,4.3,9.6,9.7
			C129.6,29.3,125.3,33.6,120,33.6z M127,24c0-3.9-3.2-7.1-7.1-7.1s-7.1,3.2-7.1,7.1s3.2,7.1,7.1,7.1C123.9,31.1,127.1,27.9,127,24z
			"/>
		<path class="st1" d="M132.5,13.7c0,1.2-1,2.2-2.2,2.2s-2.2-1-2.3-2.2c0-1.2,1-2.2,2.2-2.2C131.5,11.5,132.5,12.5,132.5,13.7z"/>
	</g>
</g>
</svg>
