<?xml version="1.0" encoding="UTF-8" standalone="no"?>
<!-- Generator: Adobe Illustrator 22.1.0, SVG Export Plug-In . SVG Version: 6.00 Build 0)  -->

<svg
   version="1.1"
   id="Layer_1"
   x="0px"
   y="0px"
   viewBox="0 0 132 132"
   xml:space="preserve"
   sodipodi:docname="brave-logotype-dark.svg"
   width="132"
   height="132"
   inkscape:version="1.3 (0e150ed6c4, 2023-07-21)"
   xmlns:inkscape="http://www.inkscape.org/namespaces/inkscape"
   xmlns:sodipodi="http://sodipodi.sourceforge.net/DTD/sodipodi-0.dtd"
   xmlns="http://www.w3.org/2000/svg"
   xmlns:svg="http://www.w3.org/2000/svg"
   xmlns:rdf="http://www.w3.org/1999/02/22-rdf-syntax-ns#"
   xmlns:cc="http://creativecommons.org/ns#"
   xmlns:dc="http://purl.org/dc/elements/1.1/"><defs
   id="defs6">&#10;	&#10;	&#10;</defs><sodipodi:namedview
   id="namedview6"
   pagecolor="#ffffff"
   bordercolor="#000000"
   borderopacity="0.25"
   inkscape:showpageshadow="2"
   inkscape:pageopacity="0.0"
   inkscape:pagecheckerboard="0"
   inkscape:deskcolor="#d1d1d1"
   inkscape:zoom="1.1675484"
   inkscape:cx="221.83235"
   inkscape:cy="43.253025"
   inkscape:window-width="1366"
   inkscape:window-height="715"
   inkscape:window-x="-8"
   inkscape:window-y="-8"
   inkscape:window-maximized="1"
   inkscape:current-layer="build-icons_x2F_Stable" />&#10;<style
   type="text/css"
   id="style1">&#10;	.st0{fill:#131525;}&#10;	.st1{fill:url(#Head_1_);}&#10;	.st2{fill:#FFFFFF;}&#10;	.st3{fill:url(#path-3_2_);}&#10;</style>&#10;<title
   id="title1">logo</title>&#10;<desc
   id="desc1">Created with Sketch.</desc>&#10;<g
   id="build-icons_x2F_Stable"
   transform="translate(0.41819,0.05)">&#10;		<g
   id="Logo"
   transform="translate(19.38181)">&#10;			&#10;				<linearGradient
   id="Head_1_"
   gradientUnits="userSpaceOnUse"
   x1="95.665497"
   y1="174.1891"
   x2="96.665497"
   y2="174.1891"
   gradientTransform="matrix(112.3123,0,0,-131.86,-10754.413,23034.498)">&#10;				<stop
   offset="0"
   style="stop-color:#FF5500"
   id="stop1" />&#10;				<stop
   offset="0.4099"
   style="stop-color:#FF5500"
   id="stop2" />&#10;				<stop
   offset="0.582"
   style="stop-color:#FF2000"
   id="stop3" />&#10;				<stop
   offset="1"
   style="stop-color:#FF2000"
   id="stop4" />&#10;			</linearGradient>&#10;			<path
   id="Head"
   class="st1"
   d="m 98.4,31.6 3.1,-7.6 c 0,0 -3.9,-4.2 -8.7,-9 C 88,10.2 77.9,13 77.9,13 L 66.4,0 H 46.2 25.9 L 14.4,13.1 c 0,0 -10.1,-2.8 -14.9,2 -4.8,4.8 -8.7,9 -8.7,9 l 3.1,7.6 -3.9,11.2 c 0,0 11.6,43.8 12.9,49.2 2.7,10.5 4.5,14.6 12.1,20 7.6,5.4 21.3,14.6 23.6,16 2.2,1.4 5.1,3.8 7.6,3.8 2.5,0 5.3,-2.4 7.6,-3.8 2.2,-1.4 16,-10.7 23.6,-16 7.6,-5.3 9.4,-9.4 12.1,-20 1.4,-5.4 12.9,-49.2 12.9,-49.2 z"
   style="fill:url(#Head_1_)" />&#10;			<path
   id="Face"
   class="st2"
   d="m 74.7,21.4 c 0,0 14.8,17.9 14.8,21.8 0,3.9 -1.9,4.8 -3.8,6.8 -1.9,2 -10.1,10.7 -11.1,11.8 -1.1,1.1 -3.2,2.8 -2,5.9 1.3,3 3.2,6.9 1.1,10.9 -2.1,3.9 -5.7,6.6 -8,6.1 -2.3,-0.4 -7.8,-3.3 -9.8,-4.6 -2,-1.3 -8.3,-6.5 -8.3,-8.5 0,-2 6.6,-5.6 7.8,-6.4 1.2,-0.8 6.7,-4 6.8,-5.2 0.1,-1.2 0.1,-1.6 -1.6,-4.7 C 59,52.2 56,48.1 56.5,45.4 57,42.7 61.7,41.3 65.1,40 c 3.4,-1.3 9.9,-3.7 10.7,-4.1 0.8,-0.4 0.6,-0.7 -1.9,-1 -2.5,-0.2 -9.4,-1.2 -12.6,-0.3 -3.2,0.9 -8.5,2.2 -9,2.9 -0.4,0.7 -0.8,0.7 -0.4,3.2 0.4,2.4 2.8,14.2 3,16.3 0.2,2.1 0.7,3.5 -1.6,4 -2.2,0.5 -6,1.4 -7.3,1.4 -1.3,0 -5.1,-0.9 -7.3,-1.4 -2.2,-0.5 -1.8,-1.9 -1.6,-4 0.2,-2.1 2.5,-13.8 3,-16.3 0.4,-2.4 0.1,-2.5 -0.4,-3.2 -0.4,-0.7 -5.8,-2 -9,-2.9 -3.2,-0.9 -10.1,0 -12.6,0.3 -2.5,0.2 -2.7,0.6 -1.9,1 0.8,0.4 7.3,2.8 10.7,4.1 3.4,1.3 8.1,2.7 8.6,5.4 0.5,2.7 -2.4,6.8 -4.1,9.9 -1.6,3.1 -1.7,3.4 -1.6,4.7 0.1,1.2 5.6,4.4 6.8,5.2 1.2,0.8 7.8,4.4 7.8,6.4 0,2 -6.3,7.2 -8.3,8.5 -2,1.3 -7.4,4.1 -9.8,4.6 -2.3,0.4 -5.9,-2.2 -8,-6.1 -2.1,-3.9 -0.2,-7.8 1.1,-10.9 1.3,-3 -0.9,-4.7 -2,-5.9 C 16.6,60.6 8.5,51.9 6.6,50 4.7,48 2.9,47 2.9,43.2 c 0,-3.8 14.8,-21.8 14.8,-21.8 0,0 12.5,2.4 14.2,2.4 1.7,0 5.3,-1.4 8.7,-2.5 3.4,-1.1 5.6,-1.1 5.6,-1.1 0,0 2.2,0 5.6,1.1 3.4,1.1 7,2.5 8.7,2.5 1.7,0 14.2,-2.4 14.2,-2.4 z M 63.6,89.9 c 0.9,0.6 0.4,1.7 -0.5,2.2 -0.8,0.6 -12.1,9.3 -13.1,10.3 -1.1,1 -2.7,2.5 -3.8,2.5 -1.1,0 -2.7,-1.6 -3.8,-2.5 -1.1,-1 -12.3,-9.7 -13.1,-10.3 -0.8,-0.6 -1.4,-1.7 -0.5,-2.2 0.9,-0.6 3.8,-2 7.7,-4.1 4,-2.1 8.9,-3.8 9.7,-3.8 0.8,0 5.7,1.7 9.7,3.8 3.9,2.1 6.7,3.6 7.7,4.1 z" />&#10;			<g
   id="Top-Head">&#10;				&#10;					<linearGradient
   id="path-3_2_"
   gradientUnits="userSpaceOnUse"
   x1="95.491798"
   y1="172.7744"
   x2="96.470398"
   y2="172.7744"
   gradientTransform="matrix(93.2192,0,0,-23.7599,-8900.126,4116.9805)">&#10;					<stop
   offset="0"
   style="stop-color:#FF452A"
   id="stop5" />&#10;					<stop
   offset="1"
   style="stop-color:#FF2000"
   id="stop6" />&#10;				</linearGradient>&#10;				<path
   id="path-3_1_"
   class="st3"
   d="M 77.9,13.1 66.4,0 H 46.2 25.9 L 14.4,13.1 c 0,0 -10.1,-2.8 -14.9,2 0,0 13.5,-1.2 18.1,6.3 0,0 12.5,2.4 14.2,2.4 1.7,0 5.3,-1.4 8.7,-2.5 3.4,-1.1 5.6,-1.1 5.6,-1.1 0,0 2.2,0 5.6,1.1 3.4,1.1 7,2.5 8.7,2.5 1.7,0 14.2,-2.4 14.2,-2.4 4.6,-7.5 18.1,-6.3 18.1,-6.3 -4.7,-4.8 -14.8,-2 -14.8,-2"
   style="fill:url(#path-3_2_)" />&#10;			</g>&#10;		</g>&#10;	</g>&#10;<metadata
   id="metadata6"><rdf:RDF><cc:Work
       rdf:about=""><dc:title>logo</dc:title></cc:Work></rdf:RDF></metadata></svg>
