<?xml version="1.0" encoding="utf-8"?>
<!-- Generator: Adobe Illustrator 25.4.1, SVG Export Plug-In . SVG Version: 6.00 Build 0)  -->
<svg version="1.1" id="Capa_1" xmlns="http://www.w3.org/2000/svg" xmlns:xlink="http://www.w3.org/1999/xlink" x="0px" y="0px"
	 viewBox="0 0 500 500" style="enable-background:new 0 0 500 500;" xml:space="preserve">
<style type="text/css">
	.st0{fill:#FFFFFF;}
</style>
<g>
	<rect x="166.7" y="222.3" class="st0" width="55.6" height="55.6"/>
	<rect x="277.7" y="222.3" class="st0" width="55.6" height="55.6"/>
	<path class="st0" d="M250,277.7c0,30.7-24.9,55.6-55.6,55.6h-27.7v55.6h55.6h55.6h55.6v-55.6h-27.7
		C274.9,333.3,250,308.5,250,277.7z"/>
	<path class="st0" d="M250,222.3c0-30.7,24.9-55.6,55.6-55.6h27.7v-55.6h-55.6h-55.6h-55.6v55.6h27.7
		C225.1,166.7,250,191.5,250,222.3z"/>
	<g>
		<path class="st0" d="M164.3,169v50.7h-53.1c-1.3,0-2.4,1.1-2.4,2.4v55.6c0,1.3,1.1,2.4,2.4,2.4h53v50.7h-25.3
			c-29.3,0-53.1-23.8-53.1-53.1c0-1.3-1.1-2.4-2.4-2.4s-2.4,1.1-2.4,2.4c0,29.3-23.8,53.1-53.1,53.1H2.4v-50.7h53.1
			c1.3,0,2.4-1.1,2.4-2.4v-55.6c0-1.3-1.1-2.4-2.4-2.4H2.4V169h25.4c29.3,0,53.1,23.8,53.1,53.1c0,1.3,1.1,2.4,2.4,2.4
			s2.4-1.1,2.4-2.4c0-29.3,23.8-53.1,53.1-53.1H164.3 M166.7,166.6H139c-30.7,0-55.6,24.9-55.6,55.6c0-30.7-24.9-55.6-55.6-55.6H0
			v55.6h55.6v55.6H0v55.6h27.7c30.7,0,55.6-24.9,55.6-55.6c0,30.7,24.9,55.6,55.6,55.6h27.7v-55.6h-55.5v-55.6h55.6V166.6
			L166.7,166.6z"/>
	</g>
	<g>
		<path class="st0" d="M497.6,169.1v50.7h-53.1c-1.3,0-2.4,1.1-2.4,2.4v55.6c0,1.3,1.1,2.4,2.4,2.4h53.1V331h-25.3
			c-29.3,0-53.1-23.8-53.1-53.1c0-1.3-1.1-2.4-2.4-2.4s-2.4,1.1-2.4,2.4c0,29.3-23.8,53.1-53.1,53.1h-25.3v-50.7H389
			c1.3,0,2.4-1.1,2.4-2.4v-55.6c0-1.3-1.1-2.4-2.4-2.4h-53.1v-50.7h25.3c29.3,0,53.1,23.8,53.1,53.1c0,1.3,1.1,2.4,2.4,2.4
			s2.4-1.1,2.4-2.4c0-29.3,23.8-53.1,53.1-53.1H497.6 M500,166.7h-27.7c-30.7,0-55.6,24.9-55.6,55.6c0-30.7-24.9-55.6-55.6-55.6
			h-27.7v55.6H389v55.6h-55.6v55.6h27.7c30.7,0,55.6-24.9,55.6-55.6c0,30.7,24.9,55.6,55.6,55.6H500v-55.6h-55.6v-55.6H500V166.7
			L500,166.7z"/>
	</g>
</g>
</svg>
