<?xml version="1.0" encoding="utf-8"?>
<!-- Generator: Adobe Illustrator 25.4.1, SVG Export Plug-In . SVG Version: 6.00 Build 0)  -->
<svg version="1.1" id="Capa_1" xmlns="http://www.w3.org/2000/svg" xmlns:xlink="http://www.w3.org/1999/xlink" x="0px" y="0px"
	 viewBox="0 0 500 500" style="enable-background:new 0 0 500 500;" xml:space="preserve">
<style type="text/css">
	.st0{fill:#054D56;}
</style>
<g>
	<g>
		<g>
			<path class="st0" d="M275.8,113.3v218.1h-109c-0.6,0-1.1,0.2-1.5,0.6L57.7,439.5V223.2l109.9-109.9L275.8,113.3 M277.9,111.2
				H166.7L55.6,222.3v222.3l111.2-111.2H278V111.2H277.9z"/>
		</g>
		<g>
			<path class="st0" d="M386.9,5.1v216.4L277,331.4H168.8V113.3h109c0.6,0,1.1-0.2,1.5-0.6L386.9,5.1 M389.1,0L277.9,111.2H166.7
				v222.3h111.2l111.2-111.2L389.1,0L389.1,0z"/>
		</g>
	</g>
	<g>
		<g>
			<path class="st0" d="M331.2,168.6v218.1h-109c-0.6,0-1.1,0.2-1.5,0.6L113.1,494.9V278.6l109.9-110H331.2 M333.3,166.5H222.1
				L110.9,277.7V500l111.2-111.2h111.2V166.5L333.3,166.5z"/>
		</g>
		<g>
			<path class="st0" d="M442.3,60.5v216.4L332.4,386.7H224.2V168.6h109c0.6,0,1.1-0.2,1.5-0.6L442.3,60.5 M444.4,55.4L333.3,166.5
				H222.1v222.3h111.2l111.2-111.2V55.4H444.4z"/>
		</g>
	</g>
</g>
</svg>
