<?xml version="1.0" encoding="utf-8"?>
<!-- Generator: Adobe Illustrator 28.3.0, SVG Export Plug-In . SVG Version: 6.00 Build 0)  -->
<svg version="1.1" id="Capa_1" xmlns="http://www.w3.org/2000/svg" xmlns:xlink="http://www.w3.org/1999/xlink" x="0px" y="0px"
	 viewBox="0 0 48 48" style="enable-background:new 0 0 48 48;" xml:space="preserve">
<style type="text/css">
	.st0{fill:#FFFFFF;}
</style>
<path class="st0" d="M24.1,26.6L13.7,37c-0.4,0.4-0.8,0.5-1.3,0.5s-0.9-0.2-1.3-0.6c-0.4-0.4-0.5-0.8-0.5-1.2s0.2-0.9,0.6-1.3
	l10.3-10.3L11.1,13.6c-0.4-0.4-0.6-0.8-0.6-1.2c0-0.5,0.2-0.9,0.6-1.3c0.4-0.4,0.8-0.6,1.3-0.6s0.9,0.2,1.3,0.6l10.4,10.4l10.3-10.4
	c0.4-0.4,0.8-0.6,1.3-0.6s0.9,0.2,1.3,0.6c0.4,0.4,0.5,0.8,0.5,1.3s-0.2,0.9-0.5,1.2L26.6,24.1L37,34.4c0.3,0.4,0.5,0.8,0.5,1.3
	S37.3,36.6,37,37c-0.4,0.4-0.8,0.6-1.3,0.6s-0.9-0.2-1.3-0.5L24.1,26.6z"/>
</svg>
