<?xml version="1.0" encoding="utf-8"?>
<!-- Generator: Adobe Illustrator 28.3.0, SVG Export Plug-In . SVG Version: 6.00 Build 0)  -->
<svg version="1.1" id="Capa_1" xmlns="http://www.w3.org/2000/svg" xmlns:xlink="http://www.w3.org/1999/xlink" x="0px" y="0px"
	 viewBox="0 0 100 50" style="enable-background:new 0 0 100 50;" xml:space="preserve">
<style type="text/css">
	.st0{fill:none;}
</style>
<rect class="st0" width="100" height="50"/>
<g>
	<polygon points="40.1,15.2 40.1,7.5 21.2,7.5 21.2,19.1 18.9,19.1 14.3,26.8 21.2,26.8 21.2,42.5 28.9,42.5 28.9,26.8 36,26.8 
		36,19.1 28.9,19.1 28.9,15.2 	"/>
	<path d="M57.8,23.9L53,31.3h12.5c-0.5,0.6-1.1,1.2-1.8,1.8c-1.8,1.3-3.7,2-6,2c-1.8,0-3.5-0.4-5-1.3c-1.6-0.9-2.8-2.1-3.7-3.7
		s-1.3-3.2-1.3-5.1c0-1.8,0.4-3.4,1.4-5c0.9-1.6,2.1-2.8,3.7-3.7c1.6-0.9,3.2-1.3,5-1.3c1.1,0,2.2,0.2,3.2,0.5s1.9,0.8,2.8,1.4
		c0.9,0.6,1.6,1.3,2.1,2.1l1.5,2.1l6-4.2l-1.5-2.1c-1.6-2.2-3.6-4-6.1-5.3s-5.2-1.9-8.1-1.9c-2.3,0-4.6,0.4-6.7,1.3
		c-2.1,0.9-4,2.1-5.7,3.8c-1.6,1.6-2.9,3.5-3.8,5.7c-0.9,2.1-1.3,4.4-1.3,6.7c0,3.2,0.8,6.1,2.4,8.8c1.6,2.7,3.7,4.8,6.3,6.3
		c2.7,1.6,5.6,2.4,8.8,2.4c3,0,5.9-0.7,8.4-2.1c2.5-1.4,4.6-3.3,6.2-5.7s2.5-5.1,2.8-8l0.3-2.8H57.8V23.9z"/>
	<g>
		<g>
			<path d="M77.8,31h7.8v7.7h-3.9v-3.9h-3.9V31z"/>
		</g>
		<g>
			<path d="M81.8,42.5H74v-7.7h3.9v3.9h3.9V42.5z"/>
		</g>
	</g>
</g>
</svg>
