<?xml version="1.0" encoding="UTF-8"?>
<svg id="uuid-0ffe70e7-eca1-4b19-9625-293bc84504b9" data-name="Capa 1" xmlns="http://www.w3.org/2000/svg" width="100" height="50" viewBox="0 0 100 50">
  <rect width="100" height="50.19" style="fill: none; stroke-width: 0px;"/>
  <g>
    <g>
      <path d="M52.58,12.72v.02c0,.21.12.3.4.3.17,0,.34-.04.5-.17v-.46c-.16-.03-.33-.05-.46-.05-.37,0-.45.17-.45.37Z" style="fill: #31287c; stroke-width: 0px;"/>
      <path d="M62.53,11.45c0-.26-.14-.36-.39-.36-.31,0-.48.16-.48.42v.28c.21.02.4.03.46.03.25,0,.4-.08.4-.36Z" style="fill: #31287c; stroke-width: 0px;"/>
      <path d="M68.36,6.3H31.64c-.34,0-.61.27-.61.61v9.26c0,.34.27.61.61.61h36.71c.34,0,.61-.27.61-.61V6.91c0-.34-.27-.61-.61-.61ZM38.58,13.36c0,.22-.21.41-.45.41s-.46-.19-.46-.41v-2.22l-.74,1.45c-.08.17-.25.25-.43.25s-.34-.08-.42-.25l-.74-1.45v2.22c0,.22-.21.41-.46.41s-.44-.19-.44-.41v-3.83c0-.25.2-.43.46-.43.21,0,.37.08.45.25l1.15,2.28,1.15-2.28c.09-.19.26-.25.45-.25.26,0,.46.19.46.43v3.83ZM40.34,13.35c0,.23-.19.4-.45.4s-.45-.17-.45-.4v-2.54c0-.21.19-.39.45-.39s.45.18.45.39v2.54ZM39.89,10c-.28,0-.5-.21-.5-.45s.22-.45.5-.45.5.21.5.45-.22.45-.5.45ZM43.93,13.35c0,.22-.16.39-.45.39s-.45-.17-.45-.39v-1.68c0-.32-.16-.52-.42-.52-.14,0-.3.05-.5.14,0,.05.01.08.01.12v1.95c0,.22-.15.39-.45.39s-.45-.17-.45-.39v-1.96c0-.21-.03-.23-.05-.27-.09-.12-.11-.17-.11-.25,0-.21.19-.37.43-.37.14,0,.25.07.34.19.29-.19.59-.28.85-.28.81,0,1.22.5,1.22,1.26v1.68ZM45.72,13.35c0,.23-.19.4-.45.4s-.45-.17-.45-.4v-2.54c0-.21.19-.39.45-.39s.45.18.45.39v2.54ZM45.27,10c-.28,0-.5-.21-.5-.45s.22-.45.5-.45.5.21.5.45-.22.45-.5.45ZM51.05,13.35c0,.22-.15.39-.45.39s-.45-.17-.45-.39v-1.79c0-.23-.14-.41-.37-.41-.17,0-.34.08-.52.23,0,.06.01.11.01.17v1.8c0,.22-.15.39-.45.39s-.45-.17-.45-.39v-1.67c0-.3-.05-.52-.34-.52-.16,0-.35.07-.55.17,0,.02,0,.05,0,.07v1.96c0,.22-.15.39-.45.39s-.45-.17-.45-.39v-1.96c0-.21-.03-.23-.05-.27-.09-.12-.11-.17-.11-.25,0-.23.2-.38.42-.38.15,0,.26.07.34.18.29-.18.59-.28.87-.28s.52.1.75.28c.35-.19.63-.28.97-.28.76,0,1.23.46,1.23,1.16v1.8ZM54.27,13.73c-.24,0-.4-.06-.55-.27-.24.19-.51.29-.87.29-.75,0-1.15-.41-1.15-1.02v-.02c0-.66.43-.99,1.28-.99.17,0,.34.01.51.06v-.21c0-.3-.16-.45-.49-.45-.18,0-.29.05-.42.1-.05.02-.12.06-.25.06-.27,0-.37-.21-.37-.37,0-.38.57-.54,1.1-.54.94,0,1.32.46,1.32,1.34v1.2c0,.19.1.17.21.22.1.04.15.11.15.25,0,.21-.12.34-.46.34ZM56.77,11.21c-.28-.01-.39-.03-.62.06,0,.05.01.08.01.12v1.95c0,.23-.19.4-.45.4s-.45-.17-.45-.4v-1.95c0-.15-.02-.23-.07-.3-.05-.06-.09-.12-.09-.21,0-.23.21-.39.44-.39.14,0,.25.08.34.2.3-.17.59-.28.8-.28.41,0,.53.17.53.39,0,.25-.21.42-.45.41ZM59.95,13.75c-.16,0-.28-.06-.37-.18l-.87-1.18-.07.06v.9c0,.23-.19.4-.45.4s-.45-.17-.45-.4v-3.9c0-.23.19-.4.45-.4s.45.17.45.4v2.05l.89-.96c.08-.08.2-.11.3-.11.25,0,.43.16.43.38,0,.1-.04.19-.12.27h0l-.79.83.95,1.25c.05.06.07.17.07.24-.01.22-.2.35-.43.35ZM62.18,13.01c.21,0,.37-.05.58-.14.03-.01.08-.04.19-.04.31,0,.4.21.4.35,0,.45-.83.57-1.24.57-.85,0-1.34-.49-1.34-1.13v-1.08c0-.65.48-1.15,1.37-1.15.85,0,1.26.45,1.26,1.1s-.38.98-1.25.98c-.17,0-.31-.01-.5-.04v.21c0,.22.17.36.52.36ZM65.27,13.73c-1,0-1.26-.49-1.26-1.37v-2.5c0-.22.16-.39.45-.39s.45.18.45.39v.72h.48c.24,0,.43.17.43.39s-.19.38-.43.38h-.48v.97c0,.48.04.65.35.65.06,0,.1,0,.11,0,.41,0,.53.11.53.35,0,.37-.3.43-.62.43Z" style="fill: #31287c; stroke-width: 0px;"/>
    </g>
    <path d="M28.86,11.55h-13.77v32.15h69.82V11.55h-13.77" style="fill: none; stroke: #31287c; stroke-miterlimit: 10; stroke-width: .2px;"/>
    <g>
      <polygon points="35.49 17.97 32.97 17.97 31.03 30.15 38.93 30.15 39.31 27.77 33.93 27.77 35.49 17.97" style="fill: #e20613; stroke-width: 0px;"/>
      <path d="M48.51,27.58l1.06-6.6h-2.43l-.96,5.92c-.45.45-.65.6-.96.79-.42.24-.79.35-1.18.35-.54,0-.75-.19-.8-.26-.05-.06-.11-.15-.11-.39,0-.11.01-.25.04-.4l.56-3.46c.02-.12.02-.22.02-.31,0-.85-.53-1.65-1.56-2.37l-.35-.24-1.58,1.84.61.49c.33.28.42.43.44.48l-.62,3.82c-.04.22-.04.42-.04.59,0,.29.04.56.13.81.37,1.06,1.42,1.64,2.94,1.64.98,0,1.78-.23,2.57-.75.13.17.28.32.47.44.33.24.72.36,1.17.36.77,0,1.5-.36,2.15-1.07l.36-.39-1.89-1.33-.05.06Z" style="fill: #e20613; stroke-width: 0px;"/>
      <path d="M55.58,20.8c-1.24,0-2.44.51-3.39,1.43-.89.87-1.46,2.05-1.66,3.4-.06.37-.09.7-.09.99,0,.92.24,1.7.7,2.31.67.87,1.7,1.32,3.07,1.32,1.26,0,2.63-.4,3.95-1.15l.39-.22-.97-1.89-.41.2c-.45.22-.9.41-1.31.55-.43.15-.86.22-1.29.22-.89,0-1.22-.3-1.38-.51-.2-.27-.29-.62-.29-1.04,0-.19.01-.38.04-.59.11-.73.38-1.35.81-1.91.19-.24.33-.41.72-.66.25-.15.57-.23.92-.23.45,0,.73.12.84.22h.01c.08.08.18.21.18.52,0,.07-.01.16-.02.26l-.07.57h2.43l.07-.38c.04-.22.04-.42.04-.59,0-.81-.28-1.5-.81-1.99-.59-.54-1.49-.84-2.47-.84Z" style="fill: #e20613; stroke-width: 0px;"/>
      <path d="M66.55,21l-.95,5.81c-.05.16-.1.27-.16.34v.02c-.06.06-.12.11-.18.16l-.06.05c-.09.07-.2.17-.35.28l-.03.03c-.13.12-.37.26-.58.34-.24.09-.59.15-.93.15-.53,0-.63-.13-.69-.21-.07-.09-.11-.24-.11-.44,0-.12.01-.26.04-.42l.56-3.52c.02-.11.02-.21.02-.3,0-.51-.19-1.04-.53-1.47-.23-.29-.57-.62-1-.95l-.36-.28-1.58,1.9.61.49c.35.29.42.45.43.48l-.62,3.91c-.04.22-.04.42-.04.59,0,.52.13.99.37,1.36.33.51.89.87,1.61,1.04.47.12.92.18,1.35.18.72,0,1.29-.16,1.72-.36l-.2,1.27c-.05.32-.17.6-.37.82-.21.18-.44.26-.73.26-.31,0-.4-.1-.45-.2-.07-.11-.1-.26-.1-.44,0-.11.01-.21.04-.32l.14-.57h-2.42l-.07.38c-.05.25-.07.5-.07.73,0,.64.18,1.24.54,1.73.51.67,1.25,1.01,2.2,1.01s1.81-.32,2.46-.91c.63-.56,1.07-1.41,1.24-2.42l.62-3.98,1.06-6.53h-2.43Z" style="fill: #e20613; stroke-width: 0px;"/>
    </g>
    <g>
      <path d="M31.52,37.96h-.39l.05-.23h1.04l-.05.23h-.37l-.21,1.01h-.27l.21-1.01Z" style="fill: #1d1d1b; stroke-width: 0px;"/>
      <path d="M33.06,38.97h-.24l.03-.13h0c-.08.1-.19.15-.31.15-.17,0-.26-.09-.26-.24,0-.04.02-.12.03-.15l.11-.53h.25l-.11.53s-.02.09-.02.11c0,.05.06.09.12.09.15,0,.23-.13.25-.25l.1-.48h.25l-.19.9Z" style="fill: #1d1d1b; stroke-width: 0px;"/>
      <path d="M34.17,38.34c0-.08-.05-.12-.14-.12-.09,0-.15.02-.15.09,0,.04.03.06.11.09l.12.04c.13.04.24.11.24.26,0,.22-.22.31-.43.31-.18,0-.38-.07-.38-.28v-.04h.23v.03c0,.08.09.12.18.12.07,0,.16-.03.16-.11,0-.06-.03-.08-.09-.1l-.19-.06c-.12-.04-.19-.09-.19-.23,0-.21.22-.29.4-.29.2,0,.37.06.37.29h-.23Z" style="fill: #1d1d1b; stroke-width: 0px;"/>
      <path d="M36.16,38.39c0-.11-.06-.15-.17-.15-.19,0-.25.23-.25.38,0,.11.05.19.17.19.11,0,.17-.08.2-.17h.25c-.07.22-.23.35-.46.35-.25,0-.4-.12-.4-.39,0-.31.18-.56.51-.56.22,0,.4.1.4.34h-.25Z" style="fill: #1d1d1b; stroke-width: 0px;"/>
      <path d="M37.25,38.05c.25,0,.42.12.42.38,0,.32-.2.57-.52.57-.25,0-.41-.13-.41-.39,0-.3.2-.56.52-.56ZM37.16,38.81c.18,0,.26-.23.26-.38,0-.12-.05-.2-.18-.2-.18,0-.26.22-.26.37,0,.11.06.2.18.2Z" style="fill: #1d1d1b; stroke-width: 0px;"/>
      <path d="M38.18,38.07h.24l-.03.13h0c.07-.1.19-.15.31-.15.11,0,.2.05.22.16.06-.09.19-.16.3-.16.14,0,.27.07.27.23,0,.06-.02.11-.03.17l-.11.53h-.25l.12-.57s0-.05,0-.06c0-.05-.05-.1-.11-.1-.13,0-.21.14-.23.25l-.1.48h-.25l.12-.57s0-.05,0-.06c0-.05-.05-.1-.11-.1-.13,0-.21.14-.23.25l-.1.48h-.25l.19-.9Z" style="fill: #1d1d1b; stroke-width: 0px;"/>
      <path d="M40.01,38.07h.24l-.02.11h0c.06-.09.16-.14.27-.14.22,0,.34.14.34.35,0,.3-.16.59-.49.59-.1,0-.21-.05-.25-.14h0l-.09.44h-.25l.26-1.21ZM40.15,38.62c0,.11.06.19.18.19.19,0,.27-.22.27-.38,0-.11-.06-.2-.18-.2-.18,0-.27.23-.27.38Z" style="fill: #1d1d1b; stroke-width: 0px;"/>
      <path d="M41.35,38.07h.23l-.04.16h0c.06-.12.18-.19.31-.19.03,0,.05,0,.08,0l-.05.24s-.07-.02-.1-.02c-.19,0-.26.14-.29.3l-.08.4h-.25l.19-.9Z" style="fill: #1d1d1b; stroke-width: 0px;"/>
      <path d="M42.23,38.35c.03-.23.22-.3.43-.3.16,0,.38.03.37.24,0,.04,0,.1-.02.15l-.08.36s-.01.09-.01.12c0,.02,0,.04,0,.05h-.25v-.09c-.07.08-.17.11-.27.11-.2,0-.29-.11-.29-.24,0-.17.13-.28.34-.31.23-.03.34-.02.34-.13,0-.09-.09-.11-.16-.11-.09,0-.17.04-.18.13h-.23ZM42.75,38.54c-.06.04-.14.04-.21.04-.09.01-.18.03-.18.15,0,.07.06.1.14.1.15,0,.2-.11.23-.2l.02-.09Z" style="fill: #1d1d1b; stroke-width: 0px;"/>
      <path d="M44.01,38.34c0-.08-.05-.12-.14-.12-.09,0-.15.02-.15.09,0,.04.03.06.11.09l.12.04c.13.04.24.11.24.26,0,.22-.22.31-.43.31-.18,0-.38-.07-.38-.28v-.04h.23v.03c0,.08.09.12.18.12.07,0,.16-.03.16-.11,0-.06-.03-.08-.09-.1l-.19-.06c-.12-.04-.19-.09-.19-.23,0-.21.22-.29.4-.29.2,0,.37.06.37.29h-.23Z" style="fill: #1d1d1b; stroke-width: 0px;"/>
      <path d="M45.95,38.86h0c-.06.09-.16.14-.27.14-.22,0-.34-.14-.34-.35,0-.3.16-.59.49-.59.1,0,.21.05.25.14h0l.1-.46h.25l-.26,1.24h-.24l.02-.11ZM45.58,38.61c0,.11.06.2.18.2.18,0,.27-.23.27-.38,0-.11-.06-.19-.18-.19-.19,0-.27.22-.27.38Z" style="fill: #1d1d1b; stroke-width: 0px;"/>
      <path d="M46.9,38.58s0,.04,0,.05c0,.1.06.18.2.18.1,0,.15-.07.18-.12h.25c-.08.2-.21.31-.47.31-.24,0-.4-.14-.4-.39,0-.29.19-.55.5-.55.25,0,.42.13.42.39,0,.05,0,.1-.01.14h-.66ZM47.34,38.43c0-.09-.02-.19-.17-.19s-.21.09-.25.19h.41Z" style="fill: #1d1d1b; stroke-width: 0px;"/>
      <path d="M49.27,38.34c0-.08-.05-.12-.14-.12-.09,0-.15.02-.15.09,0,.04.03.06.11.09l.12.04c.13.04.24.11.24.26,0,.22-.22.31-.43.31-.18,0-.38-.07-.38-.28v-.04h.23v.03c0,.08.09.12.18.12.07,0,.16-.03.16-.11,0-.06-.03-.08-.09-.1l-.19-.06c-.12-.04-.19-.09-.19-.23,0-.21.22-.29.4-.29.2,0,.37.06.37.29h-.23Z" style="fill: #1d1d1b; stroke-width: 0px;"/>
      <path d="M50,38.07h.25l-.19.9h-.25l.19-.9ZM50.27,37.94h-.25l.05-.2h.25l-.05.2Z" style="fill: #1d1d1b; stroke-width: 0px;"/>
      <path d="M50.8,38.58s0,.04,0,.05c0,.1.06.18.2.18.1,0,.15-.07.18-.12h.25c-.08.2-.21.31-.47.31-.24,0-.4-.14-.4-.39,0-.29.19-.55.5-.55.25,0,.42.13.42.39,0,.05,0,.1-.01.14h-.66ZM51.24,38.43c0-.09-.02-.19-.17-.19s-.21.09-.25.19h.41Z" style="fill: #1d1d1b; stroke-width: 0px;"/>
      <path d="M51.98,38.07h.24l-.03.13h0c.07-.1.19-.15.31-.15.11,0,.2.05.22.16.06-.09.19-.16.3-.16.14,0,.27.07.27.23,0,.06-.02.11-.03.17l-.11.53h-.25l.12-.57s0-.05,0-.06c0-.05-.05-.1-.11-.1-.13,0-.21.14-.23.25l-.1.48h-.25l.12-.57s0-.05,0-.06c0-.05-.05-.1-.11-.1-.13,0-.21.14-.23.25l-.1.48h-.25l.19-.9Z" style="fill: #1d1d1b; stroke-width: 0px;"/>
      <path d="M53.81,38.07h.24l-.02.11h0c.06-.09.16-.14.27-.14.22,0,.34.14.34.35,0,.3-.16.59-.49.59-.1,0-.21-.05-.25-.14h0l-.09.44h-.25l.26-1.21ZM53.94,38.62c0,.11.06.19.18.19.19,0,.27-.22.27-.38,0-.11-.06-.2-.18-.2-.18,0-.27.23-.27.38Z" style="fill: #1d1d1b; stroke-width: 0px;"/>
      <path d="M55.15,38.07h.23l-.04.16h0c.06-.12.18-.19.31-.19.03,0,.05,0,.08,0l-.05.24s-.07-.02-.1-.02c-.19,0-.26.14-.29.3l-.08.4h-.25l.19-.9Z" style="fill: #1d1d1b; stroke-width: 0px;"/>
      <path d="M56.18,38.58s0,.04,0,.05c0,.1.06.18.2.18.1,0,.15-.07.18-.12h.25c-.08.2-.21.31-.47.31-.24,0-.4-.14-.4-.39,0-.29.19-.55.5-.55.25,0,.42.13.42.39,0,.05,0,.1-.01.14h-.66ZM56.62,38.43c0-.09-.02-.19-.17-.19s-.21.09-.25.19h.41Z" style="fill: #1d1d1b; stroke-width: 0px;"/>
      <path d="M57.22,38.71h.27c-.06.25-.05.55-.39.56l.03-.12c.1-.02.14-.07.15-.17h-.12l.06-.27Z" style="fill: #1d1d1b; stroke-width: 0px;"/>
      <path d="M59.3,38.34c0-.08-.05-.12-.14-.12-.09,0-.15.02-.15.09,0,.04.03.06.11.09l.12.04c.13.04.24.11.24.26,0,.22-.22.31-.43.31-.18,0-.38-.07-.38-.28v-.04h.23v.03c0,.08.09.12.18.12.07,0,.16-.03.16-.11,0-.06-.03-.08-.09-.1l-.19-.06c-.12-.04-.19-.09-.19-.23,0-.21.22-.29.4-.29.2,0,.37.06.37.29h-.23Z" style="fill: #1d1d1b; stroke-width: 0px;"/>
      <path d="M60.39,38.05c.25,0,.42.12.42.38,0,.32-.2.57-.52.57-.25,0-.41-.13-.41-.39,0-.3.2-.56.52-.56ZM60.3,38.81c.18,0,.26-.23.26-.38,0-.12-.05-.2-.18-.2-.18,0-.26.22-.26.37,0,.11.06.2.18.2Z" style="fill: #1d1d1b; stroke-width: 0px;"/>
      <path d="M61.4,37.73h.25l-.26,1.24h-.25l.26-1.24Z" style="fill: #1d1d1b; stroke-width: 0px;"/>
      <path d="M62.41,38.05c.25,0,.42.12.42.38,0,.32-.2.57-.52.57-.25,0-.41-.13-.41-.39,0-.3.2-.56.52-.56ZM62.32,38.81c.18,0,.26-.23.26-.38,0-.12-.05-.2-.18-.2-.18,0-.26.22-.26.37,0,.11.06.2.18.2Z" style="fill: #1d1d1b; stroke-width: 0px;"/>
      <path d="M64.03,38.35c.03-.23.22-.3.43-.3.16,0,.38.03.37.24,0,.04,0,.1-.02.15l-.08.36s-.01.09-.01.12c0,.02,0,.04,0,.05h-.25v-.09c-.07.08-.17.11-.27.11-.2,0-.29-.11-.29-.24,0-.17.13-.28.34-.31.23-.03.34-.02.34-.13,0-.09-.09-.11-.16-.11-.09,0-.17.04-.18.13h-.23ZM64.55,38.54c-.06.04-.14.04-.21.04-.09.01-.18.03-.18.15,0,.07.06.1.14.1.15,0,.2-.11.23-.2l.02-.09Z" style="fill: #1d1d1b; stroke-width: 0px;"/>
      <path d="M65.96,39.29h-.25l.08-.39h0c-.05.06-.13.1-.25.1-.23,0-.33-.17-.33-.38,0-.28.16-.56.47-.56.12,0,.24.04.28.17h0l.03-.14h.23l-.26,1.21ZM65.45,38.61c0,.11.05.2.18.2.18,0,.27-.23.27-.39,0-.11-.07-.19-.18-.19-.19,0-.27.22-.27.38Z" style="fill: #1d1d1b; stroke-width: 0px;"/>
      <path d="M67.35,38.97h-.24l.03-.13h0c-.08.1-.19.15-.31.15-.17,0-.26-.09-.26-.24,0-.04.02-.12.03-.15l.11-.53h.25l-.11.53s-.02.09-.02.11c0,.05.06.09.12.09.15,0,.23-.13.25-.25l.1-.48h.25l-.19.9Z" style="fill: #1d1d1b; stroke-width: 0px;"/>
      <path d="M68.07,38.97h-.25l.19-.9h.25l-.19.9ZM68.25,37.96h-.17l.15-.25h.26l-.24.25Z" style="fill: #1d1d1b; stroke-width: 0px;"/>
      <path d="M68.6,38.71h.27l-.06.27h-.27l.06-.27Z" style="fill: #1d1d1b; stroke-width: 0px;"/>
    </g>
  </g>
</svg>