<?xml version="1.0" encoding="utf-8"?>
<!-- Generator: Adobe Illustrator 28.3.0, SVG Export Plug-In . SVG Version: 6.00 Build 0)  -->
<svg version="1.1" id="Capa_1" xmlns="http://www.w3.org/2000/svg" xmlns:xlink="http://www.w3.org/1999/xlink" x="0px" y="0px"
	 viewBox="0 0 100 50" style="enable-background:new 0 0 100 50;" xml:space="preserve">
<style type="text/css">
	.st0{fill:none;}
</style>
<rect class="st0" width="100" height="50"/>
<g>
	<polygon points="60.2,18.6 50,40.8 39.7,18.6 35.5,39.5 30.6,39.5 38.4,5 50,30.4 61.4,5 69.4,39.5 64.4,39.5 	"/>
	<path d="M50.6,41.8c-0.1-0.2-0.3-0.4-0.6-0.4s-0.5,0.2-0.6,0.4H30.6v0.4h18.9c0.1,0.2,0.3,0.4,0.6,0.4s0.5-0.2,0.6-0.4h18.9v-0.4
		H50.6z M50,42.5c-0.2,0-0.4-0.2-0.4-0.4s0.2-0.4,0.4-0.4s0.4,0.2,0.4,0.4S50.2,42.5,50,42.5z"/>
</g>
</svg>
