<?xml version="1.0" encoding="utf-8"?>
<!-- Generator: Adobe Illustrator 28.3.0, SVG Export Plug-In . SVG Version: 6.00 Build 0)  -->
<svg version="1.1" id="Capa_1" xmlns="http://www.w3.org/2000/svg" xmlns:xlink="http://www.w3.org/1999/xlink" x="0px" y="0px"
	 viewBox="0 0 100 50" style="enable-background:new 0 0 100 50;" xml:space="preserve">
<style type="text/css">
	.st0{fill:none;}
</style>
<rect class="st0" width="100" height="50"/>
<g>
	<g>
		<path d="M30.6,44.7l0.2-0.1c0,0.1,0.1,0.1,0.1,0.1c0,0,0.1,0.1,0.2,0.1c0.1,0,0.1,0,0.2-0.1c0,0,0.1-0.1,0.1-0.2
			c0-0.1-0.1-0.2-0.2-0.2c0,0,0,0,0,0c-0.2-0.1-0.3-0.1-0.3-0.2c-0.1-0.1-0.1-0.1-0.1-0.2c0-0.1,0-0.2,0.1-0.3
			c0.1-0.1,0.2-0.1,0.3-0.1c0.1,0,0.2,0,0.3,0.1c0.1,0,0.1,0.1,0.1,0.2l-0.2,0.1c0,0-0.1-0.1-0.1-0.1c0,0-0.1,0-0.1,0
			c-0.1,0-0.1,0-0.1,0c0,0-0.1,0.1-0.1,0.1c0,0.1,0.1,0.2,0.2,0.2c0,0,0,0,0,0c0.1,0.1,0.2,0.1,0.3,0.2c0.1,0.1,0.1,0.1,0.1,0.2
			c0,0.1,0,0.2-0.1,0.3C31.3,44.9,31.2,45,31,45c-0.1,0-0.2,0-0.3-0.1C30.7,44.8,30.6,44.8,30.6,44.7z"/>
		<path d="M36.2,44.2c0,0.1,0,0.2-0.1,0.3c0,0.1-0.1,0.2-0.2,0.2c-0.1,0.1-0.2,0.1-0.2,0.2c-0.1,0-0.2,0.1-0.3,0.1
			c-0.1,0-0.2,0-0.3-0.1c-0.1,0-0.2-0.1-0.2-0.2c-0.1-0.1-0.1-0.2-0.2-0.2c0-0.1-0.1-0.2-0.1-0.3c0-0.1,0-0.2,0.1-0.3
			c0-0.1,0.1-0.2,0.2-0.2c0.1-0.1,0.2-0.1,0.2-0.2c0.1,0,0.2-0.1,0.3-0.1c0.1,0,0.2,0,0.3,0.1c0.1,0,0.2,0.1,0.2,0.2
			c0.1,0.1,0.1,0.2,0.2,0.2C36.1,44,36.2,44.1,36.2,44.2z M35.9,44.2c0-0.1,0-0.1,0-0.2c0-0.1-0.1-0.1-0.1-0.2
			c0-0.1-0.1-0.1-0.2-0.1c-0.1,0-0.1,0-0.2,0c-0.1,0-0.1,0-0.2,0c-0.1,0-0.1,0.1-0.2,0.1c0,0-0.1,0.1-0.1,0.2c0,0.1,0,0.1,0,0.2
			c0,0.1,0,0.1,0,0.2c0,0.1,0.1,0.1,0.1,0.2c0,0.1,0.1,0.1,0.2,0.1c0.1,0,0.1,0,0.2,0c0.1,0,0.1,0,0.2,0c0.1,0,0.1-0.1,0.2-0.1
			c0-0.1,0.1-0.1,0.1-0.2C35.9,44.4,35.9,44.3,35.9,44.2z"/>
		<path d="M39.3,44.9v-1.4h0.2v1.2h0.5v0.2H39.3z"/>
		<path d="M43.2,43.5h0.2v0.9c0,0.1,0,0.2,0.1,0.3c0.1,0.1,0.1,0.1,0.3,0.1c0.1,0,0.2,0,0.3-0.1c0.1-0.1,0.1-0.2,0.1-0.3v-0.9h0.2
			v0.9c0,0.2,0,0.3-0.1,0.4c-0.1,0.1-0.2,0.1-0.4,0.1c-0.2,0-0.3,0-0.4-0.1c-0.1-0.1-0.1-0.2-0.1-0.4V43.5z"/>
		<path d="M48.7,43.9c-0.1-0.1-0.1-0.1-0.2-0.1c-0.1,0-0.2,0-0.2,0c-0.2,0-0.3,0.1-0.4,0.2c-0.1,0.1-0.1,0.2-0.1,0.4
			c0,0.2,0,0.3,0.1,0.4c0.1,0.1,0.2,0.2,0.4,0.2c0.1,0,0.2,0,0.2,0c0.1,0,0.2-0.1,0.2-0.1v0.3c-0.1,0-0.1,0.1-0.2,0.1
			c-0.1,0-0.2,0-0.2,0c-0.1,0-0.2,0-0.3-0.1c-0.1,0-0.2-0.1-0.2-0.2c-0.1-0.1-0.1-0.1-0.2-0.2c0-0.1-0.1-0.2-0.1-0.3
			c0-0.1,0-0.2,0.1-0.3c0-0.1,0.1-0.2,0.2-0.2c0.1-0.1,0.2-0.1,0.2-0.2c0.1,0,0.2-0.1,0.3-0.1c0.1,0,0.2,0,0.2,0
			c0.1,0,0.2,0.1,0.2,0.1L48.7,43.9z"/>
		<path d="M51.9,44.9v-1.4h0.2v1.4H51.9z"/>
		<path d="M56.9,44.2c0,0.1,0,0.2-0.1,0.3c0,0.1-0.1,0.2-0.2,0.2c-0.1,0.1-0.2,0.1-0.3,0.2c-0.1,0-0.2,0.1-0.3,0.1
			c-0.1,0-0.2,0-0.3-0.1c-0.1,0-0.2-0.1-0.2-0.2c-0.1-0.1-0.1-0.2-0.2-0.2c0-0.1-0.1-0.2-0.1-0.3c0-0.1,0-0.2,0.1-0.3
			c0-0.1,0.1-0.2,0.2-0.2c0.1-0.1,0.2-0.1,0.2-0.2c0.1,0,0.2-0.1,0.3-0.1c0.1,0,0.2,0,0.3,0.1c0.1,0,0.2,0.1,0.2,0.2
			c0.1,0.1,0.1,0.2,0.2,0.2C56.9,44,56.9,44.1,56.9,44.2z M56.6,44.2c0-0.1,0-0.1,0-0.2c0-0.1-0.1-0.1-0.1-0.2
			c0-0.1-0.1-0.1-0.2-0.1c-0.1,0-0.1,0-0.2,0c-0.1,0-0.1,0-0.2,0c-0.1,0-0.1,0.1-0.2,0.1c0,0-0.1,0.1-0.1,0.2c0,0.1,0,0.1,0,0.2
			c0,0.1,0,0.1,0,0.2c0,0.1,0.1,0.1,0.1,0.2c0.1,0.1,0.1,0.1,0.2,0.1c0.1,0,0.1,0,0.2,0c0.1,0,0.1,0,0.2,0c0.1,0,0.1-0.1,0.2-0.1
			c0-0.1,0.1-0.1,0.1-0.2C56.6,44.4,56.6,44.3,56.6,44.2z"/>
		<path d="M60.1,44.9v-1.5l0.9,0.9c0,0,0.1,0.1,0.1,0.1c0,0,0.1,0.1,0.1,0.1v-1h0.2V45l-0.9-0.9c0,0,0,0-0.1-0.1c0,0,0-0.1-0.1-0.1
			v1H60.1z"/>
		<path d="M64.6,44.9v-1.4h0.8v0.2h-0.6v0.4h0.6v0.2h-0.6v0.5h0.6v0.2H64.6z"/>
		<path d="M68.5,44.7l0.2-0.1c0,0.1,0,0.1,0.1,0.1c0,0,0.1,0.1,0.2,0.1c0.1,0,0.1,0,0.2-0.1c0,0,0.1-0.1,0.1-0.2
			c0-0.1-0.1-0.2-0.2-0.2c0,0,0,0,0,0c-0.2-0.1-0.3-0.1-0.3-0.2c-0.1-0.1-0.1-0.1-0.1-0.2c0-0.1,0-0.2,0.1-0.3
			c0.1-0.1,0.2-0.1,0.3-0.1c0.1,0,0.2,0,0.3,0.1c0.1,0,0.1,0.1,0.1,0.2l-0.2,0.1c0,0-0.1-0.1-0.1-0.1c0,0-0.1,0-0.1,0
			c-0.1,0-0.1,0-0.1,0c0,0-0.1,0.1-0.1,0.1c0,0.1,0.1,0.2,0.2,0.2c0,0,0,0,0,0c0.1,0.1,0.2,0.1,0.3,0.2c0.1,0.1,0.1,0.1,0.1,0.2
			c0,0.1,0,0.2-0.1,0.3c-0.1,0.1-0.2,0.1-0.3,0.1c-0.1,0-0.2,0-0.3-0.1C68.6,44.8,68.5,44.8,68.5,44.7z"/>
	</g>
	<polygon points="60.2,18.6 50,40.8 39.7,18.6 35.5,39.5 30.6,39.5 38.4,5 50,30.4 61.4,5 69.4,39.5 64.4,39.5 	"/>
	<path d="M50.6,41.8c-0.1-0.2-0.3-0.4-0.6-0.4c-0.3,0-0.5,0.2-0.6,0.4H30.6v0.4h18.9c0.1,0.2,0.3,0.4,0.6,0.4c0.3,0,0.5-0.2,0.6-0.4
		h18.9v-0.4H50.6z M50,42.5c-0.2,0-0.4-0.2-0.4-0.4c0-0.2,0.2-0.4,0.4-0.4c0.2,0,0.4,0.2,0.4,0.4C50.4,42.3,50.2,42.5,50,42.5z"/>
</g>
</svg>
