<?xml version="1.0" encoding="utf-8"?>
<!-- Generator: Adobe Illustrator 28.3.0, SVG Export Plug-In . SVG Version: 6.00 Build 0)  -->
<svg version="1.1" id="Capa_1" xmlns="http://www.w3.org/2000/svg" xmlns:xlink="http://www.w3.org/1999/xlink" x="0px" y="0px"
	 viewBox="0 0 100 50" style="enable-background:new 0 0 100 50;" xml:space="preserve">
<style type="text/css">
	.st0{fill:none;}
</style>
<rect class="st0" width="100" height="50"/>
<g>
	<g>
		<path d="M68.3,20.7v-4.9c0,0,0-0.1-0.1-0.1h-0.6c0,0-0.1,0-0.1,0.1v3.9l-1-3.9c0,0,0-0.1-0.1-0.1h-1c0,0-0.1,0-0.1,0.1v4.9
			c0,0,0,0.1,0.1,0.1H66c0,0,0.1,0,0.1-0.1v-3.9l0.9,3.9c0,0,0,0.1,0.1,0.1L68.3,20.7C68.2,20.8,68.3,20.7,68.3,20.7z"/>
		<path d="M72.2,20.7L71,15.8c0,0,0-0.1-0.1-0.1h-0.8c0,0-0.1,0-0.1,0.1l-1.2,4.9c0,0,0,0,0,0.1c0,0,0,0,0.1,0h0.6
			c0,0,0.1,0,0.1-0.1l0.3-1.2h1.3l0.3,1.2c0,0,0,0.1,0.1,0.1L72.2,20.7C72.2,20.8,72.2,20.8,72.2,20.7L72.2,20.7z M71,18.9h-1
			l0.5-2.3L71,18.9z"/>
		<path d="M75.1,15.7h-0.6c0,0-0.1,0-0.1,0.1l-0.8,4l-0.7-4c0,0,0-0.1-0.1-0.1h-0.6c0,0,0,0-0.1,0c0,0,0,0,0,0.1l1,4.9
			c0,0,0,0.1,0.1,0.1H74c0,0,0.1,0,0.1-0.1L75.1,15.7C75.2,15.8,75.2,15.7,75.1,15.7C75.2,15.7,75.1,15.7,75.1,15.7z"/>
		<path d="M78.3,15.7H76c0,0-0.1,0-0.1,0.1v4.9c0,0,0,0.1,0.1,0.1h2.3c0,0,0.1,0,0.1-0.1v-0.5c0,0,0-0.1-0.1-0.1h-1.6v-1.6h1.5
			c0,0,0.1,0,0.1-0.1v-0.5c0,0,0-0.1-0.1-0.1h-1.5v-1.5h1.6c0,0,0.1,0,0.1-0.1L78.3,15.7C78.4,15.7,78.3,15.7,78.3,15.7z"/>
		<path d="M66.8,22.5h-1.3c0,0-0.1,0-0.1,0.1v4.9c0,0,0,0.1,0.1,0.1h1.4c0.4,0,0.8-0.1,1-0.3c0.2-0.2,0.3-0.5,0.3-0.9v-2.7
			c0-0.4-0.1-0.7-0.4-0.9C67.6,22.6,67.3,22.5,66.8,22.5z M67,26.9h-0.8v-3.7H67c0.1,0,0.2,0,0.3,0.1c0.1,0.1,0.1,0.2,0.1,0.3v2.9
			c0,0.2,0,0.3-0.1,0.3C67.2,26.8,67.1,26.9,67,26.9z"/>
		<path d="M71.6,22.5h-2.3c0,0-0.1,0-0.1,0.1v4.9c0,0,0,0.1,0.1,0.1h2.3c0,0,0.1,0,0.1-0.1V27c0,0,0-0.1-0.1-0.1H70v-1.6h1.5
			c0,0,0.1,0,0.1-0.1v-0.5c0,0,0-0.1-0.1-0.1H70v-1.5h1.6c0,0,0.1,0,0.1-0.1L71.6,22.5L71.6,22.5z"/>
		<path d="M66.8,29.2h-1.3c0,0-0.1,0-0.1,0.1v4.9c0,0,0,0.1,0.1,0.1h0.6c0,0,0.1,0,0.1-0.1v-1.9h0.6c0.8,0,1.3-0.4,1.3-1.2v-0.8
			C68.1,29.6,67.6,29.2,66.8,29.2z M66.9,31.7h-0.7v-1.8h0.7c0.2,0,0.3,0,0.3,0.1c0.1,0.1,0.1,0.2,0.1,0.3v0.9c0,0.2,0,0.3-0.1,0.3
			C67.1,31.7,67,31.7,66.9,31.7z"/>
		<path d="M70.3,29.2h-0.8c0,0-0.1,0-0.1,0.1l-1.2,4.9c0,0,0,0,0,0.1c0,0,0,0,0.1,0h0.6c0,0,0.1,0,0.1-0.1l0.3-1.2h1.3l0.3,1.2
			c0,0,0,0.1,0.1,0.1h0.6c0,0,0,0,0.1,0c0,0,0,0,0-0.1L70.3,29.2L70.3,29.2z M70.4,32.4h-1l0.5-2.3L70.4,32.4z"/>
		<path d="M73.5,29.2h-1.3c0,0-0.1,0-0.1,0.1v4.9c0,0,0,0.1,0.1,0.1h0.6c0,0,0.1,0,0.1-0.1v-1.9h0.6c0.8,0,1.3-0.4,1.3-1.2v-0.8
			C74.8,29.6,74.4,29.2,73.5,29.2z M73.6,31.7h-0.7v-1.8h0.7c0.2,0,0.3,0,0.3,0.1c0.1,0.1,0.1,0.2,0.1,0.3v0.9c0,0.2,0,0.3-0.1,0.3
			C73.9,31.7,73.7,31.7,73.6,31.7z"/>
		<path d="M78,29.2h-2.3c0,0-0.1,0-0.1,0.1v4.9c0,0,0,0.1,0.1,0.1H78c0,0,0.1,0,0.1-0.1v-0.5c0,0,0-0.1-0.1-0.1h-1.6V32h1.5
			c0,0,0.1,0,0.1-0.1v-0.5c0,0,0-0.1-0.1-0.1h-1.5v-1.5H78c0,0,0.1,0,0.1-0.1L78,29.2C78.1,29.3,78.1,29.2,78,29.2z"/>
		<path d="M81.2,33.6h-1.5v-4.3c0,0,0-0.1-0.1-0.1H79c0,0-0.1,0-0.1,0.1v4.9c0,0,0,0.1,0.1,0.1h2.2c0,0,0.1,0,0.1-0.1L81.2,33.6
			C81.3,33.7,81.3,33.6,81.2,33.6z"/>
	</g>
</g>
<path d="M54.6,13.7L39.2,6.3l-15.4,7.4L20,30.4l10.7,13.4h17.1l10.7-13.4L54.6,13.7z M44,30.5v5.2h-9.7v-5.2h-6.6l7.7-8.2l3.7-7.9
	l3.7,7.9l7.7,8.2H44z"/>
</svg>
