<?xml version="1.0" encoding="utf-8"?>
<!-- Generator: Adobe Illustrator 28.3.0, SVG Export Plug-In . SVG Version: 6.00 Build 0)  -->
<svg version="1.1" id="Capa_1" xmlns="http://www.w3.org/2000/svg" xmlns:xlink="http://www.w3.org/1999/xlink" x="0px" y="0px"
	 viewBox="0 0 50 24.5" style="enable-background:new 0 0 50 24.5;" xml:space="preserve">
<style type="text/css">
	.st0{fill:url(#SVGID_1_);}
	.st1{fill:url(#SVGID_00000030480000927863841540000001196075704606682254_);}
	.st2{fill:url(#SVGID_00000069395784622579009860000013123200615049922707_);}
	.st3{fill:url(#SVGID_00000125582967848397421310000005045963577515265983_);}
</style>
<g>
	<linearGradient id="SVGID_1_" gradientUnits="userSpaceOnUse" x1="1.0198" y1="1.8575" x2="53.0884" y2="53.9261">
		<stop  offset="0" style="stop-color:#FFED00"/>
		<stop  offset="8.658005e-02" style="stop-color:#F7EB00"/>
		<stop  offset="0.2172" style="stop-color:#E3E600"/>
		<stop  offset="0.3756" style="stop-color:#C1DD00"/>
		<stop  offset="0.5559" style="stop-color:#92D000"/>
		<stop  offset="0.7546" style="stop-color:#55C000"/>
		<stop  offset="0.9656" style="stop-color:#0DAD00"/>
		<stop  offset="1" style="stop-color:#00AA00"/>
	</linearGradient>
	<polygon class="st0" points="18.1,5.4 18.1,0 4.8,0 4.8,8.1 3.2,8.1 0,13.5 4.8,13.5 4.8,24.5 10.2,24.5 10.2,13.5 15.2,13.5 
		15.2,8.1 10.2,8.1 10.2,5.4 	"/>
	
		<linearGradient id="SVGID_00000021077177555096857470000008194118594952110751_" gradientUnits="userSpaceOnUse" x1="9.195" y1="-8.8712" x2="47.7288" y2="29.6626">
		<stop  offset="0" style="stop-color:#FFED00"/>
		<stop  offset="8.658005e-02" style="stop-color:#F7EB00"/>
		<stop  offset="0.2172" style="stop-color:#E3E600"/>
		<stop  offset="0.3756" style="stop-color:#C1DD00"/>
		<stop  offset="0.5559" style="stop-color:#92D000"/>
		<stop  offset="0.7546" style="stop-color:#55C000"/>
		<stop  offset="0.9656" style="stop-color:#0DAD00"/>
		<stop  offset="1" style="stop-color:#00AA00"/>
	</linearGradient>
	<path style="fill:url(#SVGID_00000021077177555096857470000008194118594952110751_);" d="M30.5,11.5l-3.4,5.2h8.7
		c-0.4,0.5-0.8,0.9-1.3,1.2c-1.2,0.9-2.6,1.4-4.2,1.4c-1.3,0-2.4-0.3-3.5-0.9c-1.1-0.6-1.9-1.5-2.6-2.6c-0.6-1.1-0.9-2.3-0.9-3.5
		c0-1.3,0.3-2.4,0.9-3.5c0.6-1.1,1.5-2,2.6-2.6c1.1-0.6,2.2-0.9,3.5-0.9c0.8,0,1.5,0.1,2.2,0.3c0.7,0.2,1.4,0.6,2,1
		C35.1,7,35.6,7.5,36,8l1,1.4l4.2-3l-1-1.5c-1.1-1.6-2.6-2.8-4.3-3.7C34.2,0.5,32.3,0,30.3,0c-1.6,0-3.2,0.3-4.7,0.9
		c-1.5,0.6-2.8,1.5-4,2.6c-1.1,1.1-2,2.5-2.7,4c-0.6,1.5-0.9,3.1-0.9,4.7c0,2.2,0.6,4.3,1.7,6.2c1.1,1.9,2.6,3.4,4.4,4.4
		c1.9,1.1,3.9,1.7,6.2,1.7c2.1,0,4.1-0.5,5.9-1.5c1.8-1,3.2-2.3,4.3-4c1.1-1.7,1.8-3.6,2-5.6l0.2-2H30.5z"/>
	<g>
		<g>
			
				<linearGradient id="SVGID_00000041283908512141217000000013910777112825407418_" gradientUnits="userSpaceOnUse" x1="11.3209" y1="-18.1424" x2="51.8622" y2="22.3989">
				<stop  offset="0" style="stop-color:#FFED00"/>
				<stop  offset="8.658005e-02" style="stop-color:#F7EB00"/>
				<stop  offset="0.2172" style="stop-color:#E3E600"/>
				<stop  offset="0.3756" style="stop-color:#C1DD00"/>
				<stop  offset="0.5559" style="stop-color:#92D000"/>
				<stop  offset="0.7546" style="stop-color:#55C000"/>
				<stop  offset="0.9656" style="stop-color:#0DAD00"/>
				<stop  offset="1" style="stop-color:#00AA00"/>
			</linearGradient>
			<path style="fill:url(#SVGID_00000041283908512141217000000013910777112825407418_);" d="M44.5,16.5l5.5,0v5.4h-2.7v-2.7h-2.7
				L44.5,16.5z"/>
		</g>
		<g>
			
				<linearGradient id="SVGID_00000055695182011575529810000015287255856702935695_" gradientUnits="userSpaceOnUse" x1="8.1491" y1="-13.1794" x2="48.6922" y2="27.3637">
				<stop  offset="0" style="stop-color:#FFED00"/>
				<stop  offset="8.658005e-02" style="stop-color:#F7EB00"/>
				<stop  offset="0.2172" style="stop-color:#E3E600"/>
				<stop  offset="0.3756" style="stop-color:#C1DD00"/>
				<stop  offset="0.5559" style="stop-color:#92D000"/>
				<stop  offset="0.7546" style="stop-color:#55C000"/>
				<stop  offset="0.9656" style="stop-color:#0DAD00"/>
				<stop  offset="1" style="stop-color:#00AA00"/>
			</linearGradient>
			<path style="fill:url(#SVGID_00000055695182011575529810000015287255856702935695_);" d="M47.3,24.5l-5.5,0v-5.4l2.7,0v2.7l2.7,0
				V24.5z"/>
		</g>
	</g>
</g>
</svg>
