<?xml version="1.0" encoding="utf-8"?>
<!-- Generator: Adobe Illustrator 28.3.0, SVG Export Plug-In . SVG Version: 6.00 Build 0)  -->
<svg version="1.1" id="Capa_1" xmlns="http://www.w3.org/2000/svg" xmlns:xlink="http://www.w3.org/1999/xlink" x="0px" y="0px"
	 viewBox="0 0 48.6 50" style="enable-background:new 0 0 48.6 50;" xml:space="preserve">
<style type="text/css">
	.st0{fill:#FFFFFF;}
</style>
<g>
	<g>
		<path d="M0,49.6l0.2-0.1c0,0.1,0.1,0.1,0.1,0.2c0.1,0,0.1,0.1,0.2,0.1c0.1,0,0.2,0,0.2-0.1c0.1,0,0.1-0.1,0.1-0.2
			c0-0.1-0.1-0.2-0.3-0.3c0,0,0,0-0.1,0C0.4,49,0.3,49,0.2,48.9c-0.1-0.1-0.1-0.2-0.1-0.3c0-0.1,0-0.3,0.1-0.4
			c0.1-0.1,0.2-0.1,0.4-0.1c0.1,0,0.2,0,0.3,0.1c0.1,0.1,0.2,0.1,0.2,0.2l-0.2,0.1c0-0.1-0.1-0.1-0.1-0.1c0,0-0.1,0-0.1,0
			c-0.1,0-0.1,0-0.2,0.1c0,0-0.1,0.1-0.1,0.2c0,0.1,0.1,0.2,0.3,0.3c0,0,0,0,0,0C0.9,49,1,49.1,1.1,49.1c0.1,0.1,0.1,0.2,0.1,0.3
			c0,0.2-0.1,0.3-0.2,0.4C0.9,49.9,0.8,50,0.6,50c-0.2,0-0.3,0-0.4-0.1C0.1,49.8,0.1,49.7,0,49.6z"/>
		<path d="M7,49c0,0.1,0,0.2-0.1,0.4c0,0.1-0.1,0.2-0.2,0.3c-0.1,0.1-0.2,0.2-0.3,0.2C6.3,50,6.2,50,6,50c-0.1,0-0.3,0-0.4-0.1
			c-0.1,0-0.2-0.1-0.3-0.2c-0.1-0.1-0.2-0.2-0.2-0.3c0-0.1-0.1-0.2-0.1-0.4c0-0.1,0-0.2,0.1-0.4c0-0.1,0.1-0.2,0.2-0.3
			c0.1-0.1,0.2-0.2,0.3-0.2c0.1,0,0.2-0.1,0.4-0.1c0.1,0,0.3,0,0.4,0.1c0.1,0,0.2,0.1,0.3,0.2c0.1,0.1,0.2,0.2,0.2,0.3
			C7,48.8,7,48.9,7,49z M6.7,49c0-0.1,0-0.2,0-0.3c0-0.1-0.1-0.2-0.1-0.2c-0.1-0.1-0.1-0.1-0.2-0.1c-0.1,0-0.2-0.1-0.3-0.1
			s-0.2,0-0.3,0.1c-0.1,0-0.2,0.1-0.2,0.1c-0.1,0.1-0.1,0.1-0.1,0.2c0,0.1,0,0.2,0,0.3c0,0.1,0,0.2,0,0.3c0,0.1,0.1,0.2,0.1,0.2
			c0.1,0.1,0.1,0.1,0.2,0.1c0.1,0,0.2,0.1,0.3,0.1c0.1,0,0.2,0,0.2-0.1c0.1,0,0.1-0.1,0.2-0.1c0.1-0.1,0.1-0.1,0.1-0.2
			C6.7,49.2,6.7,49.1,6.7,49z"/>
		<path d="M11,49.9v-1.8h0.3v1.5h0.7v0.3H11z"/>
		<path d="M15.7,48.1H16v1.1c0,0.2,0,0.3,0.1,0.4c0.1,0.1,0.2,0.1,0.3,0.1c0.1,0,0.3,0,0.3-0.1c0.1-0.1,0.1-0.2,0.1-0.4v-1.1h0.3
			v1.1c0,0.2-0.1,0.4-0.2,0.5c-0.1,0.1-0.3,0.2-0.6,0.2c-0.2,0-0.4-0.1-0.6-0.2c-0.1-0.1-0.2-0.3-0.2-0.5V48.1z"/>
		<path d="M22.7,48.6c-0.1-0.1-0.2-0.1-0.3-0.2c-0.1,0-0.2-0.1-0.3-0.1c-0.2,0-0.4,0.1-0.5,0.2c-0.1,0.1-0.2,0.3-0.2,0.5
			c0,0.2,0.1,0.4,0.2,0.5c0.1,0.1,0.3,0.2,0.5,0.2c0.1,0,0.2,0,0.3-0.1c0.1,0,0.2-0.1,0.3-0.2v0.3c-0.1,0.1-0.2,0.1-0.3,0.1
			c-0.1,0-0.2,0-0.3,0c-0.1,0-0.3,0-0.4-0.1c-0.1,0-0.2-0.1-0.3-0.2c-0.1-0.1-0.2-0.2-0.2-0.3c0-0.1-0.1-0.2-0.1-0.4
			c0-0.1,0-0.3,0.1-0.4c0-0.1,0.1-0.2,0.2-0.3c0.1-0.1,0.2-0.2,0.3-0.2c0.1,0,0.2-0.1,0.4-0.1c0.1,0,0.2,0,0.3,0
			c0.1,0,0.2,0.1,0.3,0.1L22.7,48.6z"/>
		<path d="M26.7,49.9v-1.8H27v1.8H26.7z"/>
		<path d="M32.9,49c0,0.1,0,0.2-0.1,0.4c0,0.1-0.1,0.2-0.2,0.3c-0.1,0.1-0.2,0.2-0.3,0.2c-0.1,0-0.2,0.1-0.4,0.1
			c-0.1,0-0.3,0-0.4-0.1c-0.1,0-0.2-0.1-0.3-0.2c-0.1-0.1-0.2-0.2-0.2-0.3c0-0.1-0.1-0.2-0.1-0.4c0-0.1,0-0.2,0.1-0.4
			c0-0.1,0.1-0.2,0.2-0.3c0.1-0.1,0.2-0.2,0.3-0.2c0.1,0,0.2-0.1,0.4-0.1c0.1,0,0.3,0,0.4,0.1c0.1,0,0.2,0.1,0.3,0.2
			c0.1,0.1,0.2,0.2,0.2,0.3C32.9,48.8,32.9,48.9,32.9,49z M32.6,49c0-0.1,0-0.2,0-0.3c0-0.1-0.1-0.2-0.1-0.2
			c-0.1-0.1-0.1-0.1-0.2-0.1c-0.1,0-0.2-0.1-0.3-0.1c-0.1,0-0.2,0-0.3,0.1c-0.1,0-0.2,0.1-0.2,0.1c-0.1,0.1-0.1,0.1-0.1,0.2
			c0,0.1,0,0.2,0,0.3c0,0.1,0,0.2,0,0.3c0,0.1,0.1,0.2,0.1,0.2c0.1,0.1,0.1,0.1,0.2,0.1c0.1,0,0.2,0.1,0.3,0.1c0.1,0,0.2,0,0.2-0.1
			c0.1,0,0.2-0.1,0.2-0.1c0.1-0.1,0.1-0.1,0.1-0.2C32.6,49.2,32.6,49.1,32.6,49z"/>
		<path d="M36.9,49.9v-1.9l1.1,1.1c0,0,0.1,0.1,0.1,0.1c0,0,0.1,0.1,0.1,0.1v-1.2h0.3V50l-1.2-1.1c0,0-0.1-0.1-0.1-0.1
			c0,0-0.1-0.1-0.1-0.1v1.2H36.9z"/>
		<path d="M42.5,49.9v-1.8h1v0.2h-0.7v0.4h0.7v0.3h-0.7v0.6h0.7v0.3H42.5z"/>
		<path d="M47.4,49.6l0.2-0.1c0,0.1,0.1,0.1,0.1,0.2c0.1,0,0.1,0.1,0.2,0.1c0.1,0,0.2,0,0.2-0.1c0.1,0,0.1-0.1,0.1-0.2
			c0-0.1-0.1-0.2-0.3-0.3c0,0,0,0-0.1,0c-0.2-0.1-0.3-0.2-0.4-0.3c-0.1-0.1-0.1-0.2-0.1-0.3c0-0.1,0-0.3,0.1-0.4
			c0.1-0.1,0.2-0.1,0.4-0.1c0.1,0,0.2,0,0.3,0.1c0.1,0.1,0.2,0.1,0.2,0.2l-0.2,0.1c0-0.1-0.1-0.1-0.1-0.1c0,0-0.1,0-0.1,0
			c-0.1,0-0.1,0-0.2,0.1c0,0-0.1,0.1-0.1,0.2c0,0.1,0.1,0.2,0.3,0.3c0,0,0,0,0,0c0.2,0.1,0.3,0.2,0.4,0.2c0.1,0.1,0.1,0.2,0.1,0.3
			c0,0.2-0.1,0.3-0.2,0.4C48.3,49.9,48.2,50,48,50c-0.2,0-0.3,0-0.4-0.1C47.5,49.8,47.4,49.7,47.4,49.6z"/>
	</g>
	<polygon points="37,17 24.3,44.8 11.4,17 6.2,43.1 0,43.1 9.8,0 24.3,31.7 38.6,0 48.6,43.1 42.3,43.1 	"/>
	<path d="M48.6,46H25c-0.1-0.3-0.4-0.5-0.7-0.5c-0.3,0-0.6,0.2-0.7,0.5H0v0.5h23.6c0.1,0.3,0.4,0.5,0.7,0.5c0.3,0,0.6-0.2,0.7-0.5
		h23.6V46z"/>
	<path class="st0" d="M24.9,46.3c0,0.3-0.2,0.6-0.6,0.6c-0.3,0-0.6-0.2-0.6-0.6c0-0.3,0.2-0.6,0.6-0.6C24.6,45.7,24.9,46,24.9,46.3z
		"/>
</g>
</svg>
