<?xml version="1.0" encoding="utf-8"?>
<!-- Generator: Adobe Illustrator 28.3.0, SVG Export Plug-In . SVG Version: 6.00 Build 0)  -->
<svg version="1.1" id="Capa_1" xmlns="http://www.w3.org/2000/svg" xmlns:xlink="http://www.w3.org/1999/xlink" x="0px" y="0px"
	 viewBox="0 0 50 48.7" style="enable-background:new 0 0 50 48.7;" xml:space="preserve">
<style type="text/css">
	.st0{fill:#FFC800;}
	.st1{fill:#FFB500;}
	.st2{fill:#FFFFFF;}
	.st3{fill:url(#SVGID_1_);}
	.st4{fill:#FFFF00;}
	.st5{fill:#FFE600;}
</style>
<g>
	<g>
		<g>
			<polygon class="st0" points="14.6,47.2 1.6,30.9 6.2,10.6 25,1.6 43.8,10.6 48.4,30.9 35.4,47.2 			"/>
			<polygon class="st1" points="25,47.2 25,1.6 43.8,10.6 48.4,30.9 35.4,47.2 			"/>
			<path class="st2" d="M36.1,48.7H13.9L0,31.3L5,9.7L25,0l20,9.7l5,21.7L36.1,48.7z M14.6,47.2h20.8l13-16.3l-4.6-20.3L25,1.6
				l-18.8,9L1.6,31L14.6,47.2z"/>
		</g>
		<linearGradient id="SVGID_1_" gradientUnits="userSpaceOnUse" x1="21.4392" y1="25.4532" x2="38.8278" y2="27.9666">
			<stop  offset="0" style="stop-color:#000000;stop-opacity:0.2"/>
			<stop  offset="1" style="stop-color:#000000;stop-opacity:0"/>
		</linearGradient>
		<polygon class="st3" points="38.4,17.7 25,10.5 18.7,38.2 38.4,43.4 		"/>
		<g>
			<polygon class="st4" points="19.6,37.1 19.6,30.5 12.2,30.5 20.9,21.4 25,12.7 29.1,21.3 37.8,30.5 30.4,30.5 30.4,37.1 			"/>
			<polygon class="st5" points="25,37.1 25,12.7 29.1,21.3 37.8,30.5 30.4,30.5 30.4,37.1 			"/>
			<path class="st2" d="M31.3,38.2H18.7v-6.7h-8.6l10.1-10.6L25,10.5l4.9,10.3l10.1,10.6h-8.6V38.2z M19.6,37.1h10.8v-6.5h7.4
				l-8.7-9.2L25,12.7l-4.1,8.7l-8.6,9.1h7.4V37.1z"/>
		</g>
	</g>
</g>
</svg>
