<?xml version="1.0" encoding="utf-8"?>
<!-- Generator: Adobe Illustrator 28.3.0, SVG Export Plug-In . SVG Version: 6.00 Build 0)  -->
<svg version="1.1" id="Capa_1" xmlns="http://www.w3.org/2000/svg" xmlns:xlink="http://www.w3.org/1999/xlink" x="0px" y="0px"
	 viewBox="0 0 100 50" style="enable-background:new 0 0 100 50;" xml:space="preserve">
<style type="text/css">
	.st0{fill:none;}
	.st1{fill:url(#SVGID_1_);}
	.st2{fill:url(#SVGID_00000016066995743818246060000009035131182282536376_);}
	.st3{fill:url(#SVGID_00000109741563281172184510000012256292370876026792_);}
	.st4{fill:url(#SVGID_00000043423865695790960270000005920718316490796701_);}
</style>
<rect class="st0" width="100" height="50"/>
<g>
	
		<linearGradient id="SVGID_1_" gradientUnits="userSpaceOnUse" x1="15.7919" y1="39.8581" x2="90.0866" y2="-34.4366" gradientTransform="matrix(1 0 0 -1 0 50)">
		<stop  offset="0" style="stop-color:#FFED00"/>
		<stop  offset="8.658006e-02" style="stop-color:#F7EB00"/>
		<stop  offset="0.2172" style="stop-color:#E3E600"/>
		<stop  offset="0.3756" style="stop-color:#C1DD00"/>
		<stop  offset="0.5559" style="stop-color:#92D000"/>
		<stop  offset="0.7546" style="stop-color:#55C000"/>
		<stop  offset="0.9656" style="stop-color:#0DAD00"/>
		<stop  offset="1" style="stop-color:#00AA00"/>
	</linearGradient>
	<polygon class="st1" points="40.1,15.2 40.1,7.5 21.2,7.5 21.2,19.1 18.9,19.1 14.3,26.8 21.2,26.8 21.2,42.5 28.9,42.5 28.9,26.8 
		36,26.8 36,19.1 28.9,19.1 28.9,15.2 	"/>
	
		<linearGradient id="SVGID_00000022548980988220015950000013940026322451705230_" gradientUnits="userSpaceOnUse" x1="27.4709" y1="55.1804" x2="82.4532" y2="0.1981" gradientTransform="matrix(1 0 0 -1 0 50)">
		<stop  offset="0" style="stop-color:#FFED00"/>
		<stop  offset="8.658006e-02" style="stop-color:#F7EB00"/>
		<stop  offset="0.2172" style="stop-color:#E3E600"/>
		<stop  offset="0.3756" style="stop-color:#C1DD00"/>
		<stop  offset="0.5559" style="stop-color:#92D000"/>
		<stop  offset="0.7546" style="stop-color:#55C000"/>
		<stop  offset="0.9656" style="stop-color:#0DAD00"/>
		<stop  offset="1" style="stop-color:#00AA00"/>
	</linearGradient>
	<path style="fill:url(#SVGID_00000022548980988220015950000013940026322451705230_);" d="M57.8,23.9L53,31.3h12.5
		c-0.5,0.6-1.1,1.2-1.8,1.8c-1.8,1.3-3.7,2-6,2c-1.8,0-3.5-0.4-5-1.3c-1.6-0.9-2.8-2.1-3.7-3.7s-1.3-3.2-1.3-5.1
		c0-1.8,0.4-3.4,1.4-5c0.9-1.6,2.1-2.8,3.7-3.7c1.6-0.9,3.2-1.3,5-1.3c1.1,0,2.2,0.2,3.2,0.5s1.9,0.8,2.8,1.4
		c0.9,0.6,1.6,1.3,2.1,2.1l1.5,2.1l6-4.2l-1.5-2.1c-1.6-2.2-3.6-4-6.1-5.3s-5.2-1.9-8.1-1.9c-2.3,0-4.6,0.4-6.7,1.3
		c-2.1,0.9-4,2.1-5.7,3.8c-1.6,1.6-2.9,3.5-3.8,5.7c-0.9,2.1-1.3,4.4-1.3,6.7c0,3.2,0.8,6.1,2.4,8.8c1.6,2.7,3.7,4.8,6.3,6.3
		c2.7,1.6,5.6,2.4,8.8,2.4c3,0,5.9-0.7,8.4-2.1c2.5-1.4,4.6-3.3,6.2-5.7s2.5-5.1,2.8-8l0.3-2.8H57.8V23.9z"/>
	<g>
		<g>
			
				<linearGradient id="SVGID_00000042010401854533720680000006855602716830092172_" gradientUnits="userSpaceOnUse" x1="30.4476" y1="68.3524" x2="88.2943" y2="10.5056" gradientTransform="matrix(1 0 0 -1 0 50)">
				<stop  offset="0" style="stop-color:#FFED00"/>
				<stop  offset="8.658006e-02" style="stop-color:#F7EB00"/>
				<stop  offset="0.2172" style="stop-color:#E3E600"/>
				<stop  offset="0.3756" style="stop-color:#C1DD00"/>
				<stop  offset="0.5559" style="stop-color:#92D000"/>
				<stop  offset="0.7546" style="stop-color:#55C000"/>
				<stop  offset="0.9656" style="stop-color:#0DAD00"/>
				<stop  offset="1" style="stop-color:#00AA00"/>
			</linearGradient>
			<path style="fill:url(#SVGID_00000042010401854533720680000006855602716830092172_);" d="M77.8,31h7.8v7.7h-3.9v-3.9h-3.9V31z"/>
		</g>
		<g>
			
				<linearGradient id="SVGID_00000008143342453691110430000012958613858852573594_" gradientUnits="userSpaceOnUse" x1="25.9755" y1="61.3246" x2="83.8248" y2="3.4752" gradientTransform="matrix(1 0 0 -1 0 50)">
				<stop  offset="0" style="stop-color:#FFED00"/>
				<stop  offset="8.658006e-02" style="stop-color:#F7EB00"/>
				<stop  offset="0.2172" style="stop-color:#E3E600"/>
				<stop  offset="0.3756" style="stop-color:#C1DD00"/>
				<stop  offset="0.5559" style="stop-color:#92D000"/>
				<stop  offset="0.7546" style="stop-color:#55C000"/>
				<stop  offset="0.9656" style="stop-color:#0DAD00"/>
				<stop  offset="1" style="stop-color:#00AA00"/>
			</linearGradient>
			<path style="fill:url(#SVGID_00000008143342453691110430000012958613858852573594_);" d="M81.8,42.5H74v-7.7h3.9v3.9h3.9V42.5z"
				/>
		</g>
	</g>
</g>
</svg>
