<?xml version="1.0" encoding="utf-8"?>
<!-- Generator: Adobe Illustrator 28.3.0, SVG Export Plug-In . SVG Version: 6.00 Build 0)  -->
<svg version="1.1" id="Capa_1" xmlns="http://www.w3.org/2000/svg" xmlns:xlink="http://www.w3.org/1999/xlink" x="0px" y="0px"
	 viewBox="0 0 100 50" style="enable-background:new 0 0 100 50;" xml:space="preserve">
<style type="text/css">
	.st0{fill:none;}
	.st1{fill-rule:evenodd;clip-rule:evenodd;}
</style>
<rect class="st0" width="100" height="50"/>
<g>
	<g>
		<path class="st1" d="M77.2,31.4c0.2-0.2,0.5-0.4,0.7-0.6c0.3,0.3,0.6,0.6,1,0.8c1.6,0.7,3.4-0.1,3.8-1.8c0-0.1,0-0.2,0-0.3
			c0-0.7,0-1.4,0-2.2c-0.1,0.1-0.2,0.2-0.3,0.2c-1.1,1-2.7,1.2-3.9,0.5c-1.4-0.7-2.1-2.1-1.9-3.6c0.2-1.4,1-2.4,2.4-2.9
			c1.3-0.5,2.6-0.2,3.6,0.8c0.3,0.3,0.6,0.5,0.9,0.7c0.1,0.1,0.1,0.1,0.1,0.3c0,1.9,0,3.8,0,5.7c0,1.9-1.3,3.2-2.5,3.5
			c-1.4,0.4-2.7,0.1-3.8-1C77.3,31.5,77.3,31.5,77.2,31.4z M82.8,25c0-1.5-1.1-2.6-2.6-2.6c-1.5,0-2.6,1.1-2.6,2.6
			c0,1.5,1.1,2.6,2.6,2.6C81.6,27.6,82.8,26.5,82.8,25z"/>
		<path class="st1" d="M55.7,28.5c0-3.8,0-7.5,0-11.3c0,0,0,0,0,0c0.8,0,1.5,0,2.3,0.1c2.2,0.3,4.2,2.3,4.5,4.5
			c0.3,1.9-0.2,3.5-1.5,4.9c-0.8,0.8-1.8,1.3-2.9,1.6C57.4,28.5,56.6,28.6,55.7,28.5z M56.7,18.1c0,3.1,0,6.2,0,9.3
			c1.8,0.1,3.3-0.5,4.3-2.1c1.1-1.7,1.1-3.4,0-5.1C60,18.7,58.5,18.1,56.7,18.1z"/>
		<path class="st1" d="M65.1,27.1c0.7,0.5,1.4,0.6,2.2,0.4c0.8-0.2,1.3-0.6,1.7-1.3c0.3,0.1,0.5,0.3,0.8,0.4
			c-0.2,0.4-0.5,0.8-0.9,1.1c-1.1,0.8-2.2,1-3.5,0.6c-1.2-0.5-2-1.4-2.2-2.8c-0.2-1.5,0.5-2.9,1.9-3.7c1.2-0.7,2.9-0.4,4,0.6
			c0.2,0.2,0.3,0.4,0.5,0.6c0.1,0.1,0.1,0.1,0,0.2c-1,0.9-2.1,1.8-3.1,2.7c-0.4,0.4-0.8,0.7-1.2,1.1C65.2,27,65.2,27,65.1,27.1z
			 M68.4,23c-0.8-0.9-2.5-0.8-3.4,0c-1.1,1-1.1,2.6-0.4,3.4C65.8,25.3,67.1,24.1,68.4,23z"/>
		<path class="st1" d="M89.1,28.5c0-0.2,0-0.5,0-0.7c0-1.2,0-2.4,0-3.5c0-0.6-0.2-1.1-0.7-1.5c-0.6-0.4-1.2-0.5-1.9-0.2
			c-0.6,0.3-1,0.9-1,1.6c0,1.4,0,2.8,0,4.2c0,0.1,0,0.1,0,0.2c-0.3,0-0.6,0-0.9,0c0-0.1,0-0.1,0-0.2c0-1.6,0-3.2,0-4.9
			c0-0.1,0-0.3,0.1-0.4c0.3-0.4,0.6-0.8,0.9-1.1c0.8-0.7,1.8-0.7,2.7-0.3c0.9,0.4,1.5,1.2,1.5,2.2c0,1.4,0,2.7,0,4.1
			c0,0.2,0,0.4,0,0.5C89.7,28.5,89.4,28.5,89.1,28.5z"/>
		<path class="st1" d="M70.3,27.3c0.3-0.1,0.5-0.3,0.8-0.4c0.2,0.3,0.4,0.5,0.7,0.6c0.7,0.2,1.3-0.2,1.5-0.8
			c0.2-0.7-0.2-1.3-0.8-1.5c-0.3-0.1-0.7-0.2-1-0.3c-0.7-0.3-1.1-1-1-1.8c0.1-0.7,0.6-1.3,1.4-1.5c0.8-0.2,1.7,0.2,2,1
			c-0.3,0.1-0.5,0.2-0.8,0.3c-0.2-0.4-0.5-0.6-0.9-0.5c-0.3,0-0.7,0.4-0.7,0.7c-0.1,0.4,0.1,0.8,0.5,0.9c0.3,0.1,0.6,0.2,0.9,0.3
			c1,0.3,1.5,1.1,1.5,2.2c0,0.8-0.7,1.7-1.5,1.9C71.7,28.6,70.8,28.2,70.3,27.3C70.3,27.4,70.3,27.3,70.3,27.3z"/>
		<path class="st1" d="M75.9,28.5c-0.3,0-0.6,0-0.9,0c0-2.3,0-4.6,0-6.9c0.3,0,0.6,0,0.9,0C75.9,23.9,75.9,26.2,75.9,28.5z"/>
		<path class="st1" d="M77.5,17.3c0.1,0.4,0.1,0.8,0,1.3c-0.1,0.2-0.3,0.4-0.5,0.4c-0.3,0.1-0.5,0.2-0.8,0.3c-0.4,0.2-0.7,0.5-0.8,1
			c-0.1-0.4-0.1-0.9,0.1-1.3c0.1-0.2,0.3-0.3,0.5-0.4C76.8,18.4,77.3,18,77.5,17.3z"/>
	</g>
	<g>
		<path class="st1" d="M12.9,25.1c1,1.1,1.9,2.2,2.9,3.3c-0.8,0.1-1.3,0.1-1.7-0.5c-0.6-0.8-1.4-1.6-2-2.4c-0.3-0.4-0.7-0.5-1.2-0.3
			c0,1,0,2.1,0,3.2c-0.3,0-0.6,0-0.9,0c0-3.8,0-7.5,0-11.3c0.9,0,1.9-0.1,2.7,0c1.8,0.3,3,1.7,3.2,3.4c0.2,1.7-0.7,3.3-2.3,4.1
			C13.4,24.9,13.2,25,12.9,25.1z M10.9,24.2c1.5,0.2,2.9,0,3.7-1.4c0.6-1.1,0.6-2.2-0.1-3.3c-0.9-1.2-2.1-1.4-3.6-1.2
			C10.9,20.2,10.9,22.2,10.9,24.2z"/>
		<path class="st1" d="M49.7,27.5c-1.8,1.6-4.1,1.2-5.3-0.2c-1.2-1.4-1.1-3.4,0.1-4.7c1.3-1.4,3.3-1.4,4.9-0.4
			c1.1,0.7,1.5,1.6,1.4,2.9c-0.1,1.1,0,2.2,0,3.5C50.3,28.1,50,27.8,49.7,27.5z M44.5,25c0,1.4,1.2,2.6,2.6,2.6
			c1.5,0,2.6-1.2,2.6-2.6c0-1.4-1.2-2.6-2.6-2.6C45.7,22.4,44.5,23.5,44.5,25z"/>
		<path class="st1" d="M23.1,26.6c-0.7,1.4-2.3,2.2-3.8,1.8c-1.5-0.3-2.8-1.7-2.8-3.1c-0.1-1.8,0.8-3.2,2.4-3.7
			c1.5-0.5,3.2,0.1,4.2,1.5c-1.5,1.3-3,2.6-4.5,3.9c1.2,1,2.7,0.7,3.9-0.8C22.6,26.3,22.8,26.5,23.1,26.6z M17.9,26.4
			c1.3-1.1,2.5-2.2,3.8-3.3c-1-0.9-2.4-0.9-3.4,0C17.5,23.7,16.9,25.2,17.9,26.4z"/>
		<path class="st1" d="M37.2,25c0,2-1.5,3.6-3.5,3.6c-2,0-3.6-1.5-3.6-3.5c0-2,1.6-3.6,3.6-3.6C35.6,21.4,37.2,23,37.2,25z
			 M33.6,27.6c1.5,0,2.7-1.2,2.6-2.6c0-1.4-1.2-2.6-2.6-2.6c-1.4,0-2.6,1.1-2.6,2.6C30.9,26.4,32.1,27.6,33.6,27.6z"/>
		<path class="st1" d="M29.2,28.5c-0.3,0-0.5,0-0.9,0c0-0.8,0-1.6,0-2.4c0-0.6,0-1.1,0-1.7c0-1.2-0.7-2-1.7-2c-1.1,0-1.7,0.8-1.7,2
			c0,1.4,0,2.7,0,4.1c-0.3,0-0.6,0-1,0c0-1.7-0.1-3.5,0-5.2c0-0.9,1.6-1.8,2.7-1.8c1.3,0,2.5,0.8,2.6,2.1
			C29.3,25.2,29.2,26.8,29.2,28.5z"/>
		<path class="st1" d="M40.4,28.6c-1-2.4-2-4.6-2.9-6.8c0.9-0.3,0.9-0.2,1.3,0.5c0.5,1.2,1.1,2.5,1.7,3.9c0.6-1.4,1.2-2.6,1.6-3.8
			c0.2-0.6,0.6-0.9,1.3-0.6C42.4,24,41.4,26.2,40.4,28.6z"/>
	</g>
</g>
</svg>
