<?xml version="1.0" encoding="utf-8"?>
<!-- Generator: Adobe Illustrator 27.8.0, SVG Export Plug-In . SVG Version: 6.00 Build 0)  -->
<svg version="1.1" id="Capa_1" xmlns="http://www.w3.org/2000/svg" xmlns:xlink="http://www.w3.org/1999/xlink" x="0px" y="0px"
	 viewBox="0 0 384 48" style="enable-background:new 0 0 384 48;" xml:space="preserve">
<style type="text/css">
	.st0{clip-path:url(#SVGID_00000022555646259799624400000010711532727868982448_);}
	.st1{fill:#FFFFFF;}
	.st2{clip-path:url(#SVGID_00000052062826491734667800000011798759208137605033_);}
	.st3{clip-path:url(#SVGID_00000052794945727987821560000004259922628857584801_);fill:#FFFFFF;}
	.st4{clip-path:url(#SVGID_00000134957494009255677690000007064488248072442025_);}
	.st5{fill:none;}
</style>
<g>
	<g>
		<g>
			<g>
				<g>
					<defs>
						<rect id="SVGID_1_" x="144" y="0" width="48" height="48"/>
					</defs>
					<clipPath id="SVGID_00000136395348467145498700000010317248469691682727_">
						<use xlink:href="#SVGID_1_"  style="overflow:visible;"/>
					</clipPath>
					<g style="clip-path:url(#SVGID_00000136395348467145498700000010317248469691682727_);">
						<path class="st1" d="M177,23.8c0.1-0.2,0.2-0.5,0.3-0.7v0.1c0,0,3.7-0.2,7,0.5v-0.1c-3.3-0.7-6.9-0.5-7-0.5
							c0.3-0.9,0.4-1.9,0.4-3c0-1.8-0.6-3.4-1.8-4.7c0.2-1,0.3-2.3-0.2-3.8c0,0-1.2-0.3-4.1,1.5c-1.1-0.3-2.2-0.4-3.6-0.4
							c-1.4,0-2.6,0.2-3.8,0.5c-3-1.9-4.2-1.5-4.2-1.5c-0.6,1.7-0.4,3.1-0.2,4.1c-1,1.1-1.6,2.6-1.6,4.2c0,1.2,0.2,2.2,0.5,3.1
							c-0.4,0-3.8-0.2-6.9,0.5v0.1c3.3-0.7,6.9-0.5,6.9-0.5l0,0c0.1,0.2,0.2,0.4,0.3,0.6c-0.3,0-3.9,0-7.2,1v0.1c3.4-1,7.2-1,7.2-1
							v-0.1c1.1,2,3.1,3.1,6.4,3.4c-0.9,0.6-1,1.4-1.2,1.9c-0.5,0.2-1.1,0.5-2.3,0.3c-1.6-0.3-2-2.5-3.6-2.8
							c-0.8-0.2-1.3,0.2-0.4,0.7c2,1.9,0.8,1.6,2.2,3c1.5,1.6,3.9,0.9,3.9,0.9s0,2.4,0,2.8c0,0.5-0.3,0.7-0.6,0.9
							c-0.3,0.3-1,0.6-0.5,0.8s2.5-0.2,2.6-1.4c0-0.6,0-2.2,0-3.4c0-1.2,0.5-1.5,0.5-1.5s0,4.8,0,5.1c0,1.1-0.9,1.6-0.7,1.8
							c0.5,0.3,2-0.5,2.2-1.2c0.3-1,0.2-5.9,0.2-5.9h0.4c0,0,0,4.1,0.1,5.3c0,1,0.6,1.4,1.5,1.8c0.5,0.2,0.9,0.1,0.9-0.2
							s-0.5-0.6-0.7-1.3c-0.2-0.4-0.1-5.5-0.1-5.5c1,0.7,0.2,3.6,0.6,5.2c0.5,1.4,2.6,1.3,2.6,1c0.1-0.4-0.7-0.4-1-1.1
							c-0.3-0.4-0.1-2.4-0.2-2.8c0-0.3,0.3-3-0.8-4c-0.2-0.2-0.4-0.4-0.6-0.5C174.3,26.8,176.1,25.6,177,23.8v0.1c0,0,3.9,0,7.3,1
							v-0.1C180.9,23.8,177.2,23.8,177,23.8z"/>
					</g>
				</g>
			</g>
		</g>
	</g>
</g>
<g>
	<g>
		<g>
			<g>
				<g>
					<g>
						<defs>
							<rect id="SVGID_00000020370034992987030450000009789090464116083343_" x="192" y="0" width="48" height="48"/>
						</defs>
						<clipPath id="SVGID_00000138558294452358805510000002399338315097506964_">
							<use xlink:href="#SVGID_00000020370034992987030450000009789090464116083343_"  style="overflow:visible;"/>
						</clipPath>
						<g style="clip-path:url(#SVGID_00000138558294452358805510000002399338315097506964_);">
							<path class="st1" d="M216,11.5c-6.9,0-12.5,5.6-12.5,12.5s5.6,12.5,12.5,12.5s12.5-5.6,12.5-12.5S222.9,11.5,216,11.5
								L216,11.5z M217.2,28.2c-1.1-0.1-1.6-0.7-2.5-1.2c-0.5,2.6-1.1,5-2.9,6.3c-0.5-3.9,0.8-6.8,1.4-9.9c-1.1-1.8,0.1-5.4,2.4-4.5
								c2.8,1.1-2.4,6.7,1.1,7.4c3.6,0.7,5.1-6.3,2.9-8.6c-3.3-3.3-9.5-0.1-8.7,4.6c0.2,1.2,1.4,1.5,0.5,3.1
								c-2.1-0.5-2.7-2.1-2.6-4.3c0.1-3.6,3.2-6.1,6.3-6.4c3.9-0.4,7.6,1.4,8.1,5.1C223.7,24,221.4,28.5,217.2,28.2L217.2,28.2z"/>
						</g>
					</g>
				</g>
			</g>
		</g>
	</g>
</g>
<g>
	<g>
		<g>
			<g>
				<g>
					<defs>
						<rect id="SVGID_00000087402364601449399960000000998361727690011794_" x="336" y="0" width="48" height="48"/>
					</defs>
					<clipPath id="SVGID_00000172412969125575860960000001372971770938791069_">
						<use xlink:href="#SVGID_00000087402364601449399960000000998361727690011794_"  style="overflow:visible;"/>
					</clipPath>
				</g>
			</g>
		</g>
	</g>
</g>
<g>
	<g>
		<g>
			<g>
				<g>
					<g>
						<defs>
							<rect id="SVGID_00000030446884618471012710000012168638094550109350_" x="240" y="0" width="48" height="48"/>
						</defs>
						<clipPath id="SVGID_00000034064013553826574330000007417537721462740116_">
							<use xlink:href="#SVGID_00000030446884618471012710000012168638094550109350_"  style="overflow:visible;"/>
						</clipPath>
						<path style="clip-path:url(#SVGID_00000034064013553826574330000007417537721462740116_);fill:#FFFFFF;" d="M269.9,16.3h3.8
							v-4.8h-3.8c-3.2,0-5.8,2.8-5.8,6.3v2.4h-3.8V25h3.8v11.6h4.8V24.9h4.8v-4.8h-4.8v-2.4C269,16.9,269.5,16.3,269.9,16.3z"/>
					</g>
				</g>
			</g>
		</g>
	</g>
</g>
<g>
	<g>
		<g>
			<g>
				<g>
					<g>
						<defs>
							<rect id="SVGID_00000027586236936919860510000015695725190207695550_" y="0" width="48" height="48"/>
						</defs>
						<clipPath id="SVGID_00000139260269427439668670000012257125668288407205_">
							<use xlink:href="#SVGID_00000027586236936919860510000015695725190207695550_"  style="overflow:visible;"/>
						</clipPath>
						<g style="clip-path:url(#SVGID_00000139260269427439668670000012257125668288407205_);">
							<rect x="11.9" y="19.8" class="st1" width="5.2" height="16.7"/>
							<path class="st1" d="M14.5,17.5c-1.9,0-3.2-1.6-3-3.4c0.1-0.7,0.3-1.1,0.4-1.3c0.4-0.6,1.2-1.2,2.2-1.3
								c1.9-0.2,3.4,1.1,3.4,3S16,17.5,14.5,17.5z"/>
							<path class="st1" d="M36.5,36.5c-1.7,0-3.5,0-5.2,0c0-1.9,0-3.9,0-5.9c0-1.9,0.2-4.1-0.5-5.4c-0.9-1.8-3.9-1.5-4.8,0.1
								c-0.7,1.2-0.6,3.4-0.6,5.4s0,4,0,5.9c-1.7,0-5.2,0-5.2,0V19.8h5v2.3c0.2-0.1,0.3-0.4,0.4-0.6c0.9-1.2,2.5-2.1,4.5-2.2
								c3.9,0,5.7,2,6.2,5.6C36.8,28.4,36.6,32.6,36.5,36.5z"/>
						</g>
					</g>
				</g>
			</g>
		</g>
	</g>
</g>
<g>
	<rect x="48" y="0" class="st5" width="48" height="48"/>
	<g>
		<path class="st1" d="M65.3,34.9c-3.6,0-7.1,0-10.7,0v-0.1c0-7.2,0-14.5,0-21.7V13c3.5,0,6.9,0,10.4,0h0.1c0.2,0,0.4,0,0.6,0
			c0.3,0,0.5,0,0.8,0.1c0.4,0,0.7,0.1,1.1,0.2c0.7,0.1,1.4,0.3,2,0.7c0.9,0.5,1.6,1.2,1.9,2.2c0.2,0.6,0.3,1.2,0.4,1.9
			c0,0.5,0,1-0.1,1.5c-0.2,1.1-0.7,2-1.6,2.7c-0.4,0.3-0.8,0.5-1.2,0.8h-0.1l0,0H69c0.4,0.1,0.8,0.3,1.2,0.5
			c1.1,0.6,1.8,1.4,2.2,2.5c0.3,0.7,0.4,1.4,0.5,2.2c0,0.4,0,0.9,0,1.3c-0.1,0.5-0.2,1-0.4,1.5c-0.4,0.9-1,1.7-1.8,2.3
			c-0.9,0.7-1.9,1.1-3,1.3c-0.4,0.1-0.7,0.1-1.1,0.2c-0.2,0-0.4,0-0.6,0.1C65.8,34.9,65.6,34.9,65.3,34.9
			C65.4,34.9,65.4,34.9,65.3,34.9z M59.4,28.2c0,1,0,2,0,2.9c0,0.1,0,0.1,0.1,0.1l0,0c1.6,0,3.2,0,4.8,0c0.4,0,0.7,0,1.1-0.1
			s0.8-0.1,1.1-0.3c0.5-0.2,0.9-0.5,1.2-1c0.2-0.4,0.3-0.8,0.3-1.3c0-0.4,0-0.9-0.1-1.3s-0.3-0.8-0.6-1.1c-0.3-0.3-0.7-0.5-1.1-0.7
			c-0.5-0.2-1.1-0.3-1.7-0.3c-1.7,0-3.4,0-5.1,0c-0.1,0-0.1,0-0.1,0.1C59.4,26.3,59.4,27.2,59.4,28.2z M62,21.9c0.8,0,1.5,0,2.3,0
			c0.2,0,0.4,0,0.5,0c0.4,0,0.8-0.1,1.1-0.3c0.3-0.2,0.6-0.4,0.9-0.7c0.3-0.4,0.4-0.9,0.4-1.4c0-0.2,0-0.5,0-0.7
			c0-0.3-0.1-0.5-0.2-0.7c-0.3-0.6-0.8-0.9-1.4-1.1c-0.5-0.2-1.1-0.2-1.6-0.2c-1.5,0-3,0-4.4,0c-0.1,0-0.1,0-0.1,0.1
			c0,1.7,0,3.3,0,5c0,0.1,0,0.1,0.1,0.1C60.4,21.9,61.2,21.9,62,21.9z"/>
		<path class="st1" d="M81.6,34.9C81.5,34.9,81.5,34.9,81.6,34.9c-0.4,0-0.8,0-1.1-0.1c-0.8-0.1-1.7-0.3-2.4-0.6
			c-0.9-0.4-1.7-0.9-2.3-1.7c-0.5-0.6-1-1.3-1.3-2c-0.3-0.6-0.5-1.3-0.6-2c-0.1-0.3-0.1-0.6-0.1-0.9c-0.1-0.5-0.1-1,0-1.5
			c0-0.3,0.1-0.6,0.1-1c0.1-0.6,0.2-1.1,0.4-1.7c0.3-0.9,0.8-1.8,1.5-2.6c0.6-0.7,1.3-1.3,2.1-1.7c0.6-0.3,1.2-0.6,1.9-0.7
			c0.4-0.1,0.7-0.2,1.1-0.2s0.9-0.1,1.3-0.1c0.9,0,1.8,0.2,2.7,0.5c1.1,0.4,2,1.1,2.8,2c0.6,0.7,1,1.5,1.4,2.4
			c0.2,0.6,0.4,1.2,0.5,1.9c0,0.3,0.1,0.6,0.1,0.9c0,0.4,0,0.8,0,1.2c0,0.1,0,0.2,0,0.3c0,0,0,0.1-0.1,0.1c0,0,0,0-0.1,0
			c-3.7,0-7.5,0-11.2,0h-0.1c0,0.1,0,0.2,0,0.4c0,0.3,0.1,0.6,0.1,0.8c0.1,0.5,0.3,1,0.6,1.5c0.4,0.5,0.8,0.9,1.4,1.1
			c0.4,0.1,0.8,0.2,1.2,0.3c0.2,0,0.4,0,0.7,0c1,0,1.8-0.3,2.5-0.9c0.3-0.2,0.5-0.5,0.7-0.8c0-0.1,0.1-0.2,0.1-0.2
			c0-0.1,0.1-0.1,0.1-0.1c0.1,0,0.3,0,0.4,0c1.1,0,2.1,0,3.2,0h0.1c0,0,0,0,0,0.1c-0.3,0.8-0.6,1.6-1.1,2.4
			c-0.6,0.9-1.5,1.6-2.5,2.1c-0.6,0.3-1.2,0.5-1.8,0.6c-0.3,0.1-0.7,0.1-1,0.1c-0.2,0-0.5,0-0.7,0c0,0,0,0-0.1,0
			C81.7,34.9,81.6,34.9,81.6,34.9z M81.5,24.9c0.7,0,1.3,0,2,0c0.5,0,1,0,1.5,0c0.1,0,0.1,0,0.1-0.1S85,24.5,85,24.4
			c-0.1-0.5-0.3-1.1-0.6-1.5c-0.2-0.3-0.4-0.6-0.7-0.8c-0.5-0.3-1-0.5-1.6-0.5c-0.2,0-0.5,0-0.7,0c-0.3,0-0.5,0-0.8,0.1
			c-0.6,0.2-1.2,0.5-1.6,1c-0.6,0.6-0.8,1.4-0.9,2.2c0,0.1,0,0.1,0.1,0.1C79.2,24.9,80.3,24.9,81.5,24.9z"/>
		<path class="st1" d="M81.6,16.6c-1.4,0-2.9,0-4.3,0c-0.1,0-0.1,0-0.1-0.1c0-0.7,0-1.5,0-2.2c0-0.1,0-0.1,0.1-0.1
			c2.9,0,5.8,0,8.6,0c0.1,0,0.1,0,0.1,0.1c0,0.8,0,1.5,0,2.3c0,0.1,0,0.1-0.1,0.1C84.5,16.6,83,16.6,81.6,16.6z"/>
	</g>
</g>
<g>
	<rect x="96" y="0" class="st5" width="48" height="48"/>
	<g>
		<path class="st1" d="M138.1,24c0,3,0,6.1,0,9.1s-1.2,5.4-3.6,7.2c-1.6,1.2-3.4,1.8-5.3,1.8c-6.1,0-12.3,0-18.4,0
			c-3.1,0-5.5-1.3-7.4-3.8c-1.1-1.5-1.7-3.3-1.7-5.1c0-6.1,0-12.3,0-18.4c0-3.7,2.3-7,5.7-8.3c1.1-0.4,2.2-0.6,3.3-0.6
			c6.1,0,12.2,0,18.3,0c2.7,0,5,1,6.7,3c1.5,1.7,2.3,3.7,2.3,5.9C138.2,17.8,138.1,20.9,138.1,24z M119.9,39.6c3,0,6.1,0,9.1,0
			c3.7,0,6.5-2.9,6.5-6.5c0-6.1,0-12.1,0-18.2c0-3.7-2.9-6.5-6.6-6.5c-6.1,0-12.1,0-18.2,0c-0.4,0-0.8,0-1.1,0.1
			c-3.2,0.6-5.4,3.2-5.4,6.5c0,2.6,0,5.1,0,7.7c0,3.5,0,7,0,10.5c0,1.1,0.2,2.1,0.8,3.1c1.3,2.3,3.3,3.4,5.9,3.4
			C114,39.6,117,39.6,119.9,39.6z"/>
		<path class="st1" d="M120,33.6c-5.3,0-9.6-4.3-9.6-9.7c0-5.3,4.3-9.6,9.6-9.6c5.4,0,9.6,4.3,9.6,9.7
			C129.6,29.3,125.3,33.6,120,33.6z M127,24c0-3.9-3.2-7.1-7.1-7.1s-7.1,3.2-7.1,7.1s3.2,7.1,7.1,7.1C123.9,31.1,127.1,27.9,127,24z
			"/>
		<path class="st1" d="M132.5,13.7c0,1.2-1,2.2-2.2,2.2s-2.2-1-2.3-2.2c0-1.2,1-2.2,2.2-2.2C131.5,11.5,132.5,12.5,132.5,13.7z"/>
	</g>
</g>
<g>
	<path class="st1" d="M315,21.5l11.8-13.7H324l-10.3,11.9l-8.2-11.9h-9.4l12.4,18l-12.4,14.4h2.8l10.8-12.6l8.6,12.6h9.4L315,21.5
		L315,21.5z M311.2,26l-1.3-1.8l-10-14.3h4.3l8.1,11.5l1.3,1.8l10.5,15h-4.3L311.2,26L311.2,26z"/>
</g>
<path class="st1" d="M377.3,24c0,0,0,5.6-0.7,8.3c-0.4,1.5-1.6,2.7-3.1,3.1c-2.7,0.7-13.5,0.7-13.5,0.7s-10.8,0-13.5-0.7
	c-1.5-0.4-2.7-1.6-3.1-3.1c-0.7-2.7-0.7-8.3-0.7-8.3s0-5.6,0.7-8.3c0.4-1.5,1.6-2.7,3.1-3.1c2.7-0.7,13.5-0.7,13.5-0.7
	s10.8,0,13.5,0.7c1.5,0.4,2.7,1.6,3.1,3.1C377.3,18.4,377.3,24,377.3,24z M356.5,29.2l9-5.2l-9-5.2V29.2z"/>
</svg>
