<?xml version="1.0" encoding="utf-8"?>
<!-- Generator: Adobe Illustrator 28.3.0, SVG Export Plug-In . SVG Version: 6.00 Build 0)  -->
<svg version="1.1" id="Capa_1" xmlns="http://www.w3.org/2000/svg" xmlns:xlink="http://www.w3.org/1999/xlink" x="0px" y="0px"
	 viewBox="0 0 384 48" style="enable-background:new 0 0 384 48;" xml:space="preserve">
<style type="text/css">
	.st0{clip-path:url(#SVGID_00000163052169267700874170000016478563093954899116_);}
	.st1{fill:#FFFFFF;}
	.st2{clip-path:url(#SVGID_00000101807276694975504340000003239911546592952962_);}
	.st3{clip-path:url(#SVGID_00000106115273662951565250000001489063100073400238_);fill:#FFFFFF;}
	.st4{clip-path:url(#SVGID_00000163072534759780009820000002002189826833888694_);}
	.st5{fill:none;}
</style>
<g>
	<g>
		<g>
			<g>
				<g>
					<g>
						<defs>
							<rect id="SVGID_1_" x="144" width="48" height="48"/>
						</defs>
						<clipPath id="SVGID_00000149373194630663952980000000467793552909200770_">
							<use xlink:href="#SVGID_1_"  style="overflow:visible;"/>
						</clipPath>
						<g style="clip-path:url(#SVGID_00000149373194630663952980000000467793552909200770_);">
							<path class="st1" d="M177,23.8c0.1-0.2,0.2-0.5,0.3-0.7v0.1c0,0,3.7-0.2,7,0.5v-0.1c-3.3-0.7-6.9-0.5-7-0.5
								c0.3-0.9,0.4-1.9,0.4-3c0-1.8-0.6-3.4-1.8-4.7c0.2-1,0.3-2.3-0.2-3.8c0,0-1.2-0.3-4.1,1.5c-1.1-0.3-2.2-0.4-3.6-0.4
								c-1.4,0-2.6,0.2-3.8,0.5c-3-1.9-4.2-1.5-4.2-1.5c-0.6,1.7-0.4,3.1-0.2,4.1c-1,1.1-1.6,2.6-1.6,4.2c0,1.2,0.2,2.2,0.5,3.1
								c-0.4,0-3.8-0.2-6.9,0.5v0.1c3.3-0.7,6.9-0.5,6.9-0.5l0,0c0.1,0.2,0.2,0.4,0.3,0.6c-0.3,0-3.9,0-7.2,1v0.1c3.4-1,7.2-1,7.2-1
								v-0.1c1.1,2,3.1,3.1,6.4,3.4c-0.9,0.6-1,1.4-1.2,1.9c-0.5,0.2-1.1,0.5-2.3,0.3c-1.6-0.3-2-2.5-3.6-2.8
								c-0.8-0.2-1.3,0.2-0.4,0.7c2,1.9,0.8,1.6,2.2,3c1.5,1.6,3.9,0.9,3.9,0.9s0,2.4,0,2.8c0,0.5-0.3,0.7-0.6,0.9
								c-0.3,0.3-1,0.6-0.5,0.8s2.5-0.2,2.6-1.4c0-0.6,0-2.2,0-3.4c0-1.2,0.5-1.5,0.5-1.5s0,4.8,0,5.1c0,1.1-0.9,1.6-0.7,1.8
								c0.5,0.3,2-0.5,2.2-1.2c0.3-1,0.2-5.9,0.2-5.9h0.4c0,0,0,4.1,0.1,5.3c0,1,0.6,1.4,1.5,1.8c0.5,0.2,0.9,0.1,0.9-0.2
								s-0.5-0.6-0.7-1.3c-0.2-0.4-0.1-5.5-0.1-5.5c1,0.7,0.2,3.6,0.6,5.2c0.5,1.4,2.6,1.3,2.6,1c0.1-0.4-0.7-0.4-1-1.1
								c-0.3-0.4-0.1-2.4-0.2-2.8c0-0.3,0.3-3-0.8-4c-0.2-0.2-0.4-0.4-0.6-0.5C174.3,26.8,176.1,25.6,177,23.8v0.1c0,0,3.9,0,7.3,1
								v-0.1C180.9,23.8,177.2,23.8,177,23.8z"/>
						</g>
					</g>
				</g>
			</g>
		</g>
	</g>
</g>
<g>
	<g>
		<g>
			<g>
				<g>
					<g>
						<g>
							<defs>
								<rect id="SVGID_00000079472053860097497570000004133555216043226297_" x="192" width="48" height="48"/>
							</defs>
							<clipPath id="SVGID_00000139256116502787066530000016482525772625470608_">
								<use xlink:href="#SVGID_00000079472053860097497570000004133555216043226297_"  style="overflow:visible;"/>
							</clipPath>
							<g style="clip-path:url(#SVGID_00000139256116502787066530000016482525772625470608_);">
								<path class="st1" d="M216,11.5c-6.9,0-12.5,5.6-12.5,12.5s5.6,12.5,12.5,12.5s12.5-5.6,12.5-12.5S222.9,11.5,216,11.5
									L216,11.5z M217.2,28.2c-1.1-0.1-1.6-0.7-2.5-1.2c-0.5,2.6-1.1,5-2.9,6.3c-0.5-3.9,0.8-6.8,1.4-9.9
									c-1.1-1.8,0.1-5.4,2.4-4.5c2.8,1.1-2.4,6.7,1.1,7.4c3.6,0.7,5.1-6.3,2.9-8.6c-3.3-3.3-9.5-0.1-8.7,4.6
									c0.2,1.2,1.4,1.5,0.5,3.1c-2.1-0.5-2.7-2.1-2.6-4.3c0.1-3.6,3.2-6.1,6.3-6.4c3.9-0.4,7.6,1.4,8.1,5.1
									C223.7,24,221.4,28.5,217.2,28.2L217.2,28.2z"/>
							</g>
						</g>
					</g>
				</g>
			</g>
		</g>
	</g>
</g>
<g>
	<g>
		<g>
			<g>
				<g>
					<g>
						<g>
							<defs>
								<rect id="SVGID_00000160874105336001129890000014636786014812350089_" x="240" width="48" height="48"/>
							</defs>
							<clipPath id="SVGID_00000165914881288187828070000014903279304938235321_">
								<use xlink:href="#SVGID_00000160874105336001129890000014636786014812350089_"  style="overflow:visible;"/>
							</clipPath>
							<path style="clip-path:url(#SVGID_00000165914881288187828070000014903279304938235321_);fill:#FFFFFF;" d="M269.9,16.3h3.8
								v-4.8h-3.8c-3.2,0-5.8,2.8-5.8,6.3v2.4h-3.8V25h3.8v11.6h4.8V24.9h4.8v-4.8h-4.8v-2.4C269,16.9,269.5,16.3,269.9,16.3z"/>
						</g>
					</g>
				</g>
			</g>
		</g>
	</g>
</g>
<g>
	<g>
		<g>
			<g>
				<g>
					<g>
						<g>
							<defs>
								<rect id="SVGID_00000103252718380610416870000008259997824182736038_" width="48" height="48"/>
							</defs>
							<clipPath id="SVGID_00000093867448804652337610000013656842352594795706_">
								<use xlink:href="#SVGID_00000103252718380610416870000008259997824182736038_"  style="overflow:visible;"/>
							</clipPath>
							<g style="clip-path:url(#SVGID_00000093867448804652337610000013656842352594795706_);">
								<rect x="11.9" y="19.8" class="st1" width="5.2" height="16.7"/>
								<path class="st1" d="M14.5,17.5c-1.9,0-3.2-1.6-3-3.4c0.1-0.7,0.3-1.1,0.4-1.3c0.4-0.6,1.2-1.2,2.2-1.3
									c1.9-0.2,3.4,1.1,3.4,3S16,17.5,14.5,17.5z"/>
								<path class="st1" d="M36.5,36.5c-1.7,0-3.5,0-5.2,0c0-1.9,0-3.9,0-5.9c0-1.9,0.2-4.1-0.5-5.4c-0.9-1.8-3.9-1.5-4.8,0.1
									c-0.7,1.2-0.6,3.4-0.6,5.4s0,4,0,5.9c-1.7,0-5.2,0-5.2,0V19.8h5v2.3c0.2-0.1,0.3-0.4,0.4-0.6c0.9-1.2,2.5-2.1,4.5-2.2
									c3.9,0,5.7,2,6.2,5.6C36.8,28.4,36.6,32.6,36.5,36.5z"/>
							</g>
						</g>
					</g>
				</g>
			</g>
		</g>
	</g>
</g>
<g>
	<rect x="48" class="st5" width="48" height="48"/>
	<g>
		<path class="st1" d="M65.6,34.4c-3.5,0-6.8,0-10.3,0v-0.1c0-6.9,0-13.9,0-20.8v-0.1c3.4,0,6.6,0,10,0h0.1c0.2,0,0.4,0,0.6,0
			c0.3,0,0.5,0,0.8,0.1c0.4,0,0.7,0.1,1.1,0.2c0.7,0.1,1.3,0.3,1.9,0.7c0.9,0.5,1.5,1.2,1.8,2.1c0.2,0.6,0.3,1.2,0.4,1.8
			c0,0.5,0,1-0.1,1.4c-0.2,1.1-0.7,1.9-1.5,2.6c-0.4,0.3-0.8,0.5-1.2,0.8H69l0,0h0.1c0.4,0.1,0.8,0.3,1.2,0.5
			c1.1,0.6,1.7,1.3,2.1,2.4c0.3,0.7,0.4,1.3,0.5,2.1c0,0.4,0,0.9,0,1.2c-0.1,0.5-0.2,1-0.4,1.4c-0.4,0.9-1,1.6-1.7,2.2
			c-0.9,0.7-1.8,1.1-2.9,1.2c-0.4,0.1-0.7,0.1-1.1,0.2c-0.2,0-0.4,0-0.6,0.1C66.1,34.4,65.9,34.4,65.6,34.4
			C65.7,34.4,65.7,34.4,65.6,34.4z M59.9,28c0,1,0,1.9,0,2.8c0,0.1,0,0.1,0.1,0.1l0,0c1.5,0,3.1,0,4.6,0c0.4,0,0.7,0,1.1-0.1
			s0.8-0.1,1.1-0.3c0.5-0.2,0.9-0.5,1.2-1c0.2-0.4,0.3-0.8,0.3-1.2c0-0.4,0-0.9-0.1-1.2s-0.3-0.8-0.6-1.1c-0.3-0.3-0.7-0.5-1.1-0.7
			c-0.5-0.2-1.1-0.3-1.6-0.3c-1.6,0-3.3,0-4.9,0c-0.1,0-0.1,0-0.1,0.1C59.9,26.2,59.9,27.1,59.9,28z M62.4,22c0.8,0,1.4,0,2.2,0
			c0.2,0,0.4,0,0.5,0c0.4,0,0.8-0.1,1.1-0.3c0.3-0.2,0.6-0.4,0.9-0.7c0.3-0.4,0.4-0.9,0.4-1.3c0-0.2,0-0.5,0-0.7
			c0-0.3-0.1-0.5-0.2-0.7c-0.3-0.6-0.8-0.9-1.3-1.1c-0.5-0.2-1.1-0.2-1.5-0.2c-1.4,0-2.9,0-4.2,0c-0.1,0-0.1,0-0.1,0.1
			c0,1.6,0,3.2,0,4.8c0,0.1,0,0.1,0.1,0.1C60.9,22,61.7,22,62.4,22z"/>
		<path class="st1" d="M81.2,34.4C81.1,34.4,81.1,34.4,81.2,34.4c-0.4,0-0.8,0-1.1-0.1c-0.8-0.1-1.6-0.3-2.3-0.6
			c-0.9-0.4-1.6-0.9-2.2-1.6c-0.5-0.6-1-1.2-1.2-1.9c-0.3-0.6-0.5-1.2-0.6-1.9c-0.1-0.3-0.1-0.6-0.1-0.9c-0.1-0.5-0.1-1,0-1.4
			c0-0.3,0.1-0.6,0.1-1c0.1-0.6,0.2-1.1,0.4-1.6c0.3-0.9,0.8-1.7,1.4-2.5c0.6-0.7,1.2-1.2,2-1.6c0.6-0.3,1.2-0.6,1.8-0.7
			c0.4-0.1,0.7-0.2,1.1-0.2s0.9-0.1,1.2-0.1c0.9,0,1.7,0.2,2.6,0.5c1.1,0.4,1.9,1.1,2.7,1.9c0.6,0.7,1,1.4,1.3,2.3
			c0.2,0.6,0.4,1.2,0.5,1.8c0,0.3,0.1,0.6,0.1,0.9c0,0.4,0,0.8,0,1.2c0,0.1,0,0.2,0,0.3c0,0,0,0.1-0.1,0.1c0,0,0,0-0.1,0
			c-3.5,0-7.2,0-10.7,0h-0.1c0,0.1,0,0.2,0,0.4c0,0.3,0.1,0.6,0.1,0.8c0.1,0.5,0.3,1,0.6,1.4c0.4,0.5,0.8,0.9,1.3,1.1
			c0.4,0.1,0.8,0.2,1.2,0.3c0.2,0,0.4,0,0.7,0c1,0,1.7-0.3,2.4-0.9c0.3-0.2,0.5-0.5,0.7-0.8c0-0.1,0.1-0.2,0.1-0.2
			c0-0.1,0.1-0.1,0.1-0.1c0.1,0,0.3,0,0.4,0c1.1,0,2,0,3.1,0h0.1c0,0,0,0,0,0.1c-0.3,0.8-0.6,1.5-1.1,2.3c-0.6,0.9-1.4,1.5-2.4,2
			c-0.6,0.3-1.2,0.5-1.7,0.6c-0.3,0.1-0.7,0.1-1,0.1c-0.2,0-0.5,0-0.7,0c0,0,0,0-0.1,0C81.3,34.4,81.2,34.4,81.2,34.4z M81.1,24.9
			c0.7,0,1.2,0,1.9,0c0.5,0,1,0,1.4,0c0.1,0,0.1,0,0.1-0.1s-0.1-0.3-0.1-0.4c-0.1-0.5-0.3-1.1-0.6-1.4c-0.2-0.3-0.4-0.6-0.7-0.8
			c-0.5-0.3-1-0.5-1.5-0.5c-0.2,0-0.5,0-0.7,0c-0.3,0-0.5,0-0.8,0.1c-0.6,0.2-1.2,0.5-1.5,1c-0.6,0.6-0.8,1.3-0.9,2.1
			c0,0.1,0,0.1,0.1,0.1C78.9,24.9,80,24.9,81.1,24.9z"/>
		<path class="st1" d="M81.2,16.9c-1.3,0-2.8,0-4.1,0c-0.1,0-0.1,0-0.1-0.1c0-0.7,0-1.4,0-2.1c0-0.1,0-0.1,0.1-0.1
			c2.8,0,5.6,0,8.2,0c0.1,0,0.1,0,0.1,0.1c0,0.8,0,1.4,0,2.2c0,0.1,0,0.1-0.1,0.1C84,16.9,82.5,16.9,81.2,16.9z"/>
	</g>
</g>
<g>
	<rect x="96" class="st5" width="48" height="48"/>
	<g>
		<path class="st1" d="M134.5,24c0,2.4,0,4.9,0,7.3s-1,4.3-2.9,5.8c-1.3,1-2.7,1.4-4.2,1.4c-4.9,0-9.9,0-14.7,0c-2.5,0-4.4-1-5.9-3
			c-0.9-1.2-1.4-2.6-1.4-4.1c0-4.9,0-9.9,0-14.7c0-3,1.8-5.6,4.6-6.7c0.9-0.3,1.8-0.5,2.6-0.5c4.9,0,9.8,0,14.7,0
			c2.2,0,4,0.8,5.4,2.4c1.2,1.4,1.8,3,1.8,4.7C134.6,19,134.5,21.5,134.5,24z M119.9,36.5c2.4,0,4.9,0,7.3,0c3,0,5.2-2.3,5.2-5.2
			c0-4.9,0-9.7,0-14.6c0-3-2.3-5.2-5.3-5.2c-4.9,0-9.7,0-14.6,0c-0.3,0-0.6,0-0.9,0.1c-2.6,0.5-4.3,2.6-4.3,5.2c0,2.1,0,4.1,0,6.2
			c0,2.8,0,5.6,0,8.4c0,0.9,0.2,1.7,0.6,2.5c1,1.8,2.6,2.7,4.7,2.7C115.2,36.5,117.6,36.5,119.9,36.5z"/>
		<path class="st1" d="M120,31.7c-4.2,0-7.7-3.4-7.7-7.8c0-4.2,3.4-7.7,7.7-7.7c4.3,0,7.7,3.4,7.7,7.8
			C127.7,28.2,124.2,31.7,120,31.7z M125.6,24c0-3.1-2.6-5.7-5.7-5.7c-3.1,0-5.7,2.6-5.7,5.7s2.6,5.7,5.7,5.7
			C123.1,29.7,125.7,27.1,125.6,24z"/>
		<path class="st1" d="M130,15.7c0,1-0.8,1.8-1.8,1.8c-1,0-1.8-0.8-1.8-1.8c0-1,0.8-1.8,1.8-1.8C129.2,14,130,14.8,130,15.7z"/>
	</g>
</g>
<g>
	<path class="st1" d="M314.5,21.9l10.1-11.7h-2.4l-8.8,10.1l-7-10.1h-8L309,25.5l-10.6,12.3h2.4l9.2-10.7l7.3,10.7h8L314.5,21.9
		L314.5,21.9z M311.3,25.7l-1.1-1.5L301.7,12h3.7l6.9,9.8l1.1,1.5l9,12.8h-3.7L311.3,25.7L311.3,25.7z"/>
</g>
<path class="st1" d="M374.3,24c0,0,0,4.6-0.6,6.9c-0.3,1.2-1.3,2.2-2.6,2.6C368.9,34,360,34,360,34s-8.9,0-11.2-0.6
	c-1.2-0.3-2.2-1.3-2.6-2.6c-0.6-2.2-0.6-6.9-0.6-6.9s0-4.6,0.6-6.9c0.3-1.2,1.3-2.2,2.6-2.6C351.1,14,360,14,360,14s8.9,0,11.2,0.6
	c1.2,0.3,2.2,1.3,2.6,2.6C374.3,19.4,374.3,24,374.3,24z M357.1,28.3l7.4-4.3l-7.4-4.3V28.3z"/>
<rect x="336" class="st5" width="48" height="48"/>
</svg>
