<?xml version="1.0" encoding="utf-8"?>
<!-- Generator: Adobe Illustrator 25.4.1, SVG Export Plug-In . SVG Version: 6.00 Build 0)  -->
<svg version="1.2" baseProfile="tiny-ps" id="Capa_1" xmlns="http://www.w3.org/2000/svg" xmlns:xlink="http://www.w3.org/1999/xlink" viewBox="0 0 500 500" xml:space="preserve">
<title>Edgar Cornejo</title>
<rect fill="#FFFFFF" fill-opacity="0" width="500" height="500"/>
<g>
	<rect x="278.4" y="225.5" fill="#36BDEC" width="38.2" height="48.9"/>
	<path fill="#36BDEC" d="M316.7,372.3v-48.9H299c-29.7,0-42.3-12.6-48.9-27.1c-6.6,14.5-19.2,27.1-48.9,27.1h-17.7v48.9H316.7z"/>
	<rect x="183.3" y="225.5" fill="#36BDEC" width="38.2" height="48.9"/>
	<path fill="#36BDEC" d="M250,203.7c6.6-14.5,19.2-27.1,48.9-27.1h17.7v-48.9H183.3v48.9H201C230.8,176.6,243.4,189.2,250,203.7"/>
	<path fill="#36BDEC" d="M116.7,296.3c6.6,14.5,19.2,27.1,48.9,27.1h17.7v-48.9h-38.2v-48.9h38.2v-48.9h-17.7
		c-29.7,0-42.3,12.6-48.9,27.1c-6.6-14.5-19.2-27.1-48.9-27.1H50v48.9h38.2v48.9H50v48.9h17.7C97.5,323.4,110.1,310.8,116.7,296.3"
		/>
	<path fill="#36BDEC" d="M383.3,296.3c6.6,14.5,19.2,27.1,48.9,27.1H450v-48.9h-38.2v-48.9H450v-48.9h-17.7
		c-29.8,0-42.3,12.6-48.9,27.1c-6.6-14.5-19.2-27.1-48.9-27.1h-17.7v48.9H355v48.9h-38.2v48.9h17.7
		C364.2,323.4,376.7,310.8,383.3,296.3"/>
</g>
</svg>