<?xml version="1.0" encoding="utf-8"?>
<!-- Generator: Adobe Illustrator 27.8.0, SVG Export Plug-In . SVG Version: 6.00 Build 0)  -->
<svg version="1.1" id="Capa_1" xmlns="http://www.w3.org/2000/svg" xmlns:xlink="http://www.w3.org/1999/xlink" x="0px" y="0px"
	 viewBox="0 0 128 128" style="enable-background:new 0 0 128 128;" xml:space="preserve">
<style type="text/css">
	.st0{fill:#39BEED;}
</style>
<g>
	<rect x="46.1" y="58" class="st0" width="11.9" height="11.9"/>
	<rect x="70" y="58" class="st0" width="11.9" height="11.9"/>
	<path class="st0" d="M64,70c0,6.6-5.3,11.9-11.9,11.9h-6v11.9H58H70h11.9V81.9h-6C69.3,81.9,64,76.6,64,70z"/>
	<path class="st0" d="M64,58c0-6.6,5.3-11.9,11.9-11.9h6V34.2H70H58H46.1v11.9h6C58.7,46.1,64,51.4,64,58z"/>
	<path class="st0" d="M34.2,70V58h11.9V46.1h-6c-6.6,0-11.9,5.3-11.9,11.9c0-6.6-5.3-11.9-11.9-11.9h-6V58h11.9l0,0V70H10.3v11.9h6
		c6.6,0,11.9-5.3,11.9-11.9c0,6.6,5.3,11.9,11.9,11.9h6V70H34.2z"/>
	<path class="st0" d="M117.7,58V46.1h-6c-6.6,0-11.9,5.3-11.9,11.9c0-6.6-5.3-11.9-11.9-11.9h-6V58h11.9V70H81.9v11.9h6
		c6.6,0,11.9-5.3,11.9-11.9c0,6.6,5.3,11.9,11.9,11.9h6V70h-11.9V58H117.7z"/>
</g>
</svg>
