<?xml version="1.0" encoding="utf-8"?>
<!-- Generator: Adobe Illustrator 24.0.2, SVG Export Plug-In . SVG Version: 6.00 Build 0)  -->
<svg version="1.1" id="Capa_1" xmlns="http://www.w3.org/2000/svg" xmlns:xlink="http://www.w3.org/1999/xlink" x="0px" y="0px"
	 viewBox="0 0 100 55.56" style="enable-background:new 0 0 100 55.56;" xml:space="preserve">
<style type="text/css">
	.st0{fill:#FFFFFF;}
</style>
<g>
	<rect x="33.33" y="22.22" class="st0" width="11.11" height="11.11"/>
	<rect x="55.56" y="22.22" class="st0" width="11.11" height="11.11"/>
	<path class="st0" d="M50,33.33c0,6.14-4.97,11.11-11.11,11.11h-5.56v11.11h11.11h11.11h11.11V44.44h-5.56
		C54.97,44.44,50,39.47,50,33.33z"/>
	<path class="st0" d="M50,22.22c0-6.14,4.97-11.11,11.11-11.11h5.56V0H55.56H44.44H33.33v11.11h5.56C45.03,11.11,50,16.09,50,22.22z
		"/>
	<path class="st0" d="M22.22,33.33V22.22h11.11V11.11h-5.56c-6.14,0-11.11,4.97-11.11,11.11c0-6.14-4.97-11.11-11.11-11.11H0v11.11
		h11.11v11.11H0v11.11h5.56c6.14,0,11.11-4.97,11.11-11.11c0,6.14,4.97,11.11,11.11,11.11h5.56V33.33H22.22z"/>
	<path class="st0" d="M100,22.22V11.11h-5.56c-6.14,0-11.11,4.97-11.11,11.11c0-6.14-4.97-11.11-11.11-11.11h-5.56v11.11h11.11
		v11.11H66.67v11.11h5.56c6.14,0,11.11-4.97,11.11-11.11c0,6.14,4.97,11.11,11.11,11.11H100V33.33H88.89V22.22H100z"/>
</g>
</svg>
